TikTokSans.glyphspackage
{
glyphname = exclam;
kernLeft = KO_exclam;
kernRight = KO_exclam;
layers = (
{
layerId = m008;
shapes = (
{
closed = 1;
nodes = (
(179,208,l),
(179,705,l),
(110,705,l),
(110,208,l)
);
},
{
closed = 1;
nodes = (
(178,-5,o),
(204,22,o),
(204,55,cs),
(204,88,o),
(178,115,o),
(144,115,cs),
(112,115,o),
(85,88,o),
(85,55,cs),
(85,22,o),
(112,-5,o),
(144,-5,cs)
);
}
);
width = 289;
},
{
layerId = "E0044746-7B1A-4AF1-A08A-EDFF47B9B447";
shapes = (
{
closed = 1;
nodes = (
(199,208,l),
(199,705,l),
(130,705,l),
(130,208,l)
);
},
{
closed = 1;
nodes = (
(198,-5,o),
(224,22,o),
(224,55,cs),
(224,88,o),
(198,115,o),
(164,115,cs),
(132,115,o),
(105,88,o),
(105,55,cs),
(105,22,o),
(132,-5,o),
(164,-5,cs)
);
}
);
width = 329;
},
{
layerId = "EAEE501F-808F-4F80-A534-C44A55AE9CF1";
shapes = (
{
closed = 1;
nodes = (
(271,245,l),
(271,705,l),
(81,705,l),
(81,245,l)
);
},
{
closed = 1;
nodes = (
(240,-5,o),
(286,41,o),
(286,102,cs),
(286,164,o),
(240,211,o),
(176,211,cs),
(113,211,o),
(67,164,o),
(67,102,cs),
(67,41,o),
(113,-5,o),
(176,-5,cs)
);
}
);
width = 353;
},
{
layerId = "D0F786FD-D799-4DD4-8218-8DF09CBA4779";
shapes = (
{
closed = 1;
nodes = (
(301,246,l),
(301,705,l),
(112,705,l),
(112,246,l)
);
},
{
closed = 1;
nodes = (
(267,-6,o),
(312,39,o),
(312,98,cs),
(312,158,o),
(267,202,o),
(206,202,cs),
(146,202,o),
(100,158,o),
(100,98,cs),
(100,39,o),
(146,-6,o),
(206,-6,cs)
);
}
);
width = 412;
},
{
layerId = "38794FDE-96C3-45FE-89A8-4F68FD88490C";
shapes = (
{
closed = 1;
nodes = (
(143,206,l),
(143,705,l),
(80,705,l),
(80,206,l)
);
},
{
closed = 1;
nodes = (
(140,-5,o),
(161,20,o),
(161,53,cs),
(161,86,o),
(140,111,o),
(111,111,cs),
(83,111,o),
(62,86,o),
(62,53,cs),
(62,20,o),
(83,-5,o),
(111,-5,cs)
);
}
);
width = 223;
},
{
layerId = "BD94C4B7-004C-4524-8669-6CB6D8067CD8";
shapes = (
{
closed = 1;
nodes = (
(242,241,l),
(242,705,l),
(62,705,l),
(62,241,l)
);
},
{
closed = 1;
nodes = (
(209,-5,o),
(252,39,o),
(252,98,cs),
(252,157,o),
(209,201,o),
(152,201,cs),
(95,201,o),
(52,157,o),
(52,98,cs),
(52,39,o),
(95,-5,o),
(152,-5,cs)
);
}
);
width = 304;
},
{
layerId = "B4464F9C-2DA6-418A-B3C4-1470167D4EB6";
shapes = (
{
closed = 1;
nodes = (
(184,208,l),
(184,705,l),
(114,705,l),
(114,208,l)
);
},
{
closed = 1;
nodes = (
(187,-5,o),
(213,18,o),
(213,53,cs),
(213,88,o),
(187,115,o),
(149,115,cs),
(111,115,o),
(85,88,o),
(85,53,cs),
(85,18,o),
(111,-5,o),
(149,-5,cs)
);
}
);
width = 298;
},
{
background = {
shapes = (
{
closed = 1;
nodes = (
(326,258,l),
(326,705,l),
(94,705,l),
(94,258,l)
);
},
{
closed = 1;
nodes = (
(292,-5,o),
(353,48,o),
(353,118,cs),
(353,189,o),
(292,244,o),
(210,244,cs),
(129,244,o),
(68,190,o),
(68,118,cs),
(68,49,o),
(129,-5,o),
(210,-5,cs)
);
}
);
};
layerId = "9C3D73EE-3D01-4F34-8F18-5001540A34C7";
shapes = (
{
closed = 1;
nodes = (
(326,265,l),
(326,705,l),
(94,705,l),
(94,265,l)
);
},
{
closed = 1;
nodes = (
(288,-10,o),
(348,42,o),
(348,112,cs),
(348,182,o),
(288,234,o),
(210,234,cs),
(132,234,o),
(72,182,o),
(72,112,cs),
(72,42,o),
(132,-10,o),
(210,-10,cs)
);
}
);
width = 420;
}
);
note = exclam;
unicode = 33;
userData = {
KernOnSpecialSpacing = {
L = symbols;
R = symbols;
};
};
}
{
glyphname = quotedbl;
kernLeft = KO_quotedbl;
kernRight = KO_quotedbl;
layers = (
{
layerId = m008;
shapes = (
{
closed = 1;
nodes = (
(134,453,l),
(144,722,l),
(75,722,l),
(85,453,l)
);
},
{
closed = 1;
nodes = (
(315,453,l),
(325,722,l),
(256,722,l),
(266,453,l)
);
}
);
width = 400;
},
{
layerId = "E0044746-7B1A-4AF1-A08A-EDFF47B9B447";
shapes = (
{
closed = 1;
nodes = (
(149,453,l),
(159,722,l),
(90,722,l),
(100,453,l)
);
},
{
closed = 1;
nodes = (
(330,453,l),
(340,722,l),
(271,722,l),
(281,453,l)
);
}
);
width = 430;
},
{
layerId = "EAEE501F-808F-4F80-A534-C44A55AE9CF1";
shapes = (
{
closed = 1;
nodes = (
(196,414,l),
(208,722,l),
(43,722,l),
(55,414,l)
);
},
{
closed = 1;
nodes = (
(424,414,l),
(436,722,l),
(271,722,l),
(283,414,l)
);
}
);
width = 479;
},
{
layerId = "D0F786FD-D799-4DD4-8218-8DF09CBA4779";
shapes = (
{
closed = 1;
nodes = (
(230,414,l),
(241,722,l),
(72,722,l),
(83,414,l)
);
},
{
closed = 1;
nodes = (
(468,414,l),
(479,722,l),
(310,722,l),
(321,414,l)
);
}
);
width = 551;
},
{
layerId = "38794FDE-96C3-45FE-89A8-4F68FD88490C";
shapes = (
{
closed = 1;
nodes = (
(103,455,l),
(111,722,l),
(50,722,l),
(58,455,l)
);
},
{
closed = 1;
nodes = (
(233,455,l),
(241,722,l),
(180,722,l),
(188,455,l)
);
}
);
width = 291;
},
{
layerId = "BD94C4B7-004C-4524-8669-6CB6D8067CD8";
shapes = (
{
closed = 1;
nodes = (
(174,418,l),
(184,722,l),
(30,722,l),
(40,418,l)
);
},
{
closed = 1;
nodes = (
(374,418,l),
(384,722,l),
(230,722,l),
(240,418,l)
);
}
);
width = 414;
},
{
layerId = "B4464F9C-2DA6-418A-B3C4-1470167D4EB6";
shapes = (
{
closed = 1;
nodes = (
(136,453,l),
(147,722,l),
(75,722,l),
(86,453,l)
);
},
{
closed = 1;
nodes = (
(346,453,l),
(357,722,l),
(285,722,l),
(296,453,l)
);
}
);
width = 432;
},
{
layerId = "9C3D73EE-3D01-4F34-8F18-5001540A34C7";
shapes = (
{
closed = 1;
nodes = (
(230,400,l),
(247,722,l),
(43,722,l),
(60,400,l)
);
},
{
closed = 1;
nodes = (
(499,400,l),
(516,722,l),
(313,722,l),
(330,400,l)
);
}
);
width = 559;
}
);
metricLeft = quotesingle;
metricRight = quotesingle;
note = quotedbl;
unicode = 34;
userData = {
KernOnSpecialSpacing = {
L = quotes;
R = quotes;
};
};
}
{
glyphname = numbersign;
layers = (
{
guides = (
{
angle = -102.4074;
pos = (20,217);
},
{
angle = -102.4074;
pos = (60,441);
},
{
angle = -102.4074;
pos = (649,441);
},
{
angle = -102.4074;
pos = (612,217);
},
{
angle = 78.4558;
pos = (441,0);
},
{
angle = 78.4558;
pos = (381,0);
},
{
angle = 78.4558;
pos = (161,0);
},
{
angle = 78.4558;
pos = (101,0);
}
);
layerId = m008;
shapes = (
{
closed = 1;
nodes = (
(585,705,l),
(525,705,l),
(381,0,l),
(441,0,l)
);
},
{
closed = 1;
nodes = (
(649,441,l),
(660,491,l),
(71,491,l),
(60,441,l)
);
},
{
closed = 1;
nodes = (
(305,705,l),
(245,705,l),
(101,0,l),
(161,0,l)
);
},
{
closed = 1;
nodes = (
(612,217,l),
(623,267,l),
(31,267,l),
(20,217,l)
);
}
);
width = 680;
},
{
guides = (
{
angle = -102.4074;
pos = (12,217);
},
{
angle = -102.4074;
pos = (52,441);
},
{
angle = -102.4074;
pos = (641,441);
},
{
angle = -102.4074;
pos = (604,217);
},
{
angle = 78.4558;
pos = (433,0);
},
{
angle = 78.4558;
pos = (373,0);
},
{
angle = 78.4558;
pos = (153,0);
},
{
angle = 78.4558;
pos = (93,0);
}
);
layerId = "E0044746-7B1A-4AF1-A08A-EDFF47B9B447";
shapes = (
{
closed = 1;
nodes = (
(585,705,l),
(525,705,l),
(381,0,l),
(441,0,l)
);
},
{
closed = 1;
nodes = (
(649,441,l),
(660,491,l),
(71,491,l),
(60,441,l)
);
},
{
closed = 1;
nodes = (
(305,705,l),
(245,705,l),
(101,0,l),
(161,0,l)
);
},
{
closed = 1;
nodes = (
(612,217,l),
(623,267,l),
(31,267,l),
(20,217,l)
);
}
);
width = 680;
},
{
layerId = "EAEE501F-808F-4F80-A534-C44A55AE9CF1";
shapes = (
{
closed = 1;
nodes = (
(613,705,l),
(470,705,l),
(326,0,l),
(469,0,l)
);
},
{
closed = 1;
nodes = (
(635,421,l),
(664,554,l),
(84,554,l),
(55,421,l)
);
},
{
closed = 1;
nodes = (
(351,705,l),
(208,705,l),
(64,0,l),
(207,0,l)
);
},
{
closed = 1;
nodes = (
(594,162,l),
(621,295,l),
(38,295,l),
(11,162,l)
);
}
);
width = 675;
},
{
layerId = "D0F786FD-D799-4DD4-8218-8DF09CBA4779";
shapes = (
{
closed = 1;
nodes = (
(613,705,l),
(470,705,l),
(326,0,l),
(469,0,l)
);
},
{
closed = 1;
nodes = (
(635,421,l),
(664,554,l),
(84,554,l),
(55,421,l)
);
},
{
closed = 1;
nodes = (
(351,705,l),
(208,705,l),
(64,0,l),
(207,0,l)
);
},
{
closed = 1;
nodes = (
(594,162,l),
(621,295,l),
(38,295,l),
(11,162,l)
);
}
);
width = 675;
},
{
guides = (
{
angle = -102.4074;
pos = (20,217);
},
{
angle = -102.4074;
pos = (60,441);
},
{
angle = -102.4074;
pos = (649,441);
},
{
angle = -102.4074;
pos = (612,217);
},
{
angle = 78.4558;
pos = (441,0);
},
{
angle = 78.4558;
pos = (381,0);
},
{
angle = 78.4558;
pos = (161,0);
},
{
angle = 78.4558;
pos = (101,0);
}
);
layerId = "38794FDE-96C3-45FE-89A8-4F68FD88490C";
shapes = (
{
closed = 1;
nodes = (
(441,705,l),
(388,705,l),
(280,0,l),
(333,0,l)
);
},
{
closed = 1;
nodes = (
(485,442,l),
(495,488,l),
(54,488,l),
(44,442,l)
);
},
{
closed = 1;
nodes = (
(233,705,l),
(180,705,l),
(72,0,l),
(125,0,l)
);
},
{
closed = 1;
nodes = (
(457,219,l),
(467,265,l),
(24,265,l),
(14,219,l)
);
}
);
width = 509;
},
{
layerId = "BD94C4B7-004C-4524-8669-6CB6D8067CD8";
shapes = (
{
closed = 1;
nodes = (
(520,705,l),
(386,705,l),
(268,0,l),
(402,0,l)
);
},
{
closed = 1;
nodes = (
(533,423,l),
(558,548,l),
(70,548,l),
(45,423,l)
);
},
{
closed = 1;
nodes = (
(298,705,l),
(164,705,l),
(45,0,l),
(179,0,l)
);
},
{
closed = 1;
nodes = (
(496,167,l),
(521,292,l),
(32,292,l),
(7,167,l)
);
}
);
width = 565;
},
{
guides = (
{
angle = -102.4074;
pos = (7,217);
},
{
angle = -102.4074;
pos = (47,441);
},
{
angle = -102.4074;
pos = (636,441);
},
{
angle = -102.4074;
pos = (599,217);
},
{
angle = 78.4558;
pos = (428,0);
},
{
angle = 78.4558;
pos = (368,0);
},
{
angle = 78.4558;
pos = (148,0);
},
{
angle = 78.4558;
pos = (88,0);
}
);
layerId = "B4464F9C-2DA6-418A-B3C4-1470167D4EB6";
shapes = (
{
closed = 1;
nodes = (
(857,705,l),
(791,705,l),
(575,0,l),
(641,0,l)
);
},
{
closed = 1;
nodes = (
(964,441,l),
(976,491,l),
(90,491,l),
(78,441,l)
);
},
{
closed = 1;
nodes = (
(431,705,l),
(365,705,l),
(149,0,l),
(215,0,l)
);
},
{
closed = 1;
nodes = (
(911,217,l),
(923,267,l),
(32,267,l),
(20,217,l)
);
}
);
width = 996;
},
{
layerId = "9C3D73EE-3D01-4F34-8F18-5001540A34C7";
shapes = (
{
closed = 1;
nodes = (
(898,705,l),
(720,705,l),
(504,0,l),
(682,0,l)
);
},
{
closed = 1;
nodes = (
(949,414,l),
(985,576,l),
(111,576,l),
(75,414,l)
);
},
{
closed = 1;
nodes = (
(497,705,l),
(319,705,l),
(103,0,l),
(281,0,l)
);
},
{
closed = 1;
nodes = (
(889,143,l),
(925,305,l),
(47,305,l),
(11,143,l)
);
}
);
width = 996;
}
);
note = numbersign;
unicode = 35;
}
{
glyphname = dollar;
kernRight = KO_dollar;
layers = (
{
layerId = m008;
shapes = (
{
closed = 1;
nodes = (
(427,0,o),
(517,77,o),
(517,198,cs),
(517,289,o),
(464,349,o),
(364,383,cs),
(253,421,ls),
(177,447,o),
(146,476,o),
(146,529,cs),
(146,602,o),
(198,646,o),
(284,646,cs),
(367,646,o),
(422,611,o),
(450,537,c),
(511,557,l),
(485,652,o),
(403,705,o),
(288,705,cs),
(162,705,o),
(78,633,o),
(78,525,cs),
(78,445,o),
(125,393,o),
(221,362,cs),
(335,325,ls),
(411,300,o),
(448,260,o),
(448,193,cs),
(448,107,o),
(392,59,o),
(293,59,cs),
(185,59,o),
(120,108,o),
(98,203,c),
(35,187,l),
(60,65,o),
(146,0,o),
(285,0,cs)
);
},
{
closed = 1;
nodes = (
(321,-92,l),
(321,797,l),
(267,797,l),
(267,-92,l)
);
}
);
width = 552;
},
{
layerId = "E0044746-7B1A-4AF1-A08A-EDFF47B9B447";
shapes = (
{
closed = 1;
nodes = (
(439,0,o),
(529,74,o),
(529,191,cs),
(529,285,o),
(476,349,o),
(376,383,cs),
(265,421,ls),
(189,447,o),
(158,480,o),
(158,536,cs),
(158,605,o),
(210,646,o),
(296,646,cs),
(380,646,o),
(438,611,o),
(466,537,c),
(527,557,l),
(500,652,o),
(417,705,o),
(300,705,cs),
(174,705,o),
(90,636,o),
(90,532,cs),
(90,449,o),
(137,393,o),
(233,362,cs),
(347,325,ls),
(423,300,o),
(460,257,o),
(460,186,cs),
(460,105,o),
(404,59,o),
(305,59,cs),
(197,59,o),
(132,108,o),
(110,203,c),
(47,187,l),
(72,65,o),
(158,0,o),
(297,0,cs)
);
},
{
closed = 1;
nodes = (
(334,-92,l),
(334,797,l),
(279,797,l),
(279,-92,l)
);
}
);
width = 576;
},
{
layerId = "EAEE501F-808F-4F80-A534-C44A55AE9CF1";
shapes = (
{
closed = 1;
nodes = (
(471,0,o),
(572,83,o),
(572,218,cs),
(572,318,o),
(517,385,o),
(416,415,cs),
(285,454,ls),
(235,469,o),
(216,490,o),
(216,519,cs),
(216,558,o),
(248,582,o),
(300,582,cs),
(358,582,o),
(397,553,o),
(413,502,c),
(567,539,l),
(549,638,o),
(449,705,o),
(307,705,cs),
(154,705,o),
(56,625,o),
(56,502,cs),
(56,408,o),
(114,341,o),
(210,313,cs),
(344,275,ls),
(393,261,o),
(414,243,o),
(414,209,cs),
(414,160,o),
(373,136,o),
(311,136,cs),
(236,136,o),
(191,171,o),
(178,232,c),
(16,200,l),
(39,67,o),
(145,0,o),
(300,0,cs)
);
},
{
closed = 1;
nodes = (
(349,-94,l),
(349,795,l),
(266,795,l),
(266,-94,l)
);
}
);
width = 588;
},
{
layerId = "D0F786FD-D799-4DD4-8218-8DF09CBA4779";
shapes = (
{
closed = 1;
nodes = (
(485,0,o),
(588,82,o),
(588,218,cs),
(588,315,o),
(533,380,o),
(432,411,cs),
(299,452,ls),
(242,470,o),
(222,490,o),
(222,525,cs),
(222,563,o),
(256,588,o),
(313,588,cs),
(374,588,o),
(413,560,o),
(429,510,c),
(573,546,l),
(554,646,o),
(452,705,o),
(317,705,cs),
(164,705,o),
(65,627,o),
(65,505,cs),
(65,416,o),
(124,345,o),
(219,318,cs),
(338,284,ls),
(412,262,o),
(438,243,o),
(438,204,cs),
(438,158,o),
(392,130,o),
(322,130,cs),
(248,130,o),
(201,164,o),
(186,227,c),
(36,197,l),
(58,69,o),
(155,0,o),
(315,0,cs)
);
},
{
closed = 1;
nodes = (
(365,-94,l),
(365,795,l),
(287,795,l),
(287,-94,l)
);
}
);
width = 624;
},
{
layerId = "38794FDE-96C3-45FE-89A8-4F68FD88490C";
shapes = (
{
closed = 1;
nodes = (
(324,0,o),
(393,75,o),
(393,192,cs),
(393,289,o),
(349,344,o),
(281,377,cs),
(192,421,ls),
(136,449,o),
(116,486,o),
(116,539,cs),
(116,604,o),
(153,650,o),
(218,650,cs),
(283,650,o),
(313,612,o),
(332,543,c),
(388,558,l),
(369,655,o),
(304,705,o),
(217,705,cs),
(120,705,o),
(56,633,o),
(56,536,cs),
(56,456,o),
(94,401,o),
(165,367,cs),
(251,326,ls),
(309,298,o),
(332,256,o),
(332,187,cs),
(332,104,o),
(292,55,o),
(219,55,cs),
(138,55,o),
(98,108,o),
(81,198,c),
(24,186,l),
(42,68,o),
(106,0,o),
(215,0,cs)
);
},
{
closed = 1;
nodes = (
(243,-92,l),
(243,797,l),
(198,797,l),
(198,-92,l)
);
}
);
width = 417;
},
{
layerId = "BD94C4B7-004C-4524-8669-6CB6D8067CD8";
shapes = (
{
closed = 1;
nodes = (
(394,0,o),
(482,81,o),
(482,216,cs),
(482,307,o),
(434,374,o),
(343,410,cs),
(241,451,ls),
(200,468,o),
(184,488,o),
(184,521,cs),
(184,564,o),
(210,589,o),
(255,589,cs),
(300,589,o),
(323,565,o),
(336,507,c),
(478,541,l),
(464,640,o),
(376,705,o),
(254,705,cs),
(121,705,o),
(36,627,o),
(36,505,cs),
(36,425,o),
(85,358,o),
(169,325,cs),
(286,279,ls),
(316,267,o),
(334,240,o),
(334,207,cs),
(334,154,o),
(309,128,o),
(258,128,cs),
(202,128,o),
(173,157,o),
(156,228,c),
(10,199,l),
(28,72,o),
(115,0,o),
(249,0,cs)
);
},
{
closed = 1;
nodes = (
(291,-94,l),
(291,795,l),
(219,795,l),
(219,-94,l)
);
}
);
width = 492;
},
{
layerId = "B4464F9C-2DA6-418A-B3C4-1470167D4EB6";
shapes = (
{
closed = 1;
nodes = (
(576,0,o),
(717,68,o),
(717,198,cs),
(717,289,o),
(648,351,o),
(514,379,cs),
(323,419,ls),
(212,442,o),
(166,476,o),
(166,529,cs),
(166,602,o),
(242,646,o),
(394,646,cs),
(507,646,o),
(609,611,o),
(650,537,c),
(711,557,l),
(676,652,o),
(544,705,o),
(398,705,cs),
(208,705,o),
(98,633,o),
(98,525,cs),
(98,445,o),
(161,389,o),
(291,362,cs),
(485,322,ls),
(595,299,o),
(648,260,o),
(648,193,cs),
(648,100,o),
(543,59,o),
(403,59,cs),
(249,59,o),
(126,108,o),
(98,203,c),
(35,187,l),
(72,65,o),
(199,0,o),
(395,0,cs)
);
},
{
closed = 1;
nodes = (
(436,-92,l),
(436,797,l),
(380,797,l),
(380,-92,l)
);
}
);
width = 752;
},
{
background = {
shapes = (
{
closed = 1;
nodes = (
(688,0,o),
(830,87,o),
(830,230,cs),
(830,335,o),
(751,397,o),
(585,423,cs),
(375,455,ls),
(306,465,o),
(280,481,o),
(280,512,cs),
(280,548,o),
(334,567,o),
(435,567,cs),
(544,567,o),
(615,538,o),
(638,485,c),
(830,530,l),
(800,635,o),
(642,705,o),
(437,705,cs),
(212,705,o),
(80,628,o),
(80,498,cs),
(80,387,o),
(155,320,o),
(302,300,cs),
(536,268,ls),
(602,260,o),
(627,246,o),
(627,217,cs),
(627,173,o),
(583,158,o),
(452,158,cs),
(329,158,o),
(241,193,o),
(223,249,c),
(16,216,l),
(46,78,o),
(203,0,o),
(452,0,cs)
);
},
{
closed = 1;
nodes = (
(502,-95,l),
(502,794,l),
(390,794,l),
(390,-95,l)
);
}
);
};
layerId = "9C3D73EE-3D01-4F34-8F18-5001540A34C7";
shapes = (
{
closed = 1;
nodes = (
(688,0,o),
(830,87,o),
(830,230,cs),
(830,335,o),
(751,397,o),
(585,423,cs),
(375,455,ls),
(306,465,o),
(280,481,o),
(280,512,cs),
(280,548,o),
(334,567,o),
(435,567,cs),
(544,567,o),
(615,538,o),
(638,485,c),
(830,530,l),
(800,635,o),
(642,705,o),
(437,705,cs),
(212,705,o),
(80,628,o),
(80,498,cs),
(80,387,o),
(155,320,o),
(302,300,cs),
(536,268,ls),
(602,260,o),
(627,246,o),
(627,217,cs),
(627,173,o),
(583,158,o),
(452,158,cs),
(329,158,o),
(241,193,o),
(223,249,c),
(16,216,l),
(46,78,o),
(203,0,o),
(452,0,cs)
);
},
{
closed = 1;
nodes = (
(502,-95,l),
(502,794,l),
(390,794,l),
(390,-95,l)
);
}
);
width = 846;
}
);
note = dollar;
unicode = 36;
userData = {
KernOnSpecialSpacing = {
L = symbols;
R = symbols;
};
};
}
{
glyphname = percent;
kernRight = KO_percent;
layers = (
{
layerId = m008;
shapes = (
{
closed = 1;
nodes = (
(108,713,o),
(50,632,o),
(50,511,cs),
(50,389,o),
(108,308,o),
(201,308,cs),
(294,308,o),
(352,389,o),
(352,511,cs),
(352,632,o),
(294,713,o),
(201,713,cs)
);
},
{
closed = 1;
nodes = (
(252,659,o),
(287,602,o),
(287,511,cs),
(287,419,o),
(252,362,o),
(201,362,cs),
(150,362,o),
(115,419,o),
(115,511,cs),
(115,602,o),
(150,659,o),
(201,659,cs)
);
},
{
closed = 1;
nodes = (
(227,0,l),
(674,705,l),
(605,705,l),
(158,0,l)
);
},
{
closed = 1;
nodes = (
(528,396,o),
(470,315,o),
(470,194,cs),
(470,72,o),
(528,-9,o),
(621,-9,cs),
(714,-9,o),
(772,72,o),
(772,194,cs),
(772,315,o),
(714,396,o),
(621,396,cs)
);
},
{
closed = 1;
nodes = (
(672,342,o),
(707,285,o),
(707,194,cs),
(707,102,o),
(672,45,o),
(621,45,cs),
(570,45,o),
(535,102,o),
(535,194,cs),
(535,285,o),
(570,342,o),
(621,342,cs)
);
}
);
width = 822;
},
{
layerId = "E0044746-7B1A-4AF1-A08A-EDFF47B9B447";
shapes = (
{
closed = 1;
nodes = (
(142,713,o),
(81,633,o),
(81,511,cs),
(81,390,o),
(141,308,o),
(238,308,cs),
(334,308,o),
(395,389,o),
(395,511,cs),
(395,632,o),
(334,713,o),
(238,713,cs)
);
},
{
closed = 1;
nodes = (
(293,663,o),
(332,605,o),
(332,511,cs),
(332,417,o),
(293,358,o),
(238,358,cs),
(182,358,o),
(144,417,o),
(144,511,cs),
(144,604,o),
(182,663,o),
(238,663,cs)
);
},
{
closed = 1;
nodes = (
(286,0,l),
(733,705,l),
(666,705,l),
(219,0,l)
);
},
{
closed = 1;
nodes = (
(603,396,o),
(542,316,o),
(542,194,cs),
(542,73,o),
(602,-9,o),
(699,-9,cs),
(795,-9,o),
(856,72,o),
(856,194,cs),
(856,315,o),
(795,396,o),
(699,396,cs)
);
},
{
closed = 1;
nodes = (
(754,346,o),
(793,288,o),
(793,194,cs),
(793,100,o),
(754,41,o),
(699,41,cs),
(643,41,o),
(605,100,o),
(605,194,cs),
(605,287,o),
(643,346,o),
(699,346,cs)
);
}
);
width = 937;
},
{
layerId = "EAEE501F-808F-4F80-A534-C44A55AE9CF1";
shapes = (
{
closed = 1;
nodes = (
(97,713,o),
(34,633,o),
(34,511,cs),
(34,389,o),
(97,308,o),
(210,308,cs),
(322,308,o),
(385,389,o),
(385,511,cs),
(385,632,o),
(322,713,o),
(210,713,cs)
);
},
{
closed = 1;
nodes = (
(242,613,o),
(261,581,o),
(261,511,cs),
(261,440,o),
(242,408,o),
(210,408,cs),
(177,408,o),
(158,440,o),
(158,511,cs),
(158,581,o),
(177,613,o),
(210,613,cs)
);
},
{
closed = 1;
nodes = (
(288,0,l),
(717,705,l),
(596,705,l),
(167,0,l)
);
},
{
closed = 1;
nodes = (
(565,396,o),
(502,316,o),
(502,194,cs),
(502,72,o),
(565,-9,o),
(678,-9,cs),
(790,-9,o),
(853,72,o),
(853,194,cs),
(853,315,o),
(790,396,o),
(678,396,cs)
);
},
{
closed = 1;
nodes = (
(710,296,o),
(729,264,o),
(729,194,cs),
(729,123,o),
(710,91,o),
(678,91,cs),
(645,91,o),
(626,123,o),
(626,194,cs),
(626,264,o),
(645,296,o),
(678,296,cs)
);
}
);
width = 887;
},
{
layerId = "D0F786FD-D799-4DD4-8218-8DF09CBA4779";
shapes = (
{
closed = 1;
nodes = (
(144,713,o),
(78,632,o),
(78,511,cs),
(78,389,o),
(144,308,o),
(261,308,cs),
(379,308,o),
(445,389,o),
(445,511,cs),
(445,633,o),
(378,713,o),
(261,713,cs)
);
},
{
closed = 1;
nodes = (
(297,620,o),
(317,587,o),
(317,511,cs),
(317,434,o),
(296,401,o),
(261,401,cs),
(226,401,o),
(206,434,o),
(206,511,cs),
(206,587,o),
(226,620,o),
(261,620,cs)
);
},
{
closed = 1;
nodes = (
(356,0,l),
(784,705,l),
(664,705,l),
(235,0,l)
);
},
{
closed = 1;
nodes = (
(653,396,o),
(587,315,o),
(587,194,cs),
(587,72,o),
(653,-9,o),
(770,-9,cs),
(888,-9,o),
(954,72,o),
(954,194,cs),
(954,316,o),
(887,396,o),
(770,396,cs)
);
},
{
closed = 1;
nodes = (
(806,303,o),
(826,270,o),
(826,194,cs),
(826,117,o),
(805,84,o),
(770,84,cs),
(735,84,o),
(715,117,o),
(715,194,cs),
(715,270,o),
(735,303,o),
(770,303,cs)
);
}
);
width = 1032;
},
{
layerId = "38794FDE-96C3-45FE-89A8-4F68FD88490C";
shapes = (
{
closed = 1;
nodes = (
(78,713,o),
(35,638,o),
(35,511,cs),
(35,384,o),
(78,309,o),
(150,309,cs),
(222,309,o),
(265,384,o),
(265,511,cs),
(265,638,o),
(222,713,o),
(150,713,cs)
);
},
{
closed = 1;
nodes = (
(189,663,o),
(212,609,o),
(212,511,cs),
(212,413,o),
(189,359,o),
(150,359,cs),
(111,359,o),
(88,413,o),
(88,511,cs),
(88,609,o),
(111,663,o),
(150,663,cs)
);
},
{
closed = 1;
nodes = (
(175,0,l),
(509,705,l),
(452,705,l),
(118,0,l)
);
},
{
closed = 1;
nodes = (
(399,395,o),
(356,320,o),
(356,193,cs),
(356,66,o),
(399,-9,o),
(471,-9,cs),
(543,-9,o),
(586,66,o),
(586,193,cs),
(586,320,o),
(543,395,o),
(471,395,cs)
);
},
{
closed = 1;
nodes = (
(510,345,o),
(533,291,o),
(533,193,cs),
(533,95,o),
(510,41,o),
(471,41,cs),
(432,41,o),
(409,95,o),
(409,193,cs),
(409,291,o),
(432,345,o),
(471,345,cs)
);
}
);
width = 621;
},
{
layerId = "BD94C4B7-004C-4524-8669-6CB6D8067CD8";
shapes = (
{
closed = 1;
nodes = (
(77,713,o),
(20,637,o),
(20,511,cs),
(20,385,o),
(77,309,o),
(173,309,cs),
(269,309,o),
(326,385,o),
(326,511,cs),
(326,637,o),
(268,713,o),
(173,713,cs)
);
},
{
closed = 1;
nodes = (
(202,618,o),
(218,580,o),
(218,511,cs),
(218,442,o),
(202,404,o),
(173,404,cs),
(144,404,o),
(128,442,o),
(128,511,cs),
(128,580,o),
(144,618,o),
(173,618,cs)
);
},
{
closed = 1;
nodes = (
(249,0,l),
(599,705,l),
(489,705,l),
(139,0,l)
);
},
{
closed = 1;
nodes = (
(474,395,o),
(417,319,o),
(417,193,cs),
(417,67,o),
(474,-9,o),
(570,-9,cs),
(666,-9,o),
(723,67,o),
(723,193,cs),
(723,319,o),
(665,395,o),
(570,395,cs)
);
},
{
closed = 1;
nodes = (
(599,300,o),
(615,262,o),
(615,193,cs),
(615,124,o),
(599,86,o),
(570,86,cs),
(541,86,o),
(525,124,o),
(525,193,cs),
(525,262,o),
(541,300,o),
(570,300,cs)
);
}
);
width = 743;
},
{
layerId = "B4464F9C-2DA6-418A-B3C4-1470167D4EB6";
shapes = (
{
closed = 1;
nodes = (
(129,713,o),
(50,630,o),
(50,511,cs),
(50,392,o),
(129,308,o),
(251,308,cs),
(373,308,o),
(452,392,o),
(452,511,cs),
(452,630,o),
(373,713,o),
(251,713,cs)
);
},
{
closed = 1;
nodes = (
(333,659,o),
(387,596,o),
(387,511,cs),
(387,426,o),
(334,362,o),
(251,362,cs),
(168,362,o),
(115,426,o),
(115,511,cs),
(115,596,o),
(169,659,o),
(251,659,cs)
);
},
{
closed = 1;
nodes = (
(257,0,l),
(922,705,l),
(843,705,l),
(178,0,l)
);
},
{
closed = 1;
nodes = (
(708,396,o),
(629,313,o),
(629,194,cs),
(629,75,o),
(708,-9,o),
(830,-9,cs),
(952,-9,o),
(1031,75,o),
(1031,194,cs),
(1031,313,o),
(952,396,o),
(830,396,cs)
);
},
{
closed = 1;
nodes = (
(912,342,o),
(966,279,o),
(966,194,cs),
(966,109,o),
(913,45,o),
(830,45,cs),
(747,45,o),
(694,109,o),
(694,194,cs),
(694,279,o),
(748,342,o),
(830,342,cs)
);
}
);
width = 1081;
},
{
layerId = "9C3D73EE-3D01-4F34-8F18-5001540A34C7";
shapes = (
{
closed = 1;
nodes = (
(127,713,o),
(34,634,o),
(34,507,cs),
(34,381,o),
(129,301,o),
(280,301,cs),
(432,301,o),
(526,380,o),
(526,507,cs),
(526,633,o),
(431,713,o),
(280,713,cs)
);
},
{
closed = 1;
nodes = (
(340,593,o),
(376,560,o),
(376,507,cs),
(376,454,o),
(339,421,o),
(280,421,cs),
(220,421,o),
(184,453,o),
(184,507,cs),
(184,560,o),
(220,593,o),
(280,593,cs)
);
},
{
closed = 1;
nodes = (
(370,0,l),
(1039,705,l),
(867,705,l),
(198,0,l)
);
},
{
closed = 1;
nodes = (
(805,403,o),
(712,324,o),
(712,197,cs),
(712,71,o),
(807,-9,o),
(958,-9,cs),
(1110,-9,o),
(1204,70,o),
(1204,197,cs),
(1204,323,o),
(1109,403,o),
(958,403,cs)
);
},
{
closed = 1;
nodes = (
(1018,283,o),
(1054,250,o),
(1054,197,cs),
(1054,144,o),
(1017,111,o),
(958,111,cs),
(898,111,o),
(862,143,o),
(862,197,cs),
(862,250,o),
(898,283,o),
(958,283,cs)
);
}
);
width = 1238;
}
);
note = percent;
unicode = 37;
userData = {
KernOnSpecialSpacing = {
L = NoKerning;
};
};
}
{
glyphname = ampersand;
kernLeft = KO_ampersand;
kernRight = KO_ampersand;
layers = (
{
layerId = m008;
shapes = (
{
closed = 1;
nodes = (
(410,-17,o),
(496,24,o),
(545,99,c),
(557,115,l),
(594,169,o),
(619,235,o),
(643,343,c),
(585,360,l),
(564,258,o),
(545,204,o),
(512,149,c),
(502,137,l),
(461,74,o),
(390,39,o),
(305,39,cs),
(200,39,o),
(134,96,o),
(134,186,cs),
(134,252,o),
(179,301,o),
(289,354,c),
(328,367,l),
(444,425,o),
(489,480,o),
(489,562,cs),
(489,657,o),
(417,722,o),
(311,722,cs),
(208,722,o),
(137,658,o),
(137,565,cs),
(137,504,o),
(173,443,o),
(250,376,c),
(267,353,l),
(613,0,l),
(698,0,l),
(328,383,l),
(318,396,l),
(231,475,o),
(205,513,o),
(205,563,cs),
(205,625,o),
(246,666,o),
(311,666,cs),
(379,666,o),
(421,625,o),
(421,560,cs),
(421,496,o),
(385,453,o),
(290,406,c),
(251,393,l),
(126,338,o),
(66,271,o),
(66,183,cs),
(66,62,o),
(160,-17,o),
(305,-17,cs)
);
}
);
width = 711;
},
{
layerId = "E0044746-7B1A-4AF1-A08A-EDFF47B9B447";
shapes = (
{
closed = 1;
nodes = (
(410,-17,o),
(495,22,o),
(551,96,c),
(563,112,l),
(604,163,o),
(632,231,o),
(654,325,c),
(593,341,l),
(573,250,o),
(550,192,o),
(517,149,c),
(506,134,l),
(462,73,o),
(390,39,o),
(307,39,cs),
(203,39,o),
(138,94,o),
(138,181,cs),
(138,256,o),
(185,303,o),
(289,355,c),
(333,369,l),
(445,425,o),
(498,484,o),
(498,560,cs),
(498,656,o),
(427,722,o),
(324,722,cs),
(219,722,o),
(146,657,o),
(146,565,cs),
(146,498,o),
(185,428,o),
(253,372,c),
(271,353,l),
(617,0,l),
(702,0,l),
(333,381,l),
(316,399,l),
(241,466,o),
(214,509,o),
(214,563,cs),
(214,625,o),
(258,666,o),
(324,666,cs),
(388,666,o),
(430,624,o),
(430,560,cs),
(430,498,o),
(387,450,o),
(294,403,c),
(253,392,l),
(132,340,o),
(70,274,o),
(70,178,cs),
(70,59,o),
(162,-17,o),
(306,-17,cs)
);
}
);
width = 722;
},
{
layerId = "EAEE501F-808F-4F80-A534-C44A55AE9CF1";
shapes = (
{
closed = 1;
nodes = (
(401,-17,o),
(481,20,o),
(526,80,c),
(563,106,l),
(631,159,o),
(676,234,o),
(696,321,c),
(548,361,l),
(530,299,o),
(507,250,o),
(478,214,c),
(447,191,l),
(417,144,o),
(373,121,o),
(321,121,cs),
(248,121,o),
(203,157,o),
(203,215,cs),
(203,258,o),
(239,288,o),
(287,306,c),
(364,349,l),
(484,397,o),
(539,462,o),
(539,545,cs),
(539,651,o),
(451,722,o),
(321,722,cs),
(187,722,o),
(103,646,o),
(103,548,cs),
(103,483,o),
(139,426,o),
(198,377,c),
(241,321,l),
(546,0,l),
(753,0,l),
(386,382,l),
(329,444,l),
(281,476,o),
(255,510,o),
(255,543,cs),
(255,583,o),
(279,607,o),
(321,607,cs),
(363,607,o),
(388,582,o),
(388,541,cs),
(388,502,o),
(367,476,o),
(297,442,c),
(204,399,l),
(84,351,o),
(25,287,o),
(25,194,cs),
(25,68,o),
(131,-17,o),
(293,-17,cs)
);
}
);
width = 761;
},
{
layerId = "D0F786FD-D799-4DD4-8218-8DF09CBA4779";
shapes = (
{
closed = 1;
nodes = (
(392,-17,o),
(491,27,o),
(535,91,c),
(571,115,l),
(650,178,o),
(681,223,o),
(700,323,c),
(559,363,l),
(542,292,o),
(524,249,o),
(492,206,c),
(459,158,l),
(420,126,o),
(372,110,o),
(320,110,cs),
(244,110,o),
(195,154,o),
(195,222,cs),
(195,280,o),
(224,314,o),
(285,334,c),
(355,372,l),
(475,377,o),
(553,446,o),
(553,551,cs),
(553,653,o),
(464,722,o),
(330,722,cs),
(195,722,o),
(105,651,o),
(105,545,cs),
(105,469,o),
(142,413,o),
(224,368,c),
(267,324,l),
(577,0,l),
(755,0,l),
(404,382,l),
(337,432,l),
(285,466,o),
(253,509,o),
(253,546,cs),
(253,591,o),
(282,617,o),
(333,617,cs),
(383,617,o),
(413,590,o),
(413,543,cs),
(413,491,o),
(389,456,o),
(332,427,c),
(236,386,l),
(110,376,o),
(30,302,o),
(30,194,cs),
(30,69,o),
(135,-17,o),
(287,-17,cs)
);
}
);
width = 770;
},
{
layerId = "38794FDE-96C3-45FE-89A8-4F68FD88490C";
shapes = (
{
closed = 1;
nodes = (
(307,-17,o),
(373,27,o),
(409,100,c),
(418,115,l),
(449,169,o),
(469,235,o),
(487,344,c),
(436,351,l),
(421,252,o),
(407,205,o),
(381,146,c),
(374,135,l),
(345,74,o),
(292,36,o),
(229,36,cs),
(152,36,o),
(107,96,o),
(107,175,cs),
(107,243,o),
(141,299,o),
(216,352,c),
(249,373,l),
(332,429,o),
(370,492,o),
(370,569,cs),
(370,661,o),
(317,722,o),
(234,722,cs),
(153,722,o),
(98,658,o),
(98,566,cs),
(98,511,o),
(130,439,o),
(182,376,c),
(197,354,l),
(453,0,l),
(523,0,l),
(246,383,l),
(239,394,l),
(182,468,o),
(158,519,o),
(158,564,cs),
(158,628,o),
(188,669,o),
(234,669,cs),
(283,669,o),
(312,631,o),
(312,567,cs),
(312,505,o),
(280,452,o),
(218,409,c),
(183,389,l),
(91,335,o),
(45,253,o),
(45,173,cs),
(45,64,o),
(114,-17,o),
(226,-17,cs)
);
}
);
width = 537;
},
{
background = {
shapes = (
{
closed = 1;
nodes = (
(320,-17,o),
(389,17,o),
(428,82,c),
(461,107,l),
(516,163,o),
(557,237,o),
(580,323,c),
(452,356,l),
(438,301,o),
(420,257,o),
(388,207,c),
(355,186,l),
(333,137,o),
(300,113,o),
(256,113,cs),
(210,113,o),
(180,147,o),
(180,201,cs),
(180,241,o),
(199,277,o),
(236,305,c),
(306,351,l),
(398,395,o),
(457,476,o),
(457,556,cs),
(457,661,o),
(387,722,o),
(266,722,cs),
(154,722,o),
(77,652,o),
(77,550,cs),
(77,489,o),
(103,430,o),
(152,377,c),
(192,324,l),
(436,0,l),
(621,0,l),
(323,382,l),
(277,439,l),
(237,484,o),
(221,515,o),
(221,550,cs),
(221,590,o),
(238,613,o),
(266,613,cs),
(295,613,o),
(313,588,o),
(313,548,cs),
(313,503,o),
(291,469,o),
(245,440,c),
(158,398,l),
(60,350,o),
(12,280,o),
(12,188,cs),
(12,65,o),
(98,-17,o),
(226,-17,cs)
);
}
);
};
layerId = "BD94C4B7-004C-4524-8669-6CB6D8067CD8";
shapes = (
{
closed = 1;
nodes = (
(316,-17,o),
(390,19,o),
(428,82,c),
(461,107,l),
(516,163,o),
(557,237,o),
(580,323,c),
(452,356,l),
(437,299,o),
(419,255,o),
(388,207,c),
(355,186,l),
(334,139,o),
(299,113,o),
(256,113,cs),
(209,113,o),
(180,147,o),
(180,201,cs),
(180,243,o),
(198,276,o),
(236,305,c),
(306,351,l),
(402,398,o),
(457,472,o),
(457,556,cs),
(457,655,o),
(380,722,o),
(266,722,cs),
(152,722,o),
(77,654,o),
(77,550,cs),
(77,489,o),
(103,430,o),
(152,377,c),
(192,324,l),
(436,0,l),
(621,0,l),
(323,382,l),
(277,439,l),
(235,486,o),
(221,514,o),
(221,550,cs),
(221,589,o),
(238,613,o),
(266,613,cs),
(295,613,o),
(313,588,o),
(313,548,cs),
(313,503,o),
(291,469,o),
(245,440,c),
(158,398,l),
(61,350,o),
(12,280,o),
(12,188,cs),
(12,62,o),
(94,-17,o),
(226,-17,cs)
);
}
);
width = 629;
},
{
background = {
shapes = (
{
closed = 1;
nodes = (
(541,-17,o),
(647,26,o),
(722,101,c),
(734,115,l),
(791,181,o),
(828,253,o),
(852,343,c),
(790,360,l),
(768,271,o),
(739,211,o),
(683,149,c),
(673,137,l),
(604,74,o),
(517,39,o),
(375,39,cs),
(225,39,o),
(134,92,o),
(134,178,cs),
(134,260,o),
(202,316,o),
(349,355,c),
(395,374,l),
(559,421,o),
(631,480,o),
(631,568,cs),
(631,665,o),
(545,721,o),
(396,721,cs),
(245,721,o),
(158,665,o),
(158,568,cs),
(158,499,o),
(200,445,o),
(308,377,c),
(332,358,l),
(831,0,l),
(924,0,l),
(388,386,l),
(380,396,l),
(262,472,o),
(226,512,o),
(226,566,cs),
(226,631,o),
(284,665,o),
(396,665,cs),
(502,665,o),
(563,629,o),
(563,566,cs),
(563,499,o),
(505,457,o),
(347,410,c),
(304,394,l),
(147,354,o),
(66,279,o),
(66,175,cs),
(66,56,o),
(184,-17,o),
(375,-17,cs)
);
}
);
};
layerId = "B4464F9C-2DA6-418A-B3C4-1470167D4EB6";
shapes = (
{
closed = 1;
nodes = (
(526,-17,o),
(644,23,o),
(722,101,c),
(734,115,l),
(791,181,o),
(828,252,o),
(852,343,c),
(790,360,l),
(767,268,o),
(737,209,o),
(683,149,c),
(673,137,l),
(602,72,o),
(502,39,o),
(375,39,cs),
(219,39,o),
(134,88,o),
(134,178,cs),
(134,260,o),
(203,316,o),
(349,355,c),
(395,374,l),
(559,421,o),
(631,480,o),
(631,568,cs),
(631,665,o),
(545,721,o),
(396,721,cs),
(245,721,o),
(158,665,o),
(158,568,cs),
(158,499,o),
(201,444,o),
(308,377,c),
(332,358,l),
(831,0,l),
(924,0,l),
(388,386,l),
(380,396,l),
(264,470,o),
(226,513,o),
(226,566,cs),
(226,630,o),
(285,665,o),
(396,665,cs),
(506,665,o),
(563,631,o),
(563,566,cs),
(563,499,o),
(504,457,o),
(347,410,c),
(304,394,l),
(150,355,o),
(66,278,o),
(66,175,cs),
(66,52,o),
(177,-17,o),
(375,-17,cs)
);
}
);
width = 937;
},
{
background = {
shapes = (
{
closed = 1;
nodes = (
(552,-17,o),
(663,18,o),
(746,93,c),
(781,133,l),
(850,180,o),
(914,262,o),
(950,353,c),
(777,391,l),
(750,319,o),
(700,252,o),
(650,221,c),
(613,187,l),
(564,154,o),
(489,136,o),
(408,136,cs),
(302,136,o),
(249,166,o),
(249,222,cs),
(249,272,o),
(298,304,o),
(390,315,c),
(489,360,l),
(643,391,o),
(733,460,o),
(733,548,cs),
(733,657,o),
(619,722,o),
(428,722,cs),
(244,722,o),
(137,658,o),
(137,546,cs),
(137,475,o),
(182,417,o),
(271,374,c),
(328,320,l),
(747,0,l),
(1004,0,l),
(492,392,l),
(427,448,l),
(365,482,o),
(332,516,o),
(332,546,cs),
(332,580,o),
(370,600,o),
(435,600,cs),
(496,600,o),
(539,578,o),
(539,546,cs),
(539,506,o),
(491,476,o),
(392,455,c),
(276,410,l),
(117,395,o),
(24,320,o),
(24,208,cs),
(24,59,o),
(151,-17,o),
(406,-17,cs)
);
}
);
};
layerId = "9C3D73EE-3D01-4F34-8F18-5001540A34C7";
shapes = (
{
closed = 1;
nodes = (
(531,-17,o),
(637,15,o),
(741,117,c),
(770,152,l),
(821,194,o),
(873,269,o),
(908,356,c),
(745,404,l),
(715,324,o),
(662,247,o),
(621,222,c),
(606,207,l),
(528,139,o),
(472,127,o),
(399,127,cs),
(304,127,o),
(251,160,o),
(251,219,cs),
(251,269,o),
(305,307,o),
(391,317,c),
(490,360,l),
(635,390,o),
(712,454,o),
(712,544,cs),
(712,656,o),
(602,722,o),
(419,722,cs),
(238,722,o),
(128,654,o),
(128,542,cs),
(128,476,o),
(186,408,o),
(278,364,c),
(329,320,l),
(748,0,l),
(998,0,l),
(483,392,l),
(433,438,l),
(370,471,o),
(335,507,o),
(335,537,cs),
(335,572,o),
(372,596,o),
(426,596,cs),
(479,596,o),
(517,571,o),
(517,537,cs),
(517,496,o),
(486,475,o),
(393,453,c),
(277,410,l),
(129,397,o),
(25,309,o),
(25,198,cs),
(25,56,o),
(147,-17,o),
(386,-17,cs)
);
}
);
width = 1008;
}
);
note = ampersand;
unicode = 38;
userData = {
KernOnSpecialSpacing = {
L = symbols;
R = symbols;
};
};
}
{
glyphname = quotesingle;
kernLeft = KO_quotedbl;
kernRight = KO_quotedbl;
layers = (
{
layerId = m008;
shapes = (
{
closed = 1;
nodes = (
(134,453,l),
(144,722,l),
(75,722,l),
(85,453,l)
);
}
);
width = 219;
},
{
layerId = "E0044746-7B1A-4AF1-A08A-EDFF47B9B447";
shapes = (
{
closed = 1;
nodes = (
(149,453,l),
(159,722,l),
(90,722,l),
(100,453,l)
);
}
);
width = 249;
},
{
layerId = "EAEE501F-808F-4F80-A534-C44A55AE9CF1";
shapes = (
{
closed = 1;
nodes = (
(196,414,l),
(208,722,l),
(43,722,l),
(55,414,l)
);
}
);
width = 251;
},
{
layerId = "D0F786FD-D799-4DD4-8218-8DF09CBA4779";
shapes = (
{
closed = 1;
nodes = (
(230,414,l),
(241,722,l),
(72,722,l),
(83,414,l)
);
}
);
width = 313;
},
{
layerId = "38794FDE-96C3-45FE-89A8-4F68FD88490C";
shapes = (
{
closed = 1;
nodes = (
(103,455,l),
(111,722,l),
(50,722,l),
(58,455,l)
);
}
);
width = 161;
},
{
layerId = "BD94C4B7-004C-4524-8669-6CB6D8067CD8";
shapes = (
{
closed = 1;
nodes = (
(174,418,l),
(184,722,l),
(30,722,l),
(40,418,l)
);
}
);
width = 214;
},
{
layerId = "B4464F9C-2DA6-418A-B3C4-1470167D4EB6";
shapes = (
{
closed = 1;
nodes = (
(136,453,l),
(147,722,l),
(75,722,l),
(86,453,l)
);
}
);
width = 222;
},
{
layerId = "9C3D73EE-3D01-4F34-8F18-5001540A34C7";
shapes = (
{
closed = 1;
nodes = (
(230,400,l),
(247,722,l),
(43,722,l),
(60,400,l)
);
}
);
width = 290;
}
);
note = quotesingle;
unicode = 39;
userData = {
KernOnSpecialSpacing = {
L = quotes;
R = quotes;
};
};
}
{
glyphname = parenleft;
kernLeft = KO_parenleft;
kernRight = KO_parenleft;
layers = (
{
layerId = m008;
shapes = (
{
closed = 1;
nodes = (
(282,-160,l),
(190,-20,o),
(142,136,o),
(142,296,cs),
(142,456,o),
(190,612,o),
(282,752,c),
(219,752,l),
(119,610,o),
(70,457,o),
(70,296,cs),
(70,135,o),
(119,-18,o),
(219,-160,c)
);
}
);
width = 312;
},
{
layerId = "E0044746-7B1A-4AF1-A08A-EDFF47B9B447";
shapes = (
{
closed = 1;
nodes = (
(320,-160,l),
(228,-20,o),
(180,136,o),
(180,296,cs),
(180,456,o),
(228,612,o),
(320,752,c),
(262,752,l),
(162,610,o),
(113,457,o),
(113,296,cs),
(113,135,o),
(162,-18,o),
(262,-160,c)
);
}
);
width = 383;
},
{
layerId = "EAEE501F-808F-4F80-A534-C44A55AE9CF1";
shapes = (
{
closed = 1;
nodes = (
(369,-160,l),
(288,-21,o),
(244,140,o),
(244,296,cs),
(244,452,o),
(288,613,o),
(369,752,c),
(209,752,l),
(114,622,o),
(65,458,o),
(65,296,cs),
(65,134,o),
(114,-30,o),
(209,-160,c)
);
}
);
width = 394;
},
{
layerId = "D0F786FD-D799-4DD4-8218-8DF09CBA4779";
shapes = (
{
closed = 1;
nodes = (
(394,-160,l),
(314,-21,o),
(270,140,o),
(270,296,cs),
(270,452,o),
(314,613,o),
(394,752,c),
(235,752,l),
(141,622,o),
(92,458,o),
(92,296,cs),
(92,134,o),
(141,-30,o),
(235,-160,c)
);
}
);
width = 427;
},
{
layerId = "38794FDE-96C3-45FE-89A8-4F68FD88490C";
shapes = (
{
closed = 1;
nodes = (
(230,-160,l),
(152,-22,o),
(112,137,o),
(112,296,cs),
(112,455,o),
(152,614,o),
(230,752,c),
(172,752,l),
(89,614,o),
(48,458,o),
(48,296,cs),
(48,134,o),
(89,-22,o),
(172,-160,c)
);
}
);
width = 242;
},
{
layerId = "BD94C4B7-004C-4524-8669-6CB6D8067CD8";
shapes = (
{
closed = 1;
nodes = (
(319,-160,l),
(255,-16,o),
(220,145,o),
(220,296,cs),
(220,447,o),
(255,608,o),
(319,752,c),
(169,752,l),
(94,621,o),
(52,458,o),
(52,296,cs),
(52,134,o),
(94,-29,o),
(169,-160,c)
);
}
);
width = 341;
},
{
layerId = "B4464F9C-2DA6-418A-B3C4-1470167D4EB6";
shapes = (
{
closed = 1;
nodes = (
(356,-160,l),
(211,-20,o),
(142,126,o),
(142,296,cs),
(142,466,o),
(211,612,o),
(356,752,c),
(282,752,l),
(137,612,o),
(70,469,o),
(70,296,cs),
(70,123,o),
(137,-20,o),
(282,-160,c)
);
}
);
width = 386;
},
{
layerId = "9C3D73EE-3D01-4F34-8F18-5001540A34C7";
shapes = (
{
closed = 1;
nodes = (
(479,-160,l),
(351,-30,o),
(285,143,o),
(285,296,cs),
(285,446,o),
(350,621,o),
(479,752,c),
(269,752,l),
(135,627,o),
(65,458,o),
(65,296,cs),
(65,135,o),
(134,-34,o),
(269,-160,c)
);
}
);
width = 504;
}
);
note = parenleft;
unicode = 40;
userData = {
KernOnName = parenleft;
KernOnSpecialSpacing = {
L = parenthesis;
R = parenthesis;
};
};
}
{
glyphname = parenright;
kernLeft = KO_parenright;
kernRight = KO_parenright;
layers = (
{
layerId = m008;
shapes = (
{
closed = 1;
nodes = (
(93,-160,l),
(193,-18,o),
(242,135,o),
(242,296,cs),
(242,457,o),
(193,610,o),
(93,752,c),
(30,752,l),
(122,612,o),
(170,456,o),
(170,296,cs),
(170,136,o),
(122,-20,o),
(30,-160,c)
);
}
);
width = 312;
},
{
layerId = "E0044746-7B1A-4AF1-A08A-EDFF47B9B447";
shapes = (
{
closed = 1;
nodes = (
(121,-160,l),
(221,-18,o),
(270,135,o),
(270,296,cs),
(270,457,o),
(221,610,o),
(121,752,c),
(63,752,l),
(155,612,o),
(203,456,o),
(203,296,cs),
(203,136,o),
(155,-20,o),
(63,-160,c)
);
}
);
width = 383;
},
{
layerId = "EAEE501F-808F-4F80-A534-C44A55AE9CF1";
shapes = (
{
closed = 1;
nodes = (
(185,-160,l),
(279,-30,o),
(328,134,o),
(328,296,cs),
(328,458,o),
(279,622,o),
(185,752,c),
(25,752,l),
(105,613,o),
(150,452,o),
(150,296,cs),
(150,140,o),
(105,-21,o),
(25,-160,c)
);
}
);
width = 393;
},
{
layerId = "D0F786FD-D799-4DD4-8218-8DF09CBA4779";
shapes = (
{
closed = 1;
nodes = (
(192,-160,l),
(287,-30,o),
(336,134,o),
(336,296,cs),
(336,458,o),
(287,622,o),
(192,752,c),
(33,752,l),
(113,613,o),
(158,452,o),
(158,296,cs),
(158,140,o),
(113,-21,o),
(33,-160,c)
);
}
);
width = 428;
},
{
layerId = "38794FDE-96C3-45FE-89A8-4F68FD88490C";
shapes = (
{
closed = 1;
nodes = (
(70,-160,l),
(153,-22,o),
(194,134,o),
(194,296,cs),
(194,458,o),
(153,614,o),
(70,752,c),
(12,752,l),
(90,614,o),
(130,455,o),
(130,296,cs),
(130,137,o),
(90,-22,o),
(12,-160,c)
);
}
);
width = 242;
},
{
layerId = "BD94C4B7-004C-4524-8669-6CB6D8067CD8";
shapes = (
{
closed = 1;
nodes = (
(172,-160,l),
(247,-29,o),
(289,134,o),
(289,296,cs),
(289,458,o),
(247,621,o),
(172,752,c),
(22,752,l),
(86,608,o),
(121,447,o),
(121,296,cs),
(121,145,o),
(86,-16,o),
(22,-160,c)
);
}
);
width = 341;
},
{
layerId = "B4464F9C-2DA6-418A-B3C4-1470167D4EB6";
shapes = (
{
closed = 1;
nodes = (
(104,-160,l),
(249,-20,o),
(316,123,o),
(316,296,cs),
(316,469,o),
(249,612,o),
(104,752,c),
(30,752,l),
(175,612,o),
(244,466,o),
(244,296,cs),
(244,126,o),
(175,-20,o),
(30,-160,c)
);
}
);
width = 386;
},
{
background = {
shapes = (
{
closed = 1;
nodes = (
(223,-160,l),
(366,-35,o),
(440,134,o),
(440,296,cs),
(440,457,o),
(367,625,o),
(223,752,c),
(25,752,l),
(152,611,o),
(219,449,o),
(219,296,cs),
(219,143,o),
(151,-20,o),
(25,-160,c)
);
}
);
};
layerId = "9C3D73EE-3D01-4F34-8F18-5001540A34C7";
shapes = (
{
closed = 1;
nodes = (
(236,-160,l),
(371,-34,o),
(440,135,o),
(440,296,cs),
(440,458,o),
(370,627,o),
(236,752,c),
(26,752,l),
(155,621,o),
(220,446,o),
(220,296,cs),
(220,143,o),
(154,-30,o),
(26,-160,c)
);
}
);
width = 505;
}
);
note = parenright;
unicode = 41;
userData = {
KernOnSpecialSpacing = {
L = parenthesis;
R = parenthesis;
};
};
}
{
glyphname = asterisk;
kernLeft = KO_asterisk;
kernRight = KO_asterisk;
layers = (
{
anchors = (
{
name = "#rotate";
pos = (238,505);
}
);
layerId = m008;
shapes = (
{
closed = 1;
nodes = (
(214,546,l),
(78,629,l),
(50,581,l),
(189,505,l),
(50,429,l),
(78,381,l),
(214,464,l),
(210,305,l),
(266,305,l),
(262,463,l),
(397,381,l),
(425,429,l),
(286,505,l),
(425,581,l),
(397,629,l),
(262,547,l),
(266,705,l),
(210,705,l)
);
}
);
width = 475;
},
{
anchors = (
{
name = "#rotate";
pos = (248,505);
}
);
guides = (
{
pos = (445,504);
}
);
layerId = "E0044746-7B1A-4AF1-A08A-EDFF47B9B447";
shapes = (
{
closed = 1;
nodes = (
(224,546,l),
(88,629,l),
(60,581,l),
(199,505,l),
(60,429,l),
(88,381,l),
(224,464,l),
(220,305,l),
(276,305,l),
(272,463,l),
(407,381,l),
(435,429,l),
(296,505,l),
(435,581,l),
(407,629,l),
(272,547,l),
(276,705,l),
(220,705,l)
);
}
);
width = 495;
},
{
anchors = (
{
name = "#rotate";
pos = (257,505);
}
);
layerId = "EAEE501F-808F-4F80-A534-C44A55AE9CF1";
shapes = (
{
closed = 1;
nodes = (
(212,585,l),
(115,657,l),
(55,553,l),
(166,505,l),
(55,457,l),
(115,353,l),
(212,425,l),
(198,305,l),
(319,305,l),
(305,425,l),
(401,353,l),
(462,457,l),
(351,505,l),
(462,553,l),
(401,657,l),
(305,585,l),
(319,705,l),
(198,705,l)
);
}
);
width = 517;
},
{
anchors = (
{
name = "#rotate";
pos = (250,505);
}
);
layerId = "D0F786FD-D799-4DD4-8218-8DF09CBA4779";
shapes = (
{
closed = 1;
nodes = (
(208,585,l),
(110,658,l),
(50,552,l),
(160,505,l),
(50,458,l),
(110,352,l),
(208,425,l),
(194,305,l),
(314,305,l),
(300,424,l),
(396,352,l),
(456,458,l),
(347,505,l),
(456,552,l),
(396,658,l),
(300,586,l),
(314,705,l),
(194,705,l)
);
}
);
width = 506;
},
{
anchors = (
{
name = "#rotate";
pos = (186,505);
}
);
layerId = "38794FDE-96C3-45FE-89A8-4F68FD88490C";
shapes = (
{
closed = 1;
nodes = (
(168,562,l),
(48,641,l),
(24,600,l),
(149,525,l),
(20,448,l),
(44,407,l),
(168,489,l),
(164,345,l),
(212,345,l),
(208,487,l),
(326,407,l),
(351,448,l),
(225,525,l),
(351,600,l),
(327,641,l),
(208,562,l),
(212,705,l),
(164,705,l)
);
}
);
width = 371;
},
{
anchors = (
{
name = "#rotate";
pos = (212,505);
}
);
layerId = "BD94C4B7-004C-4524-8669-6CB6D8067CD8";
shapes = (
{
closed = 1;
nodes = (
(171,585,l),
(88,647,l),
(30,546,l),
(125,505,l),
(30,464,l),
(88,363,l),
(171,425,l),
(157,315,l),
(278,315,l),
(264,425,l),
(347,363,l),
(406,464,l),
(311,505,l),
(406,546,l),
(347,647,l),
(264,585,l),
(278,695,l),
(157,695,l)
);
}
);
width = 436;
},
{
anchors = (
{
name = "#rotate";
pos = (269,505);
}
);
layerId = "B4464F9C-2DA6-418A-B3C4-1470167D4EB6";
shapes = (
{
closed = 1;
nodes = (
(244,546,l),
(78,645,l),
(50,597,l),
(220,505,l),
(50,413,l),
(78,365,l),
(244,464,l),
(240,305,l),
(296,305,l),
(292,464,l),
(458,365,l),
(486,413,l),
(316,505,l),
(486,597,l),
(458,645,l),
(292,546,l),
(296,705,l),
(240,705,l)
);
}
);
width = 536;
},
{
anchors = (
{
name = "#rotate";
pos = (317,505);
}
);
background = {
shapes = (
{
closed = 1;
nodes = (
(270,505,l),
(367,505,l),
(395,705,l),
(242,705,l)
);
},
{
closed = 1;
nodes = (
(294,541,l),
(343,469,l),
(617,543,l),
(539,667,l)
);
},
{
closed = 1;
nodes = (
(343,541,l),
(294,469,l),
(539,343,l),
(617,467,l)
);
},
{
closed = 1;
nodes = (
(367,505,l),
(270,505,l),
(242,305,l),
(395,305,l)
);
},
{
closed = 1;
nodes = (
(343,469,l),
(294,541,l),
(20,467,l),
(96,343,l)
);
},
{
closed = 1;
nodes = (
(294,469,l),
(343,541,l),
(96,667,l),
(20,543,l)
);
}
);
};
layerId = "9C3D73EE-3D01-4F34-8F18-5001540A34C7";
shapes = (
{
closed = 1;
nodes = (
(259,584,l),
(108,665,l),
(55,541,l),
(204,495,l),
(55,449,l),
(108,325,l),
(259,406,l),
(243,285,l),
(395,285,l),
(379,405,l),
(529,325,l),
(582,449,l),
(433,495,l),
(582,541,l),
(529,665,l),
(379,585,l),
(395,705,l),
(243,705,l)
);
}
);
width = 637;
}
);
note = asterisk;
unicode = 42;
userData = {
KernOnName = asterisk;
KernOnSpecialSpacing = {
L = quotes;
R = quotes;
};
};
}
{
glyphname = plus;
layers = (
{
layerId = m008;
shapes = (
{
closed = 1;
nodes = (
(83,300,l),
(83,243,l),
(517,243,l),
(517,300,l)
);
},
{
closed = 1;
nodes = (
(329,507,l),
(271,507,l),
(271,36,l),
(329,36,l)
);
}
);
width = 600;
},
{
layerId = "E0044746-7B1A-4AF1-A08A-EDFF47B9B447";
shapes = (
{
closed = 1;
nodes = (
(93,300,l),
(93,243,l),
(527,243,l),
(527,300,l)
);
},
{
closed = 1;
nodes = (
(339,507,l),
(281,507,l),
(281,36,l),
(339,36,l)
);
}
);
width = 620;
},
{
layerId = "EAEE501F-808F-4F80-A534-C44A55AE9CF1";
shapes = (
{
closed = 1;
nodes = (
(99,341,l),
(99,202,l),
(561,202,l),
(561,341,l)
);
},
{
closed = 1;
nodes = (
(400,507,l),
(260,507,l),
(260,36,l),
(400,36,l)
);
}
);
width = 660;
},
{
layerId = "D0F786FD-D799-4DD4-8218-8DF09CBA4779";
shapes = (
{
closed = 1;
nodes = (
(109,341,l),
(109,202,l),
(571,202,l),
(571,341,l)
);
},
{
closed = 1;
nodes = (
(410,507,l),
(270,507,l),
(270,36,l),
(410,36,l)
);
}
);
width = 680;
},
{
layerId = "38794FDE-96C3-45FE-89A8-4F68FD88490C";
shapes = (
{
closed = 1;
nodes = (
(54,299,l),
(54,245,l),
(400,245,l),
(400,299,l)
);
},
{
closed = 1;
nodes = (
(254,507,l),
(200,507,l),
(200,36,l),
(254,36,l)
);
}
);
width = 454;
},
{
layerId = "BD94C4B7-004C-4524-8669-6CB6D8067CD8";
shapes = (
{
closed = 1;
nodes = (
(80,337,l),
(80,206,l),
(461,206,l),
(461,337,l)
);
},
{
closed = 1;
nodes = (
(336,507,l),
(205,507,l),
(205,36,l),
(336,36,l)
);
}
);
width = 540;
},
{
layerId = "B4464F9C-2DA6-418A-B3C4-1470167D4EB6";
shapes = (
{
closed = 1;
nodes = (
(95,300,l),
(95,243,l),
(765,243,l),
(765,300,l)
);
},
{
closed = 1;
nodes = (
(459,507,l),
(401,507,l),
(401,36,l),
(459,36,l)
);
}
);
width = 860;
},
{
layerId = "9C3D73EE-3D01-4F34-8F18-5001540A34C7";
shapes = (
{
closed = 1;
nodes = (
(120,353,l),
(120,193,l),
(800,193,l),
(800,353,l)
);
},
{
closed = 1;
nodes = (
(550,509,l),
(370,509,l),
(370,37,l),
(550,37,l)
);
}
);
width = 920;
}
);
metricWidth = zero.tf;
note = plus;
unicode = 43;
userData = {
KernOnSpecialSpacing = {
L = NoKerning;
R = NoKerning;
};
};
}
{
glyphname = comma;
kernLeft = KO_comma;
kernRight = KO_comma;
layers = (
{
layerId = m008;
shapes = (
{
closed = 1;
nodes = (
(98,-184,l),
(185,95,l),
(107,95,l),
(45,-184,l)
);
}
);
width = 263;
},
{
layerId = "E0044746-7B1A-4AF1-A08A-EDFF47B9B447";
shapes = (
{
closed = 1;
nodes = (
(127,-184,l),
(214,95,l),
(140,95,l),
(78,-184,l)
);
}
);
width = 292;
},
{
layerId = "D0F786FD-D799-4DD4-8218-8DF09CBA4779";
shapes = (
{
closed = 1;
nodes = (
(183,-196,l),
(290,141,l),
(113,141,l),
(40,-196,l)
);
}
);
width = 337;
},
{
layerId = "EAEE501F-808F-4F80-A534-C44A55AE9CF1";
name = "TikTok Display Black";
shapes = (
{
closed = 1;
nodes = (
(152,-195,l),
(265,141,l),
(78,141,l),
(5,-195,l)
);
}
);
width = 294;
},
{
layerId = "38794FDE-96C3-45FE-89A8-4F68FD88490C";
shapes = (
{
closed = 1;
nodes = (
(74,-184,l),
(147,93,l),
(77,93,l),
(24,-184,l)
);
}
);
width = 201;
},
{
layerId = "BD94C4B7-004C-4524-8669-6CB6D8067CD8";
name = "TikTok Display Black";
shapes = (
{
closed = 1;
nodes = (
(144,-194,l),
(241,136,l),
(66,136,l),
(5,-194,l)
);
}
);
width = 250;
},
{
layerId = "B4464F9C-2DA6-418A-B3C4-1470167D4EB6";
shapes = (
{
closed = 1;
nodes = (
(99,-184,l),
(203,95,l),
(120,95,l),
(45,-184,l)
);
}
);
width = 281;
},
{
background = {
shapes = (
{
closed = 1;
nodes = (
(185,-199,l),
(343,157,l),
(110,157,l),
(5,-199,l)
);
}
);
};
layerId = "9C3D73EE-3D01-4F34-8F18-5001540A34C7";
shapes = (
{
closed = 1;
nodes = (
(181,-200,l),
(340,157,l),
(110,157,l),
(5,-200,l)
);
}
);
width = 372;
}
);
note = comma;
unicode = 44;
userData = {
KernOnSpecialSpacing = {
L = period;
R = period;
};
};
}
{
glyphname = hyphen;
kernLeft = KO_hyphen;
kernRight = KO_hyphen;
layers = (
{
layerId = m008;
shapes = (
{
closed = 1;
nodes = (
(305,241,l),
(305,297,l),
(75,297,l),
(75,241,l)
);
}
);
width = 380;
},
{
layerId = "E0044746-7B1A-4AF1-A08A-EDFF47B9B447";
shapes = (
{
closed = 1;
nodes = (
(370,261,l),
(370,317,l),
(80,317,l),
(80,261,l)
);
}
);
width = 450;
},
{
layerId = "EAEE501F-808F-4F80-A534-C44A55AE9CF1";
shapes = (
{
closed = 1;
nodes = (
(319,189,l),
(319,350,l),
(70,350,l),
(70,189,l)
);
}
);
width = 389;
},
{
layerId = "D0F786FD-D799-4DD4-8218-8DF09CBA4779";
shapes = (
{
closed = 1;
nodes = (
(370,209,l),
(370,370,l),
(62,370,l),
(62,209,l)
);
}
);
width = 432;
},
{
layerId = "38794FDE-96C3-45FE-89A8-4F68FD88490C";
shapes = (
{
closed = 1;
nodes = (
(230,243,l),
(230,295,l),
(56,295,l),
(56,243,l)
);
}
);
width = 286;
},
{
layerId = "BD94C4B7-004C-4524-8669-6CB6D8067CD8";
shapes = (
{
closed = 1;
nodes = (
(266,194,l),
(266,345,l),
(57,345,l),
(57,194,l)
);
}
);
width = 323;
},
{
layerId = "B4464F9C-2DA6-418A-B3C4-1470167D4EB6";
shapes = (
{
closed = 1;
nodes = (
(415,241,l),
(415,297,l),
(75,297,l),
(75,241,l)
);
}
);
width = 490;
},
{
layerId = "9C3D73EE-3D01-4F34-8F18-5001540A34C7";
shapes = (
{
closed = 1;
nodes = (
(435,188,l),
(435,358,l),
(70,358,l),
(70,188,l)
);
}
);
width = 505;
}
);
note = hyphen;
unicode = 45;
userData = {
KernOnName = hyphen;
KernOnSpecialSpacing = {
L = hyphen;
R = hyphen;
};
};
}
{
glyphname = period;
kernLeft = KO_period;
kernRight = KO_period;
layers = (
{
layerId = m008;
shapes = (
{
closed = 1;
nodes = (
(163,-5,o),
(188,20,o),
(188,52,cs),
(188,83,o),
(163,108,o),
(131,108,cs),
(101,108,o),
(75,83,o),
(75,52,cs),
(75,20,o),
(101,-5,o),
(131,-5,cs)
);
}
);
width = 263;
},
{
layerId = "E0044746-7B1A-4AF1-A08A-EDFF47B9B447";
shapes = (
{
closed = 1;
nodes = (
(176,-5,o),
(201,21,o),
(201,51,cs),
(201,81,o),
(176,107,o),
(145,107,cs),
(116,107,o),
(90,81,o),
(90,51,cs),
(90,21,o),
(116,-5,o),
(145,-5,cs)
);
}
);
width = 291;
},
{
layerId = "EAEE501F-808F-4F80-A534-C44A55AE9CF1";
shapes = (
{
closed = 1;
nodes = (
(209,-5,o),
(251,41,o),
(251,98,cs),
(251,154,o),
(209,200,o),
(147,200,cs),
(85,200,o),
(43,154,o),
(43,98,cs),
(43,41,o),
(85,-5,o),
(147,-5,cs)
);
}
);
width = 294;
},
{
layerId = "D0F786FD-D799-4DD4-8218-8DF09CBA4779";
shapes = (
{
closed = 1;
nodes = (
(226,-5,o),
(265,38,o),
(265,91,cs),
(265,143,o),
(226,185,o),
(169,185,cs),
(111,185,o),
(72,143,o),
(72,91,cs),
(72,38,o),
(111,-5,o),
(169,-5,cs)
);
}
);
width = 337;
},
{
layerId = "38794FDE-96C3-45FE-89A8-4F68FD88490C";
shapes = (
{
closed = 1;
nodes = (
(127,-5,o),
(147,17,o),
(147,49,cs),
(147,81,o),
(127,103,o),
(100,103,cs),
(73,103,o),
(53,81,o),
(53,49,cs),
(53,17,o),
(73,-5,o),
(100,-5,cs)
);
}
);
width = 200;
},
{
layerId = "BD94C4B7-004C-4524-8669-6CB6D8067CD8";
shapes = (
{
closed = 1;
nodes = (
(179,-5,o),
(220,37,o),
(220,93,cs),
(220,149,o),
(179,191,o),
(125,191,cs),
(71,191,o),
(30,149,o),
(30,93,cs),
(30,37,o),
(71,-5,o),
(125,-5,cs)
);
}
);
width = 250;
},
{
layerId = "B4464F9C-2DA6-418A-B3C4-1470167D4EB6";
shapes = (
{
closed = 1;
nodes = (
(172,-5,o),
(199,19,o),
(199,53,cs),
(199,87,o),
(172,111,o),
(137,111,cs),
(102,111,o),
(75,87,o),
(75,53,cs),
(75,19,o),
(102,-5,o),
(137,-5,cs)
);
}
);
width = 274;
},
{
layerId = "9C3D73EE-3D01-4F34-8F18-5001540A34C7";
shapes = (
{
closed = 1;
nodes = (
(259,-10,o),
(313,42,o),
(313,108,cs),
(313,174,o),
(259,226,o),
(179,226,cs),
(100,226,o),
(45,174,o),
(45,108,cs),
(45,42,o),
(100,-10,o),
(179,-10,cs)
);
}
);
width = 358;
}
);
note = period;
unicode = 46;
userData = {
KernOnName = period;
KernOnSpecialSpacing = {
L = period;
R = period;
};
};
}
{
glyphname = slash;
kernLeft = KO_slash;
kernRight = KO_slash;
layers = (
{
layerId = m008;
shapes = (
{
closed = 1;
nodes = (
(76,-120,l),
(312,722,l),
(246,722,l),
(10,-120,l)
);
}
);
width = 322;
},
{
layerId = "E0044746-7B1A-4AF1-A08A-EDFF47B9B447";
shapes = (
{
closed = 1;
nodes = (
(84,-120,l),
(321,722,l),
(255,722,l),
(18,-120,l)
);
}
);
width = 339;
},
{
layerId = "EAEE501F-808F-4F80-A534-C44A55AE9CF1";
shapes = (
{
closed = 1;
nodes = (
(168,-120,l),
(407,722,l),
(249,722,l),
(10,-120,l)
);
}
);
width = 417;
},
{
layerId = "D0F786FD-D799-4DD4-8218-8DF09CBA4779";
shapes = (
{
closed = 1;
nodes = (
(173,-120,l),
(412,722,l),
(254,722,l),
(15,-120,l)
);
}
);
width = 427;
},
{
layerId = "38794FDE-96C3-45FE-89A8-4F68FD88490C";
shapes = (
{
closed = 1;
nodes = (
(62,-120,l),
(248,722,l),
(190,722,l),
(4,-120,l)
);
}
);
width = 252;
},
{
layerId = "BD94C4B7-004C-4524-8669-6CB6D8067CD8";
shapes = (
{
closed = 1;
nodes = (
(157,-120,l),
(352,722,l),
(204,722,l),
(9,-120,l)
);
}
);
width = 361;
},
{
layerId = "B4464F9C-2DA6-418A-B3C4-1470167D4EB6";
shapes = (
{
closed = 1;
nodes = (
(80,-120,l),
(436,722,l),
(366,722,l),
(10,-120,l)
);
}
);
width = 446;
},
{
layerId = "9C3D73EE-3D01-4F34-8F18-5001540A34C7";
shapes = (
{
closed = 1;
nodes = (
(206,-120,l),
(564,722,l),
(368,722,l),
(10,-120,l)
);
}
);
width = 574;
}
);
note = slash;
unicode = 47;
userData = {
KernOnSpecialSpacing = {
L = slash;
R = slash;
};
};
}
{
glyphname = zero;
kernLeft = KO_zero;
kernRight = KO_zero;
layers = (
{
layerId = m008;
shapes = (
{
closed = 1;
nodes = (
(441,-16,o),
(539,130,o),
(539,352,cs),
(539,574,o),
(441,720,o),
(292,720,cs),
(143,720,o),
(45,574,o),
(45,352,cs),
(45,130,o),
(143,-16,o),
(292,-16,cs)
);
},
{
closed = 1;
nodes = (
(188,46,o),
(115,170,o),
(115,352,cs),
(115,534,o),
(188,658,o),
(292,658,cs),
(396,658,o),
(469,534,o),
(469,352,cs),
(469,170,o),
(396,46,o),
(292,46,cs)
);
}
);
width = 584;
},
{
layerId = "E0044746-7B1A-4AF1-A08A-EDFF47B9B447";
shapes = (
{
closed = 1;
nodes = (
(458,-16,o),
(556,130,o),
(556,352,cs),
(556,574,o),
(458,720,o),
(309,720,cs),
(160,720,o),
(62,574,o),
(62,352,cs),
(62,130,o),
(160,-16,o),
(309,-16,cs)
);
},
{
closed = 1;
nodes = (
(205,46,o),
(132,170,o),
(132,352,cs),
(132,534,o),
(205,658,o),
(309,658,cs),
(413,658,o),
(486,534,o),
(486,352,cs),
(486,170,o),
(413,46,o),
(309,46,cs)
);
}
);
width = 618;
},
{
layerId = "EAEE501F-808F-4F80-A534-C44A55AE9CF1";
shapes = (
{
closed = 1;
nodes = (
(509,-16,o),
(623,124,o),
(623,352,cs),
(623,580,o),
(509,720,o),
(325,720,cs),
(141,720,o),
(27,580,o),
(27,352,cs),
(27,124,o),
(141,-16,o),
(325,-16,cs)
);
},
{
closed = 1;
nodes = (
(258,141,o),
(221,217,o),
(221,352,cs),
(221,487,o),
(258,563,o),
(325,563,cs),
(392,563,o),
(429,487,o),
(429,352,cs),
(429,217,o),
(392,141,o),
(325,141,cs)
);
}
);
width = 650;
},
{
layerId = "D0F786FD-D799-4DD4-8218-8DF09CBA4779";
shapes = (
{
closed = 1;
nodes = (
(531,-17,o),
(638,130,o),
(638,352,cs),
(638,574,o),
(531,720,o),
(344,720,cs),
(158,720,o),
(50,574,o),
(50,352,cs),
(50,130,o),
(158,-17,o),
(344,-17,cs)
);
},
{
closed = 1;
nodes = (
(277,121,o),
(235,200,o),
(235,352,cs),
(235,504,o),
(277,582,o),
(344,582,cs),
(412,582,o),
(453,504,o),
(453,352,cs),
(453,200,o),
(412,121,o),
(344,121,cs)
);
}
);
width = 688;
},
{
layerId = "38794FDE-96C3-45FE-89A8-4F68FD88490C";
shapes = (
{
closed = 1;
nodes = (
(345,-16,o),
(412,121,o),
(412,352,cs),
(412,583,o),
(345,720,o),
(221,720,cs),
(97,720,o),
(30,584,o),
(30,352,cs),
(30,120,o),
(97,-16,o),
(221,-16,cs)
);
},
{
closed = 1;
nodes = (
(142,41,o),
(95,157,o),
(95,352,cs),
(95,547,o),
(142,663,o),
(221,663,cs),
(300,663,o),
(347,547,o),
(347,352,cs),
(347,157,o),
(300,41,o),
(221,41,cs)
);
}
);
width = 444;
},
{
layerId = "BD94C4B7-004C-4524-8669-6CB6D8067CD8";
shapes = (
{
closed = 1;
nodes = (
(438,-16,o),
(532,120,o),
(532,352,cs),
(532,584,o),
(438,720,o),
(276,720,cs),
(114,720,o),
(20,584,o),
(20,352,cs),
(20,120,o),
(114,-16,o),
(276,-16,cs)
);
},
{
closed = 1;
nodes = (
(228,131,o),
(204,204,o),
(204,352,cs),
(204,500,o),
(228,573,o),
(276,573,cs),
(324,573,o),
(348,500,o),
(348,352,cs),
(348,204,o),
(324,131,o),
(276,131,cs)
);
}
);
width = 552;
},
{
layerId = "B4464F9C-2DA6-418A-B3C4-1470167D4EB6";
shapes = (
{
closed = 1;
nodes = (
(614,-16,o),
(757,131,o),
(757,352,cs),
(757,573,o),
(614,720,o),
(401,720,cs),
(188,720,o),
(45,573,o),
(45,352,cs),
(45,131,o),
(188,-16,o),
(401,-16,cs)
);
},
{
closed = 1;
nodes = (
(232,46,o),
(115,172,o),
(115,352,cs),
(115,532,o),
(232,658,o),
(401,658,cs),
(570,658,o),
(687,532,o),
(687,352,cs),
(687,172,o),
(570,46,o),
(401,46,cs)
);
}
);
width = 802;
},
{
background = {
shapes = (
{
closed = 1;
nodes = (
(732,-16,o),
(899,124,o),
(899,352,cs),
(899,579,o),
(732,720,o),
(462,720,cs),
(192,720,o),
(25,580,o),
(25,352,cs),
(25,125,o),
(192,-16,o),
(462,-16,cs)
);
},
{
closed = 1;
nodes = (
(334,174,o),
(262,237,o),
(262,352,cs),
(262,466,o),
(334,530,o),
(462,530,cs),
(590,530,o),
(662,466,o),
(662,352,cs),
(662,238,o),
(589,174,o),
(462,174,cs)
);
}
);
};
layerId = "9C3D73EE-3D01-4F34-8F18-5001540A34C7";
shapes = (
{
closed = 1;
nodes = (
(732,-16,o),
(899,124,o),
(899,352,cs),
(899,579,o),
(732,720,o),
(462,720,cs),
(192,720,o),
(25,580,o),
(25,352,cs),
(25,125,o),
(192,-16,o),
(462,-16,cs)
);
},
{
closed = 1;
nodes = (
(330,166,o),
(255,232,o),
(255,352,cs),
(255,471,o),
(330,538,o),
(462,538,cs),
(594,538,o),
(669,471,o),
(669,352,cs),
(669,233,o),
(593,166,o),
(462,166,cs)
);
}
);
width = 924;
}
);
note = zero;
unicode = 48;
userData = {
KernOnName = zero;
};
}
{
glyphname = one;
kernLeft = KO_one;
kernRight = KO_one;
layers = (
{
layerId = m008;
shapes = (
{
closed = 1;
nodes = (
(297,0,l),
(297,705,l),
(170,705,l),
(45,562,l),
(45,478,l),
(229,681,l),
(229,681,l),
(229,0,l)
);
}
);
width = 407;
},
{
layerId = "E0044746-7B1A-4AF1-A08A-EDFF47B9B447";
shapes = (
{
closed = 1;
nodes = (
(304,0,l),
(304,705,l),
(213,705,l),
(42,547,l),
(42,466,l),
(232,645,l),
(236,645,l),
(236,0,l)
);
}
);
width = 436;
},
{
layerId = "EAEE501F-808F-4F80-A534-C44A55AE9CF1";
shapes = (
{
closed = 1;
nodes = (
(375,0,l),
(375,705,l),
(131,705,l),
(22,587,l),
(22,372,l),
(195,556,l),
(195,556,l),
(195,0,l)
);
}
);
width = 453;
},
{
layerId = "D0F786FD-D799-4DD4-8218-8DF09CBA4779";
shapes = (
{
closed = 1;
nodes = (
(402,0,l),
(402,705,l),
(195,705,l),
(20,556,l),
(20,377,l),
(215,548,l),
(222,548,l),
(222,0,l)
);
}
);
width = 507;
},
{
layerId = "38794FDE-96C3-45FE-89A8-4F68FD88490C";
shapes = (
{
closed = 1;
nodes = (
(232,0,l),
(232,705,l),
(122,705,l),
(32,572,l),
(32,483,l),
(169,686,l),
(169,686,l),
(169,0,l)
);
}
);
width = 310;
},
{
layerId = "BD94C4B7-004C-4524-8669-6CB6D8067CD8";
shapes = (
{
closed = 1;
nodes = (
(324,0,l),
(324,705,l),
(101,705,l),
(14,586,l),
(14,363,l),
(154,550,l),
(154,550,l),
(154,0,l)
);
}
);
width = 383;
},
{
layerId = "B4464F9C-2DA6-418A-B3C4-1470167D4EB6";
shapes = (
{
closed = 1;
nodes = (
(394,0,l),
(394,705,l),
(254,705,l),
(45,562,l),
(45,486,l),
(324,681,l),
(324,681,l),
(324,0,l)
);
}
);
width = 504;
},
{
layerId = "9C3D73EE-3D01-4F34-8F18-5001540A34C7";
shapes = (
{
closed = 1;
nodes = (
(506,0,l),
(506,705,l),
(192,705,l),
(22,596,l),
(22,366,l),
(286,543,l),
(286,543,l),
(286,0,l)
);
}
);
width = 584;
}
);
note = one;
unicode = 49;
userData = {
KernOnName = one;
};
}
{
glyphname = two;
kernLeft = KO_two;
kernRight = KO_two;
layers = (
{
layerId = m008;
shapes = (
{
closed = 1;
nodes = (
(539,0,l),
(539,64,l),
(129,64,l),
(129,64,l),
(353,261,ls),
(457,353,o),
(500,436,o),
(500,518,cs),
(500,647,o),
(420,721,o),
(281,721,cs),
(150,721,o),
(65,645,o),
(45,523,c),
(109,511,l),
(129,605,o),
(191,659,o),
(282,659,cs),
(375,659,o),
(430,604,o),
(430,518,cs),
(430,448,o),
(400,390,o),
(315,313,cs),
(65,88,l),
(65,0,l)
);
}
);
width = 579;
},
{
layerId = "E0044746-7B1A-4AF1-A08A-EDFF47B9B447";
shapes = (
{
closed = 1;
nodes = (
(551,0,l),
(551,64,l),
(153,64,l),
(153,69,l),
(351,253,ls),
(463,357,o),
(512,436,o),
(512,518,cs),
(512,647,o),
(432,721,o),
(293,721,cs),
(162,721,o),
(77,645,o),
(57,523,c),
(121,511,l),
(141,605,o),
(203,659,o),
(294,659,cs),
(387,659,o),
(442,604,o),
(442,518,cs),
(442,448,o),
(411,391,o),
(317,303,cs),
(77,77,l),
(77,0,l)
);
}
);
width = 598;
},
{
layerId = "EAEE501F-808F-4F80-A534-C44A55AE9CF1";
shapes = (
{
closed = 1;
nodes = (
(576,0,l),
(576,166,l),
(260,166,l),
(260,166,l),
(440,297,ls),
(513,350,o),
(562,417,o),
(562,518,cs),
(562,642,o),
(461,721,o),
(303,721,cs),
(139,721,o),
(35,636,o),
(22,500,c),
(197,471,l),
(204,531,o),
(234,564,o),
(289,564,cs),
(341,564,o),
(367,535,o),
(367,496,cs),
(367,455,o),
(343,424,o),
(290,383,cs),
(43,192,l),
(43,0,l)
);
}
);
width = 597;
},
{
layerId = "D0F786FD-D799-4DD4-8218-8DF09CBA4779";
shapes = (
{
closed = 1;
nodes = (
(600,0,l),
(600,148,l),
(259,148,l),
(259,155,l),
(456,297,ls),
(533,353,o),
(583,415,o),
(583,516,cs),
(583,641,o),
(482,721,o),
(325,721,cs),
(161,721,o),
(59,636,o),
(46,499,c),
(212,471,l),
(219,545,o),
(252,584,o),
(314,584,cs),
(370,584,o),
(397,548,o),
(397,503,cs),
(397,460,o),
(374,417,o),
(315,373,cs),
(67,185,l),
(67,0,l)
);
}
);
width = 650;
},
{
layerId = "38794FDE-96C3-45FE-89A8-4F68FD88490C";
shapes = (
{
closed = 1;
nodes = (
(402,0,l),
(402,58,l),
(104,58,l),
(104,58,l),
(263,260,ls),
(344,358,o),
(376,434,o),
(376,523,cs),
(376,646,o),
(321,721,o),
(213,721,cs),
(113,721,o),
(46,648,o),
(32,524,c),
(89,512,l),
(108,613,o),
(150,664,o),
(213,664,cs),
(275,664,o),
(311,612,o),
(311,524,cs),
(311,449,o),
(285,382,o),
(227,309,cs),
(47,74,l),
(47,0,l)
);
}
);
width = 430;
},
{
layerId = "BD94C4B7-004C-4524-8669-6CB6D8067CD8";
shapes = (
{
closed = 1;
nodes = (
(484,0,l),
(484,156,l),
(235,156,l),
(235,156,l),
(367,289,ls),
(447,369,o),
(477,429,o),
(477,508,cs),
(477,639,o),
(392,721,o),
(254,721,cs),
(114,721,o),
(24,639,o),
(14,502,c),
(172,475,l),
(182,542,o),
(204,574,o),
(241,574,cs),
(271,574,o),
(292,548,o),
(292,504,cs),
(292,452,o),
(272,417,o),
(226,371,cs),
(32,180,l),
(32,0,l)
);
}
);
width = 498;
},
{
layerId = "B4464F9C-2DA6-418A-B3C4-1470167D4EB6";
shapes = (
{
closed = 1;
nodes = (
(732,0,l),
(732,64,l),
(129,64,l),
(129,64,l),
(508,288,ls),
(632,360,o),
(686,429,o),
(686,515,cs),
(686,643,o),
(571,721,o),
(384,721,cs),
(207,721,o),
(78,648,o),
(45,529,c),
(112,511,l),
(144,603,o),
(248,659,o),
(384,659,cs),
(529,659,o),
(616,604,o),
(616,513,cs),
(616,448,o),
(571,392,o),
(469,331,cs),
(58,88,l),
(58,0,l)
);
}
);
width = 772;
},
{
background = {
shapes = (
{
closed = 1;
nodes = (
(815,0,l),
(815,185,l),
(375,185,l),
(375,185,l),
(614,286,ls),
(752,344,o),
(805,400,o),
(805,496,cs),
(805,637,o),
(665,721,o),
(426,721,cs),
(217,721,o),
(43,627,o),
(22,492,c),
(236,457,l),
(253,523,o),
(331,560,o),
(426,560,cs),
(520,560,o),
(567,531,o),
(567,481,cs),
(567,447,o),
(545,420,o),
(438,373,cs),
(53,205,l),
(53,0,l)
);
}
);
};
layerId = "9C3D73EE-3D01-4F34-8F18-5001540A34C7";
shapes = (
{
closed = 1;
nodes = (
(815,0,l),
(815,185,l),
(375,185,l),
(375,185,l),
(614,286,ls),
(754,345,o),
(805,401,o),
(805,496,cs),
(805,637,o),
(664,721,o),
(426,721,cs),
(213,721,o),
(43,624,o),
(22,492,c),
(236,457,l),
(252,520,o),
(326,560,o),
(426,560,cs),
(518,560,o),
(567,532,o),
(567,481,cs),
(567,443,o),
(534,415,o),
(438,373,cs),
(53,205,l),
(53,0,l)
);
}
);
width = 836;
}
);
note = two;
unicode = 50;
userData = {
KernOnName = two;
};
}
{
glyphname = three;
kernLeft = KO_three;
kernRight = KO_three;
layers = (
{
layerId = m008;
name = "TikTok Display Light";
shapes = (
{
closed = 1;
nodes = (
(433,-17,o),
(529,73,o),
(529,196,cs),
(529,301,o),
(462,378,o),
(345,393,c),
(345,404,l),
(223,404,l),
(223,354,l),
(266,354,ls),
(383,354,o),
(459,305,o),
(459,203,cs),
(459,114,o),
(400,45,o),
(291,45,cs),
(192,45,o),
(123,91,o),
(93,189,c),
(29,165,l),
(68,45,o),
(159,-17,o),
(288,-17,cs)
);
},
{
closed = 1;
nodes = (
(311,379,ls),
(409,379,o),
(497,451,o),
(497,552,cs),
(497,651,o),
(423,722,o),
(285,722,cs),
(179,722,o),
(98,675,o),
(60,579,c),
(124,555,l),
(151,627,o),
(213,660,o),
(289,660,cs),
(388,660,o),
(427,611,o),
(427,545,cs),
(427,467,o),
(366,416,o),
(266,416,cs),
(223,416,l),
(223,379,l)
);
}
);
width = 579;
},
{
layerId = "E0044746-7B1A-4AF1-A08A-EDFF47B9B447";
name = "TikTok Display Light";
shapes = (
{
closed = 1;
nodes = (
(447,-17,o),
(541,64,o),
(541,190,cs),
(541,287,o),
(489,362,o),
(391,379,c),
(391,396,l),
(235,396,l),
(235,350,l),
(278,350,ls),
(405,350,o),
(471,296,o),
(471,194,cs),
(471,108,o),
(415,45,o),
(307,45,cs),
(197,45,o),
(126,91,o),
(100,189,c),
(36,165,l),
(72,43,o),
(164,-17,o),
(305,-17,cs)
);
},
{
closed = 1;
nodes = (
(278,370,ls),
(433,370,o),
(519,430,o),
(519,544,cs),
(519,656,o),
(433,722,o),
(299,722,cs),
(192,722,o),
(104,675,o),
(68,579,c),
(132,555,l),
(159,626,o),
(225,660,o),
(302,660,cs),
(394,660,o),
(449,613,o),
(449,540,cs),
(449,445,o),
(377,410,o),
(278,410,cs),
(235,410,l),
(235,370,l)
);
}
);
width = 611;
},
{
layerId = "EAEE501F-808F-4F80-A534-C44A55AE9CF1";
shapes = (
{
closed = 1;
nodes = (
(489,-17,o),
(596,70,o),
(596,207,cs),
(596,311,o),
(523,380,o),
(413,380,c),
(413,390,l),
(227,390,l),
(227,295,l),
(302,295,ls),
(374,295,o),
(413,268,o),
(413,219,cs),
(413,170,o),
(380,140,o),
(327,140,cs),
(263,140,o),
(226,168,o),
(214,227,c),
(40,177,l),
(70,56,o),
(175,-17,o),
(321,-17,cs)
);
},
{
closed = 1;
nodes = (
(377,351,ls),
(491,351,o),
(571,424,o),
(571,528,cs),
(571,651,o),
(478,721,o),
(317,721,cs),
(183,721,o),
(83,655,o),
(55,547,c),
(221,499,l),
(235,542,o),
(270,564,o),
(323,564,cs),
(376,564,o),
(407,540,o),
(407,500,cs),
(407,455,o),
(378,435,o),
(312,435,cs),
(227,435,l),
(227,351,l)
);
}
);
width = 632;
},
{
layerId = "D0F786FD-D799-4DD4-8218-8DF09CBA4779";
name = "TikTok Display Light";
shapes = (
{
closed = 1;
nodes = (
(493,-17,o),
(596,70,o),
(596,200,cs),
(596,295,o),
(536,360,o),
(435,369,c),
(435,401,l),
(225,401,l),
(225,300,l),
(292,300,ls),
(386,300,o),
(421,265,o),
(421,211,cs),
(421,163,o),
(390,121,o),
(322,121,cs),
(269,121,o),
(218,145,o),
(202,205,c),
(40,158,l),
(72,47,o),
(178,-17,o),
(319,-17,cs)
);
},
{
closed = 1;
nodes = (
(369,365,ls),
(477,365,o),
(576,430,o),
(576,532,cs),
(576,644,o),
(483,721,o),
(324,721,cs),
(191,721,o),
(78,668,o),
(46,567,c),
(211,520,l),
(225,565,o),
(270,584,o),
(315,584,cs),
(369,584,o),
(402,555,o),
(402,508,cs),
(402,453,o),
(358,430,o),
(287,430,cs),
(225,430,l),
(225,365,l)
);
}
);
width = 644;
},
{
layerId = "38794FDE-96C3-45FE-89A8-4F68FD88490C";
name = "TikTok Display Light";
shapes = (
{
closed = 1;
nodes = (
(335,-17,o),
(404,68,o),
(404,196,cs),
(404,307,o),
(352,383,o),
(266,399,c),
(266,410,l),
(165,410,l),
(165,363,l),
(203,363,ls),
(290,363,o),
(340,304,o),
(340,202,cs),
(340,102,o),
(299,40,o),
(224,40,cs),
(156,40,o),
(104,89,o),
(83,182,c),
(25,164,l),
(50,46,o),
(122,-17,o),
(222,-17,cs)
);
},
{
closed = 1;
nodes = (
(237,387,ls),
(322,387,o),
(382,454,o),
(382,552,cs),
(382,657,o),
(317,722,o),
(217,722,cs),
(127,722,o),
(68,673,o),
(43,580,c),
(101,562,l),
(122,631,o),
(161,665,o),
(218,665,cs),
(281,665,o),
(321,621,o),
(321,546,cs),
(321,467,o),
(276,420,o),
(205,420,cs),
(165,420,l),
(165,387,l)
);
}
);
width = 440;
},
{
layerId = "BD94C4B7-004C-4524-8669-6CB6D8067CD8";
shapes = (
{
closed = 1;
nodes = (
(415,-17,o),
(509,68,o),
(509,196,cs),
(509,307,o),
(443,381,o),
(343,381,c),
(343,391,l),
(186,391,l),
(186,304,l),
(241,304,ls),
(306,304,o),
(334,276,o),
(334,217,cs),
(334,165,o),
(315,130,o),
(273,130,cs),
(233,130,o),
(205,156,o),
(190,223,c),
(36,176,l),
(62,49,o),
(146,-17,o),
(281,-17,cs)
);
},
{
closed = 1;
nodes = (
(293,357,ls),
(419,357,o),
(491,423,o),
(491,535,cs),
(491,646,o),
(409,721,o),
(287,721,cs),
(161,721,o),
(65,653,o),
(43,550,c),
(190,505,l),
(206,551,o),
(235,574,o),
(273,574,cs),
(311,574,o),
(336,548,o),
(336,507,cs),
(336,453,o),
(304,432,o),
(241,432,cs),
(186,432,l),
(186,357,l)
);
}
);
width = 531;
},
{
layerId = "B4464F9C-2DA6-418A-B3C4-1470167D4EB6";
name = "TikTok Display Light";
shapes = (
{
closed = 1;
nodes = (
(613,-17,o),
(742,67,o),
(742,212,cs),
(742,327,o),
(646,399,o),
(495,399,c),
(495,404,l),
(313,404,l),
(313,360,l),
(444,360,ls),
(592,360,o),
(672,308,o),
(672,212,cs),
(672,106,o),
(571,45,o),
(398,45,cs),
(244,45,o),
(140,95,o),
(89,195,c),
(29,161,l),
(82,46,o),
(210,-17,o),
(391,-17,cs)
);
},
{
closed = 1;
nodes = (
(482,387,ls),
(606,387,o),
(696,453,o),
(696,544,cs),
(696,653,o),
(584,722,o),
(409,722,cs),
(253,722,o),
(128,668,o),
(76,577,c),
(137,546,l),
(180,619,o),
(277,660,o),
(409,660,cs),
(546,660,o),
(626,617,o),
(626,544,cs),
(626,470,o),
(552,420,o),
(444,420,cs),
(313,420,l),
(313,387,l)
);
}
);
width = 792;
},
{
layerId = "9C3D73EE-3D01-4F34-8F18-5001540A34C7";
name = "TikTok Display Light";
shapes = (
{
closed = 1;
nodes = (
(712,-17,o),
(857,66,o),
(857,213,cs),
(857,320,o),
(774,375,o),
(612,375,c),
(612,385,l),
(320,385,l),
(320,280,l),
(490,280,ls),
(589,280,o),
(631,262,o),
(631,219,cs),
(631,165,o),
(589,147,o),
(465,147,cs),
(348,147,o),
(275,178,o),
(249,240,c),
(36,181,l),
(86,56,o),
(241,-17,o),
(454,-17,cs)
);
},
{
closed = 1;
nodes = (
(579,350,ls),
(729,350,o),
(827,417,o),
(827,520,cs),
(827,651,o),
(702,721,o),
(468,721,cs),
(272,721,o),
(112,647,o),
(65,535,c),
(270,480,l),
(299,529,o),
(370,557,o),
(467,557,cs),
(569,557,o),
(622,534,o),
(622,490,cs),
(622,452,o),
(579,434,o),
(490,434,cs),
(320,434,l),
(320,350,l)
);
}
);
width = 892;
}
);
note = three;
unicode = 51;
userData = {
KernOnName = three;
};
}
{
glyphname = four;
kernLeft = KO_four;
kernRight = KO_four;
layers = (
{
layerId = m008;
shapes = (
{
closed = 1;
nodes = (
(462,0,l),
(462,705,l),
(348,705,l),
(30,301,l),
(30,216,l),
(609,216,l),
(609,276,l),
(432,276,l),
(409,276,l),
(86,276,l),
(86,276,l),
(394,665,l),
(394,665,l),
(394,254,l),
(394,238,l),
(394,0,l)
);
}
);
width = 634;
},
{
layerId = "E0044746-7B1A-4AF1-A08A-EDFF47B9B447";
shapes = (
{
closed = 1;
nodes = (
(494,0,l),
(494,705,l),
(403,705,l),
(52,242,l),
(52,176,l),
(603,176,l),
(603,236,l),
(473,236,l),
(458,236,l),
(123,236,l),
(123,240,l),
(422,634,l),
(426,634,l),
(426,216,l),
(426,196,l),
(426,0,l)
);
}
);
width = 658;
},
{
layerId = "EAEE501F-808F-4F80-A534-C44A55AE9CF1";
shapes = (
{
closed = 1;
nodes = (
(533,0,l),
(533,705,l),
(243,705,l),
(25,397,l),
(25,193,l),
(632,193,l),
(632,354,l),
(471,354,l),
(410,345,l),
(162,345,l),
(162,345,l),
(348,604,l),
(348,604,l),
(348,303,l),
(343,259,l),
(343,0,l)
);
}
);
width = 652;
},
{
layerId = "D0F786FD-D799-4DD4-8218-8DF09CBA4779";
shapes = (
{
closed = 1;
nodes = (
(569,0,l),
(569,705,l),
(335,705,l),
(46,301,l),
(46,135,l),
(656,135,l),
(656,277,l),
(486,277,l),
(440,268,l),
(176,268,l),
(176,276,l),
(396,583,l),
(403,583,l),
(403,229,l),
(379,185,l),
(379,0,l)
);
}
);
width = 697;
},
{
layerId = "38794FDE-96C3-45FE-89A8-4F68FD88490C";
shapes = (
{
closed = 1;
nodes = (
(354,0,l),
(354,705,l),
(249,705,l),
(22,302,l),
(22,218,l),
(454,218,l),
(454,273,l),
(328,273,l),
(307,273,l),
(69,273,l),
(69,273,l),
(291,667,l),
(291,667,l),
(291,252,l),
(291,237,l),
(291,0,l)
);
}
);
width = 477;
},
{
layerId = "BD94C4B7-004C-4524-8669-6CB6D8067CD8";
shapes = (
{
closed = 1;
nodes = (
(453,0,l),
(453,705,l),
(181,705,l),
(18,396,l),
(18,195,l),
(527,195,l),
(527,345,l),
(396,345,l),
(338,337,l),
(147,337,l),
(147,337,l),
(283,600,l),
(283,600,l),
(283,288,l),
(278,257,l),
(278,0,l)
);
}
);
width = 541;
},
{
layerId = "B4464F9C-2DA6-418A-B3C4-1470167D4EB6";
shapes = (
{
closed = 1;
nodes = (
(657,0,l),
(657,705,l),
(547,705,l),
(30,301,l),
(30,216,l),
(861,216,l),
(861,276,l),
(621,276,l),
(597,276,l),
(93,276,l),
(93,276,l),
(589,663,l),
(589,663,l),
(589,254,l),
(589,238,l),
(589,0,l)
);
}
);
width = 886;
},
{
layerId = "9C3D73EE-3D01-4F34-8F18-5001540A34C7";
shapes = (
{
closed = 1;
nodes = (
(753,0,l),
(753,705,l),
(396,705,l),
(25,414,l),
(25,185,l),
(912,185,l),
(912,360,l),
(675,360,l),
(600,354,l),
(237,354,l),
(237,354,l),
(527,583,l),
(527,583,l),
(527,314,l),
(522,261,l),
(522,0,l)
);
}
);
width = 932;
}
);
note = four;
unicode = 52;
}
{
glyphname = five;
kernLeft = KO_five;
kernRight = KO_five;
layers = (
{
layerId = m008;
shapes = (
{
closed = 1;
nodes = (
(413,-17,o),
(503,71,o),
(503,210,cs),
(503,347,o),
(407,430,o),
(247,430,cs),
(114,430,l),
(144,384,l),
(161,663,l),
(111,643,l),
(491,643,l),
(491,705,l),
(99,705,l),
(79,370,l),
(240,370,ls),
(363,370,o),
(433,311,o),
(433,207,cs),
(433,109,o),
(369,45,o),
(270,45,cs),
(177,45,o),
(119,88,o),
(87,188,c),
(20,163,l),
(57,39,o),
(136,-17,o),
(270,-17,cs)
);
}
);
width = 548;
},
{
layerId = "E0044746-7B1A-4AF1-A08A-EDFF47B9B447";
shapes = (
{
closed = 1;
nodes = (
(435,-17,o),
(525,71,o),
(525,210,cs),
(525,347,o),
(429,430,o),
(269,430,cs),
(136,430,l),
(163,384,l),
(180,663,l),
(133,643,l),
(513,643,l),
(513,705,l),
(121,705,l),
(101,370,l),
(262,370,ls),
(385,370,o),
(455,311,o),
(455,207,cs),
(455,109,o),
(391,45,o),
(292,45,cs),
(197,45,o),
(138,87,o),
(105,186,c),
(43,163,l),
(80,39,o),
(161,-17,o),
(292,-17,cs)
);
}
);
width = 581;
},
{
layerId = "EAEE501F-808F-4F80-A534-C44A55AE9CF1";
shapes = (
{
closed = 1;
nodes = (
(460,-17,o),
(564,76,o),
(564,231,cs),
(564,384,o),
(461,471,o),
(278,471,cs),
(183,471,l),
(235,392,l),
(250,597,l),
(211,544,l),
(544,544,l),
(544,705,l),
(104,705,l),
(79,317,l),
(238,317,ls),
(339,317,o),
(380,279,o),
(380,226,cs),
(380,176,o),
(348,140,o),
(290,140,cs),
(243,140,o),
(207,164,o),
(192,226,c),
(18,176,l),
(46,56,o),
(145,-17,o),
(294,-17,cs)
);
}
);
width = 594;
},
{
layerId = "D0F786FD-D799-4DD4-8218-8DF09CBA4779";
shapes = (
{
closed = 1;
nodes = (
(489,-17,o),
(593,76,o),
(593,231,cs),
(593,376,o),
(494,458,o),
(311,458,cs),
(204,458,l),
(249,388,l),
(265,597,l),
(231,557,l),
(564,557,l),
(564,705,l),
(125,705,l),
(100,327,l),
(289,327,ls),
(391,327,o),
(418,279,o),
(418,226,cs),
(418,165,o),
(384,121,o),
(319,121,cs),
(265,121,o),
(224,145,o),
(206,203,c),
(48,158,l),
(77,48,o),
(175,-17,o),
(314,-17,cs)
);
}
);
width = 633;
},
{
layerId = "38794FDE-96C3-45FE-89A8-4F68FD88490C";
shapes = (
{
closed = 1;
nodes = (
(306,-17,o),
(376,73,o),
(376,209,cs),
(376,354,o),
(306,427,o),
(161,427,cs),
(85,427,l),
(110,384,l),
(123,666,l),
(86,647,l),
(367,647,l),
(367,705,l),
(68,705,l),
(52,372,l),
(153,372,ls),
(265,372,o),
(313,320,o),
(313,206,cs),
(313,103,o),
(270,40,o),
(199,40,cs),
(130,40,o),
(92,82,o),
(66,180,c),
(8,162,l),
(34,41,o),
(96,-17,o),
(199,-17,cs)
);
}
);
width = 408;
},
{
layerId = "BD94C4B7-004C-4524-8669-6CB6D8067CD8";
shapes = (
{
closed = 1;
nodes = (
(390,-17,o),
(478,77,o),
(478,229,cs),
(478,385,o),
(396,467,o),
(242,467,cs),
(166,467,l),
(213,391,l),
(225,604,l),
(195,554,l),
(460,554,l),
(460,705,l),
(88,705,l),
(67,322,l),
(201,322,ls),
(272,322,o),
(304,291,o),
(304,224,cs),
(304,165,o),
(282,130,o),
(244,130,cs),
(208,130,o),
(185,155,o),
(170,223,c),
(16,176,l),
(38,55,o),
(123,-17,o),
(247,-17,cs)
);
}
);
width = 500;
},
{
layerId = "B4464F9C-2DA6-418A-B3C4-1470167D4EB6";
shapes = (
{
closed = 1;
nodes = (
(599,-17,o),
(717,67,o),
(717,217,cs),
(717,360,o),
(613,430,o),
(400,430,cs),
(131,430,l),
(170,384,l),
(195,671,l),
(158,643,l),
(701,643,l),
(701,705,l),
(127,705,l),
(98,370,l),
(399,370,ls),
(567,370,o),
(644,321,o),
(644,214,cs),
(644,106,o),
(551,45,o),
(389,45,cs),
(243,45,o),
(139,95,o),
(90,188,c),
(20,163,l),
(74,47,o),
(204,-17,o),
(388,-17,cs)
);
}
);
width = 762;
},
{
layerId = "9C3D73EE-3D01-4F34-8F18-5001540A34C7";
shapes = (
{
closed = 1;
nodes = (
(671,-17,o),
(810,74,o),
(810,236,cs),
(810,384,o),
(707,455,o),
(494,455,cs),
(205,455,l),
(273,395,l),
(289,574,l),
(233,525,l),
(783,525,l),
(783,705,l),
(114,705,l),
(79,295,l),
(438,295,ls),
(541,295,o),
(583,274,o),
(583,224,cs),
(583,168,o),
(536,143,o),
(431,143,cs),
(324,143,o),
(259,174,o),
(232,239,c),
(18,181,l),
(66,57,o),
(216,-17,o),
(421,-17,cs)
);
}
);
width = 840;
}
);
note = five;
unicode = 53;
userData = {
KernOnName = five;
};
}
{
glyphname = six;
kernLeft = KO_six;
kernRight = KO_six;
layers = (
{
layerId = m008;
shapes = (
{
closed = 1;
nodes = (
(424,-16,o),
(523,83,o),
(523,220,cs),
(523,359,o),
(433,451,o),
(297,451,cs),
(239,451,o),
(191,433,o),
(154,395,c),
(154,395,l),
(174,434,o),
(211,481,o),
(278,553,cs),
(421,705,l),
(333,705,l),
(199,557,ls),
(93,441,o),
(40,335,o),
(40,220,cs),
(40,82,o),
(142,-16,o),
(285,-16,cs)
);
},
{
closed = 1;
nodes = (
(183,46,o),
(110,118,o),
(110,220,cs),
(110,318,o),
(183,391,o),
(283,391,cs),
(382,391,o),
(453,320,o),
(453,220,cs),
(453,120,o),
(382,46,o),
(285,46,cs)
);
}
);
width = 563;
},
{
layerId = "E0044746-7B1A-4AF1-A08A-EDFF47B9B447";
shapes = (
{
closed = 1;
nodes = (
(440,-16,o),
(541,85,o),
(541,225,cs),
(541,364,o),
(449,456,o),
(309,456,cs),
(238,456,o),
(187,426,o),
(146,372,c),
(141,372,l),
(166,418,o),
(199,462,o),
(290,558,cs),
(433,705,l),
(342,705,l),
(208,562,ls),
(102,444,o),
(52,340,o),
(52,225,cs),
(52,84,o),
(154,-16,o),
(297,-16,cs)
);
},
{
closed = 1;
nodes = (
(195,46,o),
(121,119,o),
(121,221,cs),
(121,323,o),
(195,396,o),
(296,396,cs),
(397,396,o),
(471,323,o),
(471,221,cs),
(471,119,o),
(397,46,o),
(296,46,cs)
);
}
);
width = 593;
},
{
layerId = "EAEE501F-808F-4F80-A534-C44A55AE9CF1";
shapes = (
{
closed = 1;
nodes = (
(480,-17,o),
(603,84,o),
(603,236,cs),
(603,376,o),
(498,466,o),
(372,466,cs),
(338,466,o),
(308,458,o),
(282,442,c),
(282,442,l),
(294,458,o),
(308,474,o),
(326,494,cs),
(521,705,l),
(295,705,l),
(190,582,ls),
(76,448,o),
(31,352,o),
(31,246,cs),
(31,84,o),
(155,-17,o),
(320,-17,cs)
);
},
{
closed = 1;
nodes = (
(263,134,o),
(221,175,o),
(221,230,cs),
(221,286,o),
(263,327,o),
(321,327,cs),
(378,327,o),
(420,286,o),
(420,230,cs),
(420,175,o),
(378,134,o),
(321,134,cs)
);
}
);
width = 629;
},
{
layerId = "D0F786FD-D799-4DD4-8218-8DF09CBA4779";
shapes = (
{
closed = 1;
nodes = (
(488,-17,o),
(614,84,o),
(614,236,cs),
(614,376,o),
(521,464,o),
(398,464,cs),
(329,464,o),
(288,438,o),
(246,401,c),
(240,401,l),
(261,427,o),
(277,445,o),
(331,503,cs),
(522,705,l),
(305,705,l),
(200,582,ls),
(86,449,o),
(41,361,o),
(41,246,cs),
(41,84,o),
(163,-17,o),
(328,-17,cs)
);
},
{
closed = 1;
nodes = (
(267,117,o),
(218,159,o),
(218,225,cs),
(218,290,o),
(264,333,o),
(328,333,cs),
(391,333,o),
(437,290,o),
(437,225,cs),
(437,159,o),
(394,117,o),
(330,117,cs)
);
}
);
width = 660;
},
{
layerId = "38794FDE-96C3-45FE-89A8-4F68FD88490C";
shapes = (
{
closed = 1;
nodes = (
(328,-16,o),
(400,83,o),
(400,219,cs),
(400,358,o),
(335,450,o),
(232,450,cs),
(190,450,o),
(147,431,o),
(121,393,c),
(121,393,l),
(134,433,o),
(163,482,o),
(214,556,cs),
(316,705,l),
(246,705,l),
(148,557,ls),
(72,443,o),
(29,331,o),
(29,219,cs),
(29,82,o),
(106,-16,o),
(217,-16,cs)
);
},
{
closed = 1;
nodes = (
(143,42,o),
(93,115,o),
(93,220,cs),
(93,320,o),
(146,394,o),
(219,394,cs),
(290,394,o),
(336,321,o),
(336,220,cs),
(336,118,o),
(291,42,o),
(217,42,cs)
);
}
);
width = 429;
},
{
layerId = "BD94C4B7-004C-4524-8669-6CB6D8067CD8";
shapes = (
{
closed = 1;
nodes = (
(410,-17,o),
(511,88,o),
(511,234,cs),
(511,368,o),
(435,461,o),
(326,461,cs),
(296,461,o),
(265,452,o),
(248,437,c),
(248,437,l),
(261,459,o),
(274,479,o),
(291,502,cs),
(439,705,l),
(242,705,l),
(154,580,ls),
(61,448,o),
(24,350,o),
(24,243,cs),
(24,90,o),
(125,-17,o),
(270,-17,cs)
);
},
{
closed = 1;
nodes = (
(227,125,o),
(201,164,o),
(201,229,cs),
(201,294,o),
(226,333,o),
(269,333,cs),
(310,333,o),
(337,293,o),
(337,229,cs),
(337,166,o),
(310,125,o),
(269,125,cs)
);
}
);
width = 531;
},
{
layerId = "B4464F9C-2DA6-418A-B3C4-1470167D4EB6";
shapes = (
{
closed = 1;
nodes = (
(601,-16,o),
(736,72,o),
(736,220,cs),
(736,364,o),
(611,451,o),
(403,451,cs),
(308,451,o),
(211,422,o),
(157,377,c),
(157,377,l),
(194,422,o),
(236,460,o),
(311,513,cs),
(578,705,l),
(479,705,l),
(244,534,ls),
(101,430,o),
(40,336,o),
(40,220,cs),
(40,74,o),
(175,-16,o),
(388,-16,cs)
);
},
{
closed = 1;
nodes = (
(216,44,o),
(110,110,o),
(110,220,cs),
(110,324,o),
(219,391,o),
(388,391,cs),
(563,391,o),
(666,328,o),
(666,220,cs),
(666,111,o),
(560,44,o),
(388,44,cs)
);
}
);
width = 776;
},
{
background = {
shapes = (
{
closed = 1;
nodes = (
(676,-17,o),
(850,84,o),
(850,242,cs),
(850,381,o),
(699,471,o),
(506,471,cs),
(444,471,o),
(392,466,o),
(348,458,c),
(348,458,l),
(372,464,o),
(403,469,o),
(439,496,cs),
(719,705,l),
(440,705,l),
(272,587,ls),
(94,462,o),
(31,365,o),
(31,255,cs),
(31,86,o),
(208,-17,o),
(445,-17,cs)
);
},
{
closed = 1;
nodes = (
(341,165,o),
(264,195,o),
(264,233,cs),
(264,274,o),
(341,305,o),
(446,305,cs),
(549,305,o),
(625,274,o),
(625,233,cs),
(625,195,o),
(549,165,o),
(446,165,cs)
);
}
);
};
layerId = "9C3D73EE-3D01-4F34-8F18-5001540A34C7";
shapes = (
{
closed = 1;
nodes = (
(673,-17,o),
(847,74,o),
(847,242,cs),
(847,391,o),
(706,471,o),
(513,471,cs),
(461,471,o),
(394,464,o),
(339,438,c),
(339,438,l),
(371,460,o),
(395,477,o),
(421,496,cs),
(722,705,l),
(437,705,l),
(269,587,ls),
(91,462,o),
(28,375,o),
(28,255,cs),
(28,76,o),
(205,-17,o),
(442,-17,cs)
);
},
{
closed = 1;
nodes = (
(318,143,o),
(261,183,o),
(261,234,cs),
(261,285,o),
(318,325,o),
(443,325,cs),
(566,325,o),
(622,285,o),
(622,234,cs),
(622,183,o),
(566,143,o),
(443,143,cs)
);
}
);
width = 877;
}
);
note = six;
unicode = 54;
userData = {
KernOnName = six;
};
}
{
glyphname = seven;
kernLeft = KO_seven;
kernRight = KO_seven;
layers = (
{
layerId = m008;
shapes = (
{
closed = 1;
nodes = (
(157,0,l),
(477,601,l),
(477,705,l),
(30,705,l),
(30,643,l),
(434,643,l),
(84,0,l)
);
}
);
width = 507;
},
{
layerId = "E0044746-7B1A-4AF1-A08A-EDFF47B9B447";
shapes = (
{
closed = 1;
nodes = (
(164,0,l),
(484,630,l),
(484,705,l),
(37,705,l),
(37,643,l),
(422,643,l),
(92,0,l)
);
}
);
width = 521;
},
{
layerId = "EAEE501F-808F-4F80-A534-C44A55AE9CF1";
shapes = (
{
closed = 1;
nodes = (
(248,0,l),
(518,472,l),
(518,705,l),
(25,705,l),
(25,545,l),
(371,545,l),
(46,0,l)
);
}
);
width = 525;
},
{
layerId = "D0F786FD-D799-4DD4-8218-8DF09CBA4779";
shapes = (
{
closed = 1;
nodes = (
(259,0,l),
(529,525,l),
(529,705,l),
(35,705,l),
(35,557,l),
(367,557,l),
(70,0,l)
);
}
);
width = 564;
},
{
layerId = "38794FDE-96C3-45FE-89A8-4F68FD88490C";
shapes = (
{
closed = 1;
nodes = (
(127,0,l),
(352,607,l),
(352,705,l),
(22,705,l),
(22,647,l),
(309,647,l),
(62,0,l)
);
}
);
width = 372;
},
{
layerId = "BD94C4B7-004C-4524-8669-6CB6D8067CD8";
shapes = (
{
closed = 1;
nodes = (
(210,0,l),
(433,485,l),
(433,705,l),
(20,705,l),
(20,555,l),
(298,555,l),
(30,0,l)
);
}
);
width = 438;
},
{
layerId = "B4464F9C-2DA6-418A-B3C4-1470167D4EB6";
shapes = (
{
closed = 1;
nodes = (
(236,0,l),
(686,599,l),
(686,705,l),
(30,705,l),
(30,643,l),
(642,643,l),
(156,0,l)
);
}
);
width = 716;
},
{
layerId = "9C3D73EE-3D01-4F34-8F18-5001540A34C7";
shapes = (
{
closed = 1;
nodes = (
(368,0,l),
(745,455,l),
(745,705,l),
(25,705,l),
(25,520,l),
(564,520,l),
(118,0,l)
);
}
);
width = 752;
}
);
note = seven;
unicode = 55;
userData = {
KernOnName = seven;
};
}
{
glyphname = eight;
kernLeft = KO_eight;
kernRight = KO_eight;
layers = (
{
layerId = m008;
shapes = (
{
closed = 1;
nodes = (
(445,-17,o),
(547,71,o),
(547,203,cs),
(547,297,o),
(484,373,o),
(405,395,c),
(405,395,l),
(459,420,o),
(497,476,o),
(497,542,cs),
(497,647,o),
(415,721,o),
(296,721,cs),
(177,721,o),
(95,647,o),
(95,542,cs),
(95,476,o),
(133,420,o),
(187,395,c),
(187,395,l),
(108,373,o),
(45,297,o),
(45,203,cs),
(45,71,o),
(147,-17,o),
(296,-17,cs)
);
},
{
closed = 1;
nodes = (
(187,45,o),
(115,108,o),
(115,204,cs),
(115,301,o),
(187,364,o),
(296,364,cs),
(405,364,o),
(477,301,o),
(477,204,cs),
(477,108,o),
(405,45,o),
(296,45,cs)
);
},
{
closed = 1;
nodes = (
(217,421,o),
(165,470,o),
(165,542,cs),
(165,612,o),
(217,659,o),
(296,659,cs),
(375,659,o),
(427,612,o),
(427,542,cs),
(427,470,o),
(375,421,o),
(296,421,cs)
);
}
);
width = 592;
},
{
layerId = "E0044746-7B1A-4AF1-A08A-EDFF47B9B447";
shapes = (
{
closed = 1;
nodes = (
(462,-17,o),
(564,67,o),
(564,193,cs),
(564,291,o),
(490,361,o),
(413,374,c),
(413,378,l),
(475,387,o),
(534,453,o),
(534,532,cs),
(534,643,o),
(444,721,o),
(313,721,cs),
(182,721,o),
(92,643,o),
(92,532,cs),
(92,453,o),
(151,387,o),
(213,378,c),
(213,374,l),
(136,361,o),
(62,291,o),
(62,193,cs),
(62,67,o),
(164,-17,o),
(313,-17,cs)
);
},
{
closed = 1;
nodes = (
(204,45,o),
(132,104,o),
(132,194,cs),
(132,285,o),
(204,344,o),
(313,344,cs),
(422,344,o),
(494,285,o),
(494,194,cs),
(494,104,o),
(422,45,o),
(313,45,cs)
);
},
{
closed = 1;
nodes = (
(222,401,o),
(162,454,o),
(162,532,cs),
(162,608,o),
(222,659,o),
(313,659,cs),
(404,659,o),
(464,608,o),
(464,532,cs),
(464,454,o),
(404,401,o),
(313,401,cs)
);
}
);
width = 626;
},
{
layerId = "EAEE501F-808F-4F80-A534-C44A55AE9CF1";
shapes = (
{
closed = 1;
nodes = (
(505,-17,o),
(619,71,o),
(619,206,cs),
(619,292,o),
(568,365,o),
(484,388,c),
(484,388,l),
(540,419,o),
(572,472,o),
(572,536,cs),
(572,645,o),
(478,721,o),
(322,721,cs),
(165,721,o),
(71,645,o),
(71,536,cs),
(71,472,o),
(104,419,o),
(160,388,c),
(160,388,l),
(75,365,o),
(25,292,o),
(25,206,cs),
(25,71,o),
(139,-17,o),
(322,-17,cs)
);
},
{
closed = 1;
nodes = (
(260,114,o),
(217,155,o),
(217,213,cs),
(217,272,o),
(260,312,o),
(322,312,cs),
(384,312,o),
(426,272,o),
(426,213,cs),
(426,155,o),
(384,114,o),
(322,114,cs)
);
},
{
closed = 1;
nodes = (
(277,447,o),
(242,479,o),
(242,524,cs),
(242,566,o),
(276,597,o),
(322,597,cs),
(368,597,o),
(401,566,o),
(401,524,cs),
(401,479,o),
(367,447,o),
(322,447,cs)
);
}
);
width = 644;
},
{
layerId = "D0F786FD-D799-4DD4-8218-8DF09CBA4779";
shapes = (
{
closed = 1;
nodes = (
(528,-17,o),
(645,70,o),
(645,196,cs),
(645,290,o),
(591,359,o),
(498,378,c),
(498,384,l),
(565,401,o),
(610,460,o),
(610,532,cs),
(610,645,o),
(504,721,o),
(348,721,cs),
(192,721,o),
(87,645,o),
(87,532,cs),
(87,460,o),
(131,401,o),
(199,384,c),
(199,378,l),
(106,359,o),
(51,290,o),
(51,196,cs),
(51,70,o),
(168,-17,o),
(348,-17,cs)
);
},
{
closed = 1;
nodes = (
(283,110,o),
(239,153,o),
(239,212,cs),
(239,273,o),
(283,315,o),
(348,315,cs),
(413,315,o),
(457,273,o),
(457,212,cs),
(457,153,o),
(413,110,o),
(348,110,cs)
);
},
{
closed = 1;
nodes = (
(293,429,o),
(252,466,o),
(252,515,cs),
(252,565,o),
(293,603,o),
(348,603,cs),
(403,603,o),
(444,565,o),
(444,515,cs),
(444,466,o),
(403,429,o),
(348,429,cs)
);
}
);
width = 696;
},
{
layerId = "38794FDE-96C3-45FE-89A8-4F68FD88490C";
shapes = (
{
closed = 1;
nodes = (
(339,-17,o),
(418,73,o),
(418,203,cs),
(418,297,o),
(375,371,o),
(306,395,c),
(306,395,l),
(355,422,o),
(383,475,o),
(383,542,cs),
(383,648,o),
(318,721,o),
(225,721,cs),
(134,721,o),
(67,646,o),
(67,542,cs),
(67,475,o),
(95,422,o),
(144,395,c),
(144,395,l),
(75,371,o),
(32,297,o),
(32,203,cs),
(32,73,o),
(111,-17,o),
(225,-17,cs)
);
},
{
closed = 1;
nodes = (
(146,42,o),
(96,104,o),
(96,204,cs),
(96,304,o),
(146,366,o),
(225,366,cs),
(304,366,o),
(354,304,o),
(354,204,cs),
(354,104,o),
(304,42,o),
(225,42,cs)
);
},
{
closed = 1;
nodes = (
(168,420,o),
(129,469,o),
(129,543,cs),
(129,615,o),
(167,662,o),
(225,662,cs),
(284,662,o),
(321,616,o),
(321,543,cs),
(321,469,o),
(283,420,o),
(225,420,cs)
);
}
);
width = 450;
},
{
layerId = "BD94C4B7-004C-4524-8669-6CB6D8067CD8";
shapes = (
{
closed = 1;
nodes = (
(426,-17,o),
(524,69,o),
(524,206,cs),
(524,296,o),
(481,362,o),
(406,389,c),
(406,389,l),
(460,419,o),
(489,471,o),
(489,537,cs),
(489,649,o),
(404,721,o),
(271,721,cs),
(138,721,o),
(53,649,o),
(53,537,cs),
(53,471,o),
(82,419,o),
(136,389,c),
(136,389,l),
(61,362,o),
(18,296,o),
(18,206,cs),
(18,69,o),
(116,-17,o),
(271,-17,cs)
);
},
{
closed = 1;
nodes = (
(227,107,o),
(200,146,o),
(200,212,cs),
(200,278,o),
(227,317,o),
(271,317,cs),
(315,317,o),
(342,278,o),
(342,212,cs),
(342,146,o),
(315,107,o),
(271,107,cs)
);
},
{
closed = 1;
nodes = (
(237,444,o),
(214,477,o),
(214,526,cs),
(214,573,o),
(236,603,o),
(271,603,cs),
(306,603,o),
(328,573,o),
(328,526,cs),
(328,477,o),
(305,444,o),
(271,444,cs)
);
}
);
width = 542;
},
{
layerId = "B4464F9C-2DA6-418A-B3C4-1470167D4EB6";
shapes = (
{
closed = 1;
nodes = (
(629,-17,o),
(759,63,o),
(759,203,cs),
(759,309,o),
(685,378,o),
(551,395,c),
(551,395,l),
(643,413,o),
(693,465,o),
(693,542,cs),
(693,653,o),
(583,721,o),
(402,721,cs),
(222,721,o),
(111,653,o),
(111,542,cs),
(111,465,o),
(161,413,o),
(253,395,c),
(253,395,l),
(119,378,o),
(45,309,o),
(45,203,cs),
(45,63,o),
(175,-17,o),
(402,-17,cs)
);
},
{
closed = 1;
nodes = (
(217,45,o),
(115,101,o),
(115,204,cs),
(115,307,o),
(218,364,o),
(402,364,cs),
(586,364,o),
(689,307,o),
(689,204,cs),
(689,101,o),
(587,45,o),
(402,45,cs)
);
},
{
closed = 1;
nodes = (
(266,421,o),
(181,468,o),
(181,542,cs),
(181,616,o),
(263,659,o),
(402,659,cs),
(541,659,o),
(623,616,o),
(623,542,cs),
(623,468,o),
(538,421,o),
(402,421,cs)
);
}
);
width = 804;
},
{
layerId = "9C3D73EE-3D01-4F34-8F18-5001540A34C7";
shapes = (
{
closed = 1;
nodes = (
(726,-17,o),
(875,65,o),
(875,217,cs),
(875,310,o),
(800,375,o),
(680,386,c),
(680,386,l),
(768,397,o),
(825,453,o),
(825,528,cs),
(825,648,o),
(683,721,o),
(450,721,cs),
(217,721,o),
(75,648,o),
(75,528,cs),
(75,453,o),
(132,397,o),
(220,386,c),
(220,386,l),
(100,375,o),
(25,310,o),
(25,217,cs),
(25,65,o),
(174,-17,o),
(450,-17,cs)
);
},
{
closed = 1;
nodes = (
(325,129,o),
(260,159,o),
(260,217,cs),
(260,275,o),
(325,305,o),
(450,305,cs),
(575,305,o),
(640,275,o),
(640,217,cs),
(640,159,o),
(575,129,o),
(450,129,cs)
);
},
{
closed = 1;
nodes = (
(344,445,o),
(288,469,o),
(288,515,cs),
(288,561,o),
(344,585,o),
(450,585,cs),
(556,585,o),
(612,561,o),
(612,515,cs),
(612,469,o),
(556,445,o),
(450,445,cs)
);
}
);
width = 900;
}
);
note = eight;
unicode = 56;
userData = {
KernOnName = eight;
};
}
{
glyphname = nine;
kernLeft = KO_nine;
kernRight = KO_nine;
layers = (
{
layerId = m008;
shapes = (
{
closed = 1;
nodes = (
(230,0,l),
(364,148,ls),
(470,264,o),
(523,370,o),
(523,485,cs),
(523,623,o),
(421,721,o),
(278,721,cs),
(139,721,o),
(40,622,o),
(40,485,cs),
(40,346,o),
(130,254,o),
(266,254,cs),
(324,254,o),
(372,272,o),
(409,310,c),
(409,310,l),
(389,271,o),
(352,224,o),
(285,152,cs),
(142,0,l)
);
},
{
closed = 1;
nodes = (
(181,314,o),
(110,385,o),
(110,485,cs),
(110,585,o),
(181,659,o),
(278,659,cs),
(380,659,o),
(453,587,o),
(453,485,cs),
(453,387,o),
(380,314,o),
(280,314,cs)
);
}
);
width = 563;
},
{
layerId = "E0044746-7B1A-4AF1-A08A-EDFF47B9B447";
shapes = (
{
closed = 1;
nodes = (
(251,0,l),
(385,143,ls),
(491,261,o),
(541,365,o),
(541,480,cs),
(541,621,o),
(439,721,o),
(296,721,cs),
(153,721,o),
(52,620,o),
(52,480,cs),
(52,341,o),
(144,249,o),
(284,249,cs),
(355,249,o),
(406,279,o),
(447,333,c),
(452,333,l),
(427,287,o),
(394,243,o),
(303,147,cs),
(160,0,l)
);
},
{
closed = 1;
nodes = (
(196,309,o),
(122,382,o),
(122,484,cs),
(122,586,o),
(196,659,o),
(297,659,cs),
(398,659,o),
(472,586,o),
(472,484,cs),
(472,382,o),
(398,309,o),
(297,309,cs)
);
}
);
width = 593;
},
{
layerId = "EAEE501F-808F-4F80-A534-C44A55AE9CF1";
shapes = (
{
closed = 1;
nodes = (
(334,0,l),
(439,123,ls),
(554,257,o),
(598,353,o),
(598,459,cs),
(598,621,o),
(474,722,o),
(309,722,cs),
(149,722,o),
(26,621,o),
(26,469,cs),
(26,329,o),
(131,239,o),
(257,239,cs),
(291,239,o),
(322,247,o),
(347,263,c),
(347,263,l),
(336,248,o),
(321,231,o),
(303,211,cs),
(108,0,l)
);
},
{
closed = 1;
nodes = (
(251,378,o),
(209,419,o),
(209,475,cs),
(209,530,o),
(251,571,o),
(308,571,cs),
(366,571,o),
(408,530,o),
(408,475,cs),
(408,419,o),
(366,378,o),
(309,378,cs)
);
}
);
width = 629;
},
{
layerId = "D0F786FD-D799-4DD4-8218-8DF09CBA4779";
shapes = (
{
closed = 1;
nodes = (
(354,0,l),
(460,123,ls),
(574,256,o),
(619,344,o),
(619,459,cs),
(619,621,o),
(497,722,o),
(332,722,cs),
(172,722,o),
(46,621,o),
(46,469,cs),
(46,329,o),
(139,241,o),
(261,241,cs),
(330,241,o),
(372,267,o),
(414,304,c),
(420,304,l),
(400,279,o),
(386,263,o),
(329,202,cs),
(137,0,l)
);
},
{
closed = 1;
nodes = (
(269,372,o),
(223,415,o),
(223,480,cs),
(223,546,o),
(266,588,o),
(329,588,cs),
(393,588,o),
(442,546,o),
(442,480,cs),
(442,415,o),
(395,372,o),
(332,372,cs)
);
}
);
width = 660;
},
{
layerId = "38794FDE-96C3-45FE-89A8-4F68FD88490C";
shapes = (
{
closed = 1;
nodes = (
(183,0,l),
(281,148,ls),
(357,262,o),
(400,374,o),
(400,486,cs),
(400,623,o),
(323,721,o),
(212,721,cs),
(101,721,o),
(29,622,o),
(29,486,cs),
(29,347,o),
(94,255,o),
(197,255,cs),
(239,255,o),
(282,274,o),
(308,312,c),
(308,312,l),
(295,272,o),
(266,223,o),
(215,149,cs),
(113,0,l)
);
},
{
closed = 1;
nodes = (
(139,311,o),
(93,384,o),
(93,485,cs),
(93,587,o),
(138,663,o),
(212,663,cs),
(286,663,o),
(336,590,o),
(336,485,cs),
(336,385,o),
(283,311,o),
(210,311,cs)
);
}
);
width = 429;
},
{
layerId = "BD94C4B7-004C-4524-8669-6CB6D8067CD8";
shapes = (
{
closed = 1;
nodes = (
(288,0,l),
(376,125,ls),
(469,257,o),
(507,355,o),
(507,462,cs),
(507,615,o),
(406,722,o),
(260,722,cs),
(120,722,o),
(19,617,o),
(19,471,cs),
(19,337,o),
(95,244,o),
(204,244,cs),
(234,244,o),
(265,253,o),
(282,268,c),
(282,268,l),
(269,246,o),
(256,226,o),
(239,203,cs),
(91,0,l)
);
},
{
closed = 1;
nodes = (
(220,372,o),
(193,412,o),
(193,476,cs),
(193,539,o),
(220,580,o),
(261,580,cs),
(303,580,o),
(329,541,o),
(329,476,cs),
(329,411,o),
(304,372,o),
(262,372,cs)
);
}
);
width = 531;
},
{
layerId = "B4464F9C-2DA6-418A-B3C4-1470167D4EB6";
shapes = (
{
closed = 1;
nodes = (
(297,0,l),
(532,171,ls),
(675,275,o),
(736,369,o),
(736,485,cs),
(736,631,o),
(602,721,o),
(388,721,cs),
(174,721,o),
(40,633,o),
(40,485,cs),
(40,341,o),
(165,254,o),
(373,254,cs),
(468,254,o),
(565,283,o),
(619,328,c),
(619,328,l),
(582,283,o),
(540,245,o),
(465,192,cs),
(198,0,l)
);
},
{
closed = 1;
nodes = (
(213,314,o),
(110,377,o),
(110,485,cs),
(110,594,o),
(220,661,o),
(388,661,cs),
(556,661,o),
(666,595,o),
(666,485,cs),
(666,381,o),
(557,314,o),
(388,314,cs)
);
}
);
width = 776;
},
{
background = {
shapes = (
{
closed = 1;
nodes = (
(435,0,l),
(603,118,ls),
(781,243,o),
(844,330,o),
(844,450,cs),
(844,629,o),
(667,722,o),
(430,722,cs),
(199,722,o),
(25,631,o),
(25,463,cs),
(25,314,o),
(166,234,o),
(359,234,cs),
(411,234,o),
(478,241,o),
(533,267,c),
(533,267,l),
(491,238,o),
(488,235,o),
(451,209,cs),
(150,0,l)
);
},
{
closed = 1;
nodes = (
(306,380,o),
(250,420,o),
(250,472,cs),
(250,521,o),
(306,560,o),
(429,560,cs),
(554,560,o),
(611,521,o),
(611,472,cs),
(611,420,o),
(554,380,o),
(429,380,cs)
);
}
);
};
layerId = "9C3D73EE-3D01-4F34-8F18-5001540A34C7";
shapes = (
{
closed = 1;
nodes = (
(438,0,l),
(606,118,ls),
(784,243,o),
(847,330,o),
(847,450,cs),
(847,629,o),
(670,722,o),
(433,722,cs),
(202,722,o),
(28,631,o),
(28,463,cs),
(28,314,o),
(169,234,o),
(362,234,cs),
(414,234,o),
(481,241,o),
(536,267,c),
(536,267,l),
(494,238,o),
(491,235,o),
(454,209,cs),
(153,0,l)
);
},
{
closed = 1;
nodes = (
(309,380,o),
(253,420,o),
(253,473,cs),
(253,523,o),
(309,562,o),
(432,562,cs),
(557,562,o),
(614,523,o),
(614,473,cs),
(614,420,o),
(557,380,o),
(432,380,cs)
);
}
);
width = 875;
}
);
note = nine;
unicode = 57;
}
{
glyphname = colon;
kernLeft = KO_colon;
kernRight = KO_colon;
layers = (
{
layerId = m008;
shapes = (
{
closed = 1;
nodes = (
(163,331,o),
(188,356,o),
(188,388,cs),
(188,419,o),
(163,444,o),
(131,444,cs),
(101,444,o),
(75,419,o),
(75,388,cs),
(75,356,o),
(101,331,o),
(131,331,cs)
);
},
{
closed = 1;
nodes = (
(163,-5,o),
(188,20,o),
(188,52,cs),
(188,83,o),
(163,108,o),
(131,108,cs),
(101,108,o),
(75,83,o),
(75,52,cs),
(75,20,o),
(101,-5,o),
(131,-5,cs)
);
}
);
width = 263;
},
{
layerId = "E0044746-7B1A-4AF1-A08A-EDFF47B9B447";
shapes = (
{
closed = 1;
nodes = (
(176,351,o),
(201,377,o),
(201,407,cs),
(201,437,o),
(176,463,o),
(145,463,cs),
(116,463,o),
(90,437,o),
(90,407,cs),
(90,377,o),
(116,351,o),
(145,351,cs)
);
},
{
closed = 1;
nodes = (
(176,-5,o),
(201,21,o),
(201,51,cs),
(201,81,o),
(176,107,o),
(145,107,cs),
(116,107,o),
(90,81,o),
(90,51,cs),
(90,21,o),
(116,-5,o),
(145,-5,cs)
);
}
);
width = 291;
},
{
layerId = "EAEE501F-808F-4F80-A534-C44A55AE9CF1";
shapes = (
{
closed = 1;
nodes = (
(209,295,o),
(251,341,o),
(251,398,cs),
(251,454,o),
(209,500,o),
(147,500,cs),
(85,500,o),
(43,454,o),
(43,398,cs),
(43,341,o),
(85,295,o),
(147,295,cs)
);
},
{
closed = 1;
nodes = (
(209,-5,o),
(251,41,o),
(251,98,cs),
(251,154,o),
(209,200,o),
(147,200,cs),
(85,200,o),
(43,154,o),
(43,98,cs),
(43,41,o),
(85,-5,o),
(147,-5,cs)
);
}
);
width = 294;
},
{
layerId = "D0F786FD-D799-4DD4-8218-8DF09CBA4779";
shapes = (
{
closed = 1;
nodes = (
(226,314,o),
(265,357,o),
(265,410,cs),
(265,462,o),
(226,504,o),
(169,504,cs),
(111,504,o),
(72,462,o),
(72,410,cs),
(72,357,o),
(111,314,o),
(169,314,cs)
);
},
{
closed = 1;
nodes = (
(226,-5,o),
(265,38,o),
(265,91,cs),
(265,143,o),
(226,185,o),
(169,185,cs),
(111,185,o),
(72,143,o),
(72,91,cs),
(72,38,o),
(111,-5,o),
(169,-5,cs)
);
}
);
width = 337;
},
{
layerId = "38794FDE-96C3-45FE-89A8-4F68FD88490C";
shapes = (
{
closed = 1;
nodes = (
(127,334,o),
(147,356,o),
(147,388,cs),
(147,420,o),
(127,442,o),
(100,442,cs),
(73,442,o),
(53,420,o),
(53,388,cs),
(53,356,o),
(73,334,o),
(100,334,cs)
);
},
{
closed = 1;
nodes = (
(127,-5,o),
(147,17,o),
(147,49,cs),
(147,81,o),
(127,103,o),
(100,103,cs),
(73,103,o),
(53,81,o),
(53,49,cs),
(53,17,o),
(73,-5,o),
(100,-5,cs)
);
}
);
width = 200;
},
{
layerId = "BD94C4B7-004C-4524-8669-6CB6D8067CD8";
shapes = (
{
closed = 1;
nodes = (
(179,298,o),
(220,340,o),
(220,396,cs),
(220,452,o),
(179,494,o),
(125,494,cs),
(71,494,o),
(30,452,o),
(30,396,cs),
(30,340,o),
(71,298,o),
(125,298,cs)
);
},
{
closed = 1;
nodes = (
(179,-5,o),
(220,37,o),
(220,93,cs),
(220,149,o),
(179,191,o),
(125,191,cs),
(71,191,o),
(30,149,o),
(30,93,cs),
(30,37,o),
(71,-5,o),
(125,-5,cs)
);
}
);
width = 250;
},
{
layerId = "B4464F9C-2DA6-418A-B3C4-1470167D4EB6";
metricLeft = "=period";
metricRight = "=period";
shapes = (
{
closed = 1;
nodes = (
(172,328,o),
(199,352,o),
(199,386,cs),
(199,420,o),
(172,444,o),
(137,444,cs),
(102,444,o),
(75,420,o),
(75,386,cs),
(75,352,o),
(102,328,o),
(137,328,cs)
);
},
{
closed = 1;
nodes = (
(172,-5,o),
(199,19,o),
(199,53,cs),
(199,87,o),
(172,111,o),
(137,111,cs),
(102,111,o),
(75,87,o),
(75,53,cs),
(75,19,o),
(102,-5,o),
(137,-5,cs)
);
}
);
width = 274;
},
{
background = {
shapes = (
{
closed = 1;
nodes = (
(258,282,o),
(314,336,o),
(314,401,cs),
(314,465,o),
(258,519,o),
(178,519,cs),
(99,519,o),
(43,466,o),
(43,401,cs),
(43,337,o),
(99,282,o),
(178,282,cs)
);
},
{
closed = 1;
nodes = (
(258,-5,o),
(314,48,o),
(314,114,cs),
(314,178,o),
(258,232,o),
(178,232,cs),
(99,232,o),
(43,179,o),
(43,114,cs),
(43,49,o),
(99,-5,o),
(178,-5,cs)
);
}
);
};
layerId = "9C3D73EE-3D01-4F34-8F18-5001540A34C7";
shapes = (
{
closed = 1;
nodes = (
(259,283,o),
(313,335,o),
(313,401,cs),
(313,467,o),
(259,519,o),
(179,519,cs),
(100,519,o),
(45,467,o),
(45,401,cs),
(45,335,o),
(100,283,o),
(179,283,cs)
);
},
{
closed = 1;
nodes = (
(259,-10,o),
(313,42,o),
(313,108,cs),
(313,174,o),
(259,226,o),
(179,226,cs),
(100,226,o),
(45,174,o),
(45,108,cs),
(45,42,o),
(100,-10,o),
(179,-10,cs)
);
}
);
width = 358;
}
);
note = colon;
unicode = 58;
userData = {
KernOnName = colon;
KernOnSpecialSpacing = {
L = period;
R = period;
};
};
}
{
glyphname = semicolon;
kernLeft = KO_semicolon;
kernRight = KO_colon;
layers = (
{
layerId = m008;
shapes = (
{
closed = 1;
nodes = (
(98,-184,l),
(185,95,l),
(107,95,l),
(45,-184,l)
);
},
{
closed = 1;
nodes = (
(190,331,o),
(215,356,o),
(215,388,cs),
(215,419,o),
(190,444,o),
(158,444,cs),
(128,444,o),
(102,419,o),
(102,388,cs),
(102,356,o),
(128,331,o),
(158,331,cs)
);
}
);
width = 290;
},
{
layerId = "E0044746-7B1A-4AF1-A08A-EDFF47B9B447";
shapes = (
{
closed = 1;
nodes = (
(127,-184,l),
(214,95,l),
(140,95,l),
(78,-184,l)
);
},
{
closed = 1;
nodes = (
(217,351,o),
(242,377,o),
(242,407,cs),
(242,437,o),
(217,463,o),
(186,463,cs),
(157,463,o),
(131,437,o),
(131,407,cs),
(131,377,o),
(157,351,o),
(186,351,cs)
);
}
);
width = 332;
},
{
layerId = "EAEE501F-808F-4F80-A534-C44A55AE9CF1";
shapes = (
{
closed = 1;
nodes = (
(147,-195,l),
(260,141,l),
(78,141,l),
(5,-195,l)
);
},
{
closed = 1;
nodes = (
(240,295,o),
(282,341,o),
(282,398,cs),
(282,454,o),
(240,500,o),
(178,500,cs),
(116,500,o),
(74,454,o),
(74,398,cs),
(74,341,o),
(116,295,o),
(178,295,cs)
);
}
);
width = 325;
},
{
layerId = "D0F786FD-D799-4DD4-8218-8DF09CBA4779";
shapes = (
{
closed = 1;
nodes = (
(168,-196,l),
(280,141,l),
(113,141,l),
(40,-196,l)
);
},
{
closed = 1;
nodes = (
(253,314,o),
(292,357,o),
(292,410,cs),
(292,462,o),
(253,504,o),
(196,504,cs),
(138,504,o),
(99,462,o),
(99,410,cs),
(99,357,o),
(138,314,o),
(196,314,cs)
);
}
);
width = 364;
},
{
layerId = "38794FDE-96C3-45FE-89A8-4F68FD88490C";
shapes = (
{
closed = 1;
nodes = (
(74,-184,l),
(147,93,l),
(77,93,l),
(24,-184,l)
);
},
{
closed = 1;
nodes = (
(148,334,o),
(168,356,o),
(168,388,cs),
(168,420,o),
(148,442,o),
(121,442,cs),
(94,442,o),
(74,420,o),
(74,388,cs),
(74,356,o),
(94,334,o),
(121,334,cs)
);
}
);
width = 221;
},
{
layerId = "BD94C4B7-004C-4524-8669-6CB6D8067CD8";
shapes = (
{
closed = 1;
nodes = (
(139,-194,l),
(235,136,l),
(66,136,l),
(5,-194,l)
);
},
{
closed = 1;
nodes = (
(211,298,o),
(252,340,o),
(252,396,cs),
(252,452,o),
(211,494,o),
(157,494,cs),
(103,494,o),
(62,452,o),
(62,396,cs),
(62,340,o),
(103,298,o),
(157,298,cs)
);
}
);
width = 270;
},
{
layerId = "B4464F9C-2DA6-418A-B3C4-1470167D4EB6";
metricLeft = "=comma";
metricRight = "=period";
shapes = (
{
closed = 1;
nodes = (
(99,-184,l),
(203,95,l),
(120,95,l),
(45,-184,l)
);
},
{
closed = 1;
nodes = (
(208,328,o),
(235,352,o),
(235,386,cs),
(235,420,o),
(208,444,o),
(173,444,cs),
(138,444,o),
(111,420,o),
(111,386,cs),
(111,352,o),
(138,328,o),
(173,328,cs)
);
}
);
width = 310;
},
{
background = {
shapes = (
{
closed = 1;
nodes = (
(179,-199,l),
(338,157,l),
(110,157,l),
(5,-199,l)
);
},
{
closed = 1;
nodes = (
(318,282,o),
(374,336,o),
(374,401,cs),
(374,465,o),
(318,519,o),
(238,519,cs),
(159,519,o),
(103,466,o),
(103,401,cs),
(103,337,o),
(159,282,o),
(238,282,cs)
);
}
);
};
layerId = "9C3D73EE-3D01-4F34-8F18-5001540A34C7";
shapes = (
{
closed = 1;
nodes = (
(181,-200,l),
(340,157,l),
(110,157,l),
(5,-200,l)
);
},
{
closed = 1;
nodes = (
(318,283,o),
(372,335,o),
(372,401,cs),
(372,467,o),
(318,519,o),
(238,519,cs),
(159,519,o),
(104,467,o),
(104,401,cs),
(104,335,o),
(159,283,o),
(238,283,cs)
);
}
);
width = 417;
}
);
note = semicolon;
unicode = 59;
userData = {
KernOnSpecialSpacing = {
L = period;
R = period;
};
};
}
{
glyphname = less;
layers = (
{
layerId = m008;
shapes = (
{
closed = 1;
nodes = (
(517,469,l),
(517,537,l),
(83,316,l),
(83,239,l),
(517,18,l),
(517,86,l),
(111,289,l),
(111,265,l)
);
}
);
width = 600;
},
{
layerId = "E0044746-7B1A-4AF1-A08A-EDFF47B9B447";
shapes = (
{
closed = 1;
nodes = (
(527,469,l),
(527,537,l),
(93,316,l),
(93,239,l),
(527,18,l),
(527,86,l),
(121,289,l),
(121,265,l)
);
}
);
width = 620;
},
{
layerId = "EAEE501F-808F-4F80-A534-C44A55AE9CF1";
shapes = (
{
closed = 1;
nodes = (
(561,393,l),
(561,552,l),
(99,352,l),
(99,203,l),
(561,3,l),
(561,162,l),
(164,321,l),
(164,234,l)
);
}
);
width = 660;
},
{
layerId = "D0F786FD-D799-4DD4-8218-8DF09CBA4779";
shapes = (
{
closed = 1;
nodes = (
(571,393,l),
(571,552,l),
(109,352,l),
(109,203,l),
(571,3,l),
(571,162,l),
(174,321,l),
(174,234,l)
);
}
);
width = 680;
},
{
layerId = "38794FDE-96C3-45FE-89A8-4F68FD88490C";
shapes = (
{
closed = 1;
nodes = (
(400,476,l),
(400,534,l),
(54,314,l),
(54,240,l),
(400,20,l),
(400,78,l),
(67,294,l),
(67,260,l)
);
}
);
width = 454;
},
{
layerId = "BD94C4B7-004C-4524-8669-6CB6D8067CD8";
shapes = (
{
closed = 1;
nodes = (
(461,401,l),
(461,550,l),
(80,348,l),
(80,207,l),
(461,5,l),
(461,154,l),
(144,318,l),
(144,236,l)
);
}
);
width = 540;
},
{
layerId = "B4464F9C-2DA6-418A-B3C4-1470167D4EB6";
shapes = (
{
closed = 1;
nodes = (
(765,469,l),
(765,537,l),
(95,316,l),
(95,239,l),
(765,18,l),
(765,86,l),
(127,291,l),
(127,264,l)
);
}
);
width = 860;
},
{
background = {
shapes = (
{
closed = 1;
nodes = (
(801,367,l),
(801,557,l),
(120,365,l),
(120,190,l),
(801,-2,l),
(801,188,l),
(201,332,l),
(201,223,l)
);
}
);
};
layerId = "9C3D73EE-3D01-4F34-8F18-5001540A34C7";
shapes = (
{
closed = 1;
nodes = (
(800,374,l),
(800,552,l),
(120,362,l),
(120,183,l),
(800,-7,l),
(800,171,l),
(185,319,l),
(185,226,l)
);
}
);
width = 920;
}
);
metricWidth = zero.tf;
note = less;
unicode = 60;
userData = {
KernOnSpecialSpacing = {
L = NoKerning;
R = NoKerning;
};
};
}
{
glyphname = equal;
layers = (
{
layerId = m008;
shapes = (
{
closed = 1;
nodes = (
(83,411,l),
(83,352,l),
(517,352,l),
(517,411,l)
);
},
{
closed = 1;
nodes = (
(83,191,l),
(83,132,l),
(517,132,l),
(517,191,l)
);
}
);
width = 600;
},
{
layerId = "E0044746-7B1A-4AF1-A08A-EDFF47B9B447";
shapes = (
{
closed = 1;
nodes = (
(93,411,l),
(93,352,l),
(527,352,l),
(527,411,l)
);
},
{
closed = 1;
nodes = (
(93,191,l),
(93,132,l),
(527,132,l),
(527,191,l)
);
}
);
width = 620;
},
{
layerId = "EAEE501F-808F-4F80-A534-C44A55AE9CF1";
shapes = (
{
closed = 1;
nodes = (
(99,451,l),
(99,312,l),
(561,312,l),
(561,451,l)
);
},
{
closed = 1;
nodes = (
(99,231,l),
(99,92,l),
(561,92,l),
(561,231,l)
);
}
);
width = 660;
},
{
layerId = "D0F786FD-D799-4DD4-8218-8DF09CBA4779";
shapes = (
{
closed = 1;
nodes = (
(109,451,l),
(109,312,l),
(571,312,l),
(571,451,l)
);
},
{
closed = 1;
nodes = (
(109,231,l),
(109,92,l),
(571,92,l),
(571,231,l)
);
}
);
width = 680;
},
{
layerId = "38794FDE-96C3-45FE-89A8-4F68FD88490C";
shapes = (
{
closed = 1;
nodes = (
(54,409,l),
(54,355,l),
(400,355,l),
(400,409,l)
);
},
{
closed = 1;
nodes = (
(54,188,l),
(54,134,l),
(400,134,l),
(400,188,l)
);
}
);
width = 454;
},
{
layerId = "BD94C4B7-004C-4524-8669-6CB6D8067CD8";
shapes = (
{
closed = 1;
nodes = (
(80,447,l),
(80,316,l),
(461,316,l),
(461,447,l)
);
},
{
closed = 1;
nodes = (
(80,227,l),
(80,96,l),
(461,96,l),
(461,227,l)
);
}
);
width = 540;
},
{
layerId = "B4464F9C-2DA6-418A-B3C4-1470167D4EB6";
shapes = (
{
closed = 1;
nodes = (
(95,410,l),
(95,353,l),
(765,353,l),
(765,410,l)
);
},
{
closed = 1;
nodes = (
(95,190,l),
(95,133,l),
(765,133,l),
(765,190,l)
);
}
);
width = 860;
},
{
background = {
shapes = (
{
closed = 1;
nodes = (
(120,465,l),
(120,298,l),
(801,298,l),
(801,465,l)
);
},
{
closed = 1;
nodes = (
(120,245,l),
(120,78,l),
(801,78,l),
(801,245,l)
);
}
);
};
layerId = "9C3D73EE-3D01-4F34-8F18-5001540A34C7";
shapes = (
{
closed = 1;
nodes = (
(120,475,l),
(120,315,l),
(800,315,l),
(800,475,l)
);
},
{
closed = 1;
nodes = (
(120,240,l),
(120,80,l),
(800,80,l),
(800,240,l)
);
}
);
width = 920;
}
);
metricWidth = zero.tf;
unicode = 61;
userData = {
KernOnSpecialSpacing = {
L = NoKerning;
R = NoKerning;
};
};
}
{
glyphname = greater;
layers = (
{
layerId = m008;
shapes = (
{
closed = 1;
nodes = (
(490,289,l),
(83,86,l),
(83,18,l),
(517,239,l),
(517,316,l),
(83,537,l),
(83,469,l),
(490,265,l)
);
}
);
width = 600;
},
{
layerId = "E0044746-7B1A-4AF1-A08A-EDFF47B9B447";
shapes = (
{
closed = 1;
nodes = (
(500,289,l),
(93,86,l),
(93,18,l),
(527,239,l),
(527,316,l),
(93,537,l),
(93,469,l),
(500,265,l)
);
}
);
width = 620;
},
{
layerId = "EAEE501F-808F-4F80-A534-C44A55AE9CF1";
shapes = (
{
closed = 1;
nodes = (
(496,321,l),
(99,162,l),
(99,3,l),
(561,203,l),
(561,352,l),
(99,552,l),
(99,393,l),
(496,234,l)
);
}
);
width = 660;
},
{
layerId = "D0F786FD-D799-4DD4-8218-8DF09CBA4779";
shapes = (
{
closed = 1;
nodes = (
(506,321,l),
(109,162,l),
(109,3,l),
(571,203,l),
(571,352,l),
(109,552,l),
(109,393,l),
(506,234,l)
);
}
);
width = 680;
},
{
layerId = "38794FDE-96C3-45FE-89A8-4F68FD88490C";
shapes = (
{
closed = 1;
nodes = (
(387,294,l),
(54,78,l),
(54,20,l),
(400,240,l),
(400,314,l),
(54,534,l),
(54,476,l),
(387,260,l)
);
}
);
width = 454;
},
{
layerId = "BD94C4B7-004C-4524-8669-6CB6D8067CD8";
shapes = (
{
closed = 1;
nodes = (
(397,318,l),
(80,154,l),
(80,5,l),
(461,207,l),
(461,348,l),
(80,550,l),
(80,401,l),
(397,236,l)
);
}
);
width = 540;
},
{
layerId = "B4464F9C-2DA6-418A-B3C4-1470167D4EB6";
shapes = (
{
closed = 1;
nodes = (
(733,291,l),
(95,86,l),
(95,18,l),
(765,239,l),
(765,316,l),
(95,537,l),
(95,469,l),
(733,264,l)
);
}
);
width = 860;
},
{
background = {
shapes = (
{
closed = 1;
nodes = (
(720,332,l),
(120,188,l),
(120,-2,l),
(801,190,l),
(801,365,l),
(120,557,l),
(120,367,l),
(720,223,l)
);
}
);
};
layerId = "9C3D73EE-3D01-4F34-8F18-5001540A34C7";
shapes = (
{
closed = 1;
nodes = (
(735,319,l),
(120,171,l),
(120,-7,l),
(800,183,l),
(800,362,l),
(120,552,l),
(120,374,l),
(735,226,l)
);
}
);
width = 920;
}
);
metricWidth = zero.tf;
note = greater;
unicode = 62;
userData = {
KernOnSpecialSpacing = {
L = NoKerning;
R = NoKerning;
};
};
}
{
glyphname = question;
kernLeft = KO_question;
kernRight = KO_question;
layers = (
{
layerId = m008;
shapes = (
{
closed = 1;
nodes = (
(272,208,l),
(272,364,l),
(240,327,l),
(272,330,ls),
(392,341,o),
(476,422,o),
(476,523,cs),
(476,644,o),
(388,722,o),
(256,722,cs),
(132,722,o),
(44,663,o),
(20,541,c),
(85,527,l),
(106,621,o),
(166,662,o),
(253,662,cs),
(344,662,o),
(402,608,o),
(402,523,cs),
(402,446,o),
(348,395,o),
(255,384,cs),
(204,378,l),
(204,208,l)
);
},
{
closed = 1;
nodes = (
(270,-5,o),
(296,22,o),
(296,55,cs),
(296,88,o),
(270,115,o),
(236,115,cs),
(204,115,o),
(177,88,o),
(177,55,cs),
(177,22,o),
(204,-5,o),
(236,-5,cs)
);
}
);
width = 511;
},
{
layerId = "E0044746-7B1A-4AF1-A08A-EDFF47B9B447";
shapes = (
{
closed = 1;
nodes = (
(295,208,l),
(295,364,l),
(263,327,l),
(295,330,ls),
(415,341,o),
(499,422,o),
(499,523,cs),
(499,644,o),
(411,722,o),
(279,722,cs),
(155,722,o),
(67,663,o),
(43,541,c),
(108,527,l),
(129,621,o),
(189,662,o),
(276,662,cs),
(367,662,o),
(425,608,o),
(425,523,cs),
(425,446,o),
(371,395,o),
(278,384,cs),
(227,378,l),
(227,208,l)
);
},
{
closed = 1;
nodes = (
(293,-5,o),
(319,22,o),
(319,55,cs),
(319,88,o),
(293,115,o),
(259,115,cs),
(227,115,o),
(200,88,o),
(200,55,cs),
(200,22,o),
(227,-5,o),
(259,-5,cs)
);
}
);
width = 559;
},
{
layerId = "EAEE501F-808F-4F80-A534-C44A55AE9CF1";
shapes = (
{
closed = 1;
nodes = (
(378,246,l),
(378,321,l),
(340,298,l),
(377,306,ls),
(498,334,o),
(559,401,o),
(559,505,cs),
(559,636,o),
(454,721,o),
(295,721,cs),
(136,721,o),
(30,643,o),
(16,519,c),
(190,490,l),
(197,546,o),
(229,576,o),
(281,576,cs),
(333,576,o),
(363,547,o),
(363,499,cs),
(363,451,o),
(321,419,o),
(256,418,cs),
(198,417,l),
(198,246,l)
);
},
{
closed = 1;
nodes = (
(350,-5,o),
(396,41,o),
(396,102,cs),
(396,164,o),
(350,211,o),
(287,211,cs),
(223,211,o),
(177,164,o),
(177,102,cs),
(177,41,o),
(223,-5,o),
(287,-5,cs)
);
}
);
width = 589;
},
{
layerId = "D0F786FD-D799-4DD4-8218-8DF09CBA4779";
shapes = (
{
closed = 1;
nodes = (
(393,245,l),
(393,321,l),
(355,298,l),
(392,306,ls),
(513,334,o),
(574,401,o),
(574,505,cs),
(574,636,o),
(469,721,o),
(310,721,cs),
(152,721,o),
(45,647,o),
(31,528,c),
(206,499,l),
(213,549,o),
(245,576,o),
(296,576,cs),
(348,576,o),
(378,547,o),
(378,499,cs),
(378,451,o),
(336,419,o),
(271,418,cs),
(213,417,l),
(213,245,l)
);
},
{
closed = 1;
nodes = (
(362,-6,o),
(408,39,o),
(408,98,cs),
(408,158,o),
(362,202,o),
(302,202,cs),
(241,202,o),
(196,158,o),
(196,98,cs),
(196,39,o),
(241,-6,o),
(302,-6,cs)
);
}
);
width = 620;
},
{
layerId = "38794FDE-96C3-45FE-89A8-4F68FD88490C";
shapes = (
{
closed = 1;
nodes = (
(215,206,l),
(215,366,l),
(190,332,l),
(216,339,ls),
(308,366,o),
(366,442,o),
(366,534,cs),
(366,645,o),
(297,722,o),
(197,722,cs),
(95,722,o),
(31,658,o),
(15,542,c),
(68,529,l),
(89,622,o),
(130,667,o),
(194,667,cs),
(256,667,o),
(300,612,o),
(300,534,cs),
(300,456,o),
(259,406,o),
(175,382,cs),
(153,376,l),
(153,206,l)
);
},
{
closed = 1;
nodes = (
(211,-5,o),
(232,20,o),
(232,53,cs),
(232,86,o),
(211,111,o),
(182,111,cs),
(154,111,o),
(133,86,o),
(133,53,cs),
(133,20,o),
(154,-5,o),
(182,-5,cs)
);
}
);
width = 392;
},
{
background = {
shapes = (
{
closed = 1;
nodes = (
(331,242,l),
(331,325,l),
(299,303,l),
(332,312,ls),
(429,338,o),
(476,402,o),
(476,508,cs),
(476,637,o),
(387,721,o),
(250,721,cs),
(114,721,o),
(23,644,o),
(12,521,c),
(167,494,l),
(179,555,o),
(203,585,o),
(241,585,cs),
(274,585,o),
(292,557,o),
(292,503,cs),
(292,447,o),
(263,417,o),
(206,414,cs),
(162,412,l),
(162,242,l)
);
},
{
closed = 1;
nodes = (
(302,-5,o),
(345,39,o),
(345,98,cs),
(345,157,o),
(302,201,o),
(245,201,cs),
(188,201,o),
(145,157,o),
(145,98,cs),
(145,39,o),
(188,-5,o),
(245,-5,cs)
);
}
);
};
layerId = "BD94C4B7-004C-4524-8669-6CB6D8067CD8";
shapes = (
{
closed = 1;
nodes = (
(331,242,l),
(331,325,l),
(299,303,l),
(332,312,ls),
(429,338,o),
(476,402,o),
(476,508,cs),
(476,643,o),
(394,721,o),
(253,721,cs),
(116,721,o),
(23,643,o),
(12,521,c),
(165,494,l),
(177,554,o),
(203,585,o),
(241,585,cs),
(277,585,o),
(296,560,o),
(296,513,cs),
(296,450,o),
(266,417,o),
(206,414,cs),
(162,412,l),
(162,242,l)
);
},
{
closed = 1;
nodes = (
(302,-5,o),
(345,39,o),
(345,98,cs),
(345,157,o),
(302,201,o),
(245,201,cs),
(188,201,o),
(145,157,o),
(145,98,cs),
(145,39,o),
(188,-5,o),
(245,-5,cs)
);
}
);
width = 500;
},
{
layerId = "B4464F9C-2DA6-418A-B3C4-1470167D4EB6";
shapes = (
{
closed = 1;
nodes = (
(363,208,l),
(363,360,l),
(317,321,l),
(430,335,ls),
(596,356,o),
(679,419,o),
(679,524,cs),
(679,649,o),
(565,722,o),
(372,722,cs),
(187,722,o),
(57,655,o),
(20,541,c),
(84,523,l),
(118,612,o),
(221,662,o),
(370,662,cs),
(522,662,o),
(607,613,o),
(607,524,cs),
(607,449,o),
(549,405,o),
(433,391,cs),
(293,374,l),
(293,208,l)
);
},
{
closed = 1;
nodes = (
(366,-5,o),
(392,18,o),
(392,53,cs),
(392,89,o),
(365,115,o),
(328,115,cs),
(291,115,o),
(264,89,o),
(264,53,cs),
(264,18,o),
(290,-5,o),
(328,-5,cs)
);
}
);
width = 714;
},
{
background = {
shapes = (
{
closed = 1;
nodes = (
(511,265,l),
(511,356,l),
(457,308,l),
(540,318,ls),
(727,340,o),
(793,396,o),
(793,499,cs),
(793,632,o),
(653,721,o),
(416,721,cs),
(191,721,o),
(41,634,o),
(16,511,c),
(230,477,l),
(246,523,o),
(305,556,o),
(416,556,cs),
(494,556,o),
(552,532,o),
(552,491,cs),
(552,444,o),
(494,421,o),
(374,421,cs),
(291,421,l),
(291,265,l)
);
},
{
closed = 1;
nodes = (
(477,-10,o),
(537,42,o),
(537,112,cs),
(537,182,o),
(477,234,o),
(399,234,cs),
(321,234,o),
(261,182,o),
(261,112,cs),
(261,42,o),
(321,-10,o),
(399,-10,cs)
);
}
);
};
layerId = "9C3D73EE-3D01-4F34-8F18-5001540A34C7";
shapes = (
{
closed = 1;
nodes = (
(511,265,l),
(511,356,l),
(457,306,l),
(540,316,ls),
(713,336,o),
(793,397,o),
(793,509,cs),
(793,642,o),
(652,721,o),
(416,721,cs),
(199,721,o),
(42,639,o),
(16,511,c),
(230,477,l),
(248,529,o),
(314,558,o),
(416,558,cs),
(498,558,o),
(552,531,o),
(552,491,cs),
(552,450,o),
(516,435,o),
(404,428,cs),
(291,421,l),
(291,265,l)
);
},
{
closed = 1;
nodes = (
(478,-10,o),
(537,43,o),
(537,112,cs),
(537,181,o),
(478,234,o),
(399,234,cs),
(320,234,o),
(261,181,o),
(261,112,cs),
(261,43,o),
(320,-10,o),
(399,-10,cs)
);
}
);
width = 823;
}
);
note = question;
unicode = 63;
userData = {
KernOnSpecialSpacing = {
L = symbols;
R = symbols;
};
};
}
{
glyphname = at;
kernLeft = KO_at;
kernRight = KO_at;
layers = (
{
guides = (
{
angle = 270;
pos = (599,445);
}
);
layerId = m008;
name = "TikTok Display Light";
shapes = (
{
closed = 1;
nodes = (
(723,-153,l),
(723,-93,l),
(488,-93,ls),
(257,-93,o),
(112,50,o),
(112,279,cs),
(112,493,o),
(261,637,o),
(479,637,cs),
(684,637,o),
(827,514,o),
(827,305,cs),
(827,207,o),
(791,123,o),
(720,123,cs),
(682,123,o),
(656,138,o),
(656,185,cs),
(656,461,l),
(594,461,l),
(594,357,l),
(605,372,l),
(583,434,o),
(527,470,o),
(451,470,cs),
(337,470,o),
(261,389,o),
(261,267,cs),
(261,144,o),
(337,63,o),
(453,63,cs),
(526,63,o),
(582,97,o),
(605,154,c),
(594,164,l),
(594,94,o),
(643,66,o),
(713,66,cs),
(836,66,o),
(894,178,o),
(894,309,cs),
(894,547,o),
(722,693,o),
(476,693,cs),
(219,693,o),
(45,527,o),
(45,279,cs),
(45,17,o),
(215,-153,o),
(483,-153,cs)
);
},
{
closed = 1;
nodes = (
(379,118,o),
(326,176,o),
(326,267,cs),
(326,358,o),
(379,416,o),
(462,416,cs),
(545,416,o),
(598,358,o),
(598,267,cs),
(598,176,o),
(545,118,o),
(462,118,cs)
);
}
);
width = 939;
},
{
guides = (
{
angle = 270;
pos = (604,445);
}
);
layerId = "E0044746-7B1A-4AF1-A08A-EDFF47B9B447";
name = "TikTok Display Light";
shapes = (
{
closed = 1;
nodes = (
(736,-154,l),
(736,-94,l),
(501,-94,ls),
(270,-94,o),
(125,42,o),
(125,258,cs),
(125,484,o),
(274,636,o),
(492,636,cs),
(697,636,o),
(840,513,o),
(840,304,cs),
(840,206,o),
(804,122,o),
(733,122,cs),
(695,122,o),
(669,137,o),
(669,184,cs),
(669,460,l),
(607,460,l),
(607,356,l),
(618,371,l),
(596,433,o),
(540,469,o),
(464,469,cs),
(350,469,o),
(274,388,o),
(274,266,cs),
(274,143,o),
(350,62,o),
(466,62,cs),
(539,62,o),
(595,96,o),
(618,153,c),
(607,163,l),
(607,93,o),
(656,65,o),
(726,65,cs),
(849,65,o),
(907,177,o),
(907,308,cs),
(907,546,o),
(735,692,o),
(489,692,cs),
(232,692,o),
(58,518,o),
(58,258,cs),
(58,8,o),
(228,-154,o),
(496,-154,cs)
);
},
{
closed = 1;
nodes = (
(392,117,o),
(339,175,o),
(339,266,cs),
(339,357,o),
(392,415,o),
(475,415,cs),
(558,415,o),
(611,357,o),
(611,266,cs),
(611,175,o),
(558,117,o),
(475,117,cs)
);
}
);
width = 965;
},
{
layerId = "EAEE501F-808F-4F80-A534-C44A55AE9CF1";
name = "TikTok Display Light";
shapes = (
{
closed = 1;
nodes = (
(719,-163,l),
(719,-37,l),
(497,-37,ls),
(294,-37,o),
(167,78,o),
(167,266,cs),
(167,452,o),
(296,577,o),
(485,577,cs),
(668,577,o),
(781,470,o),
(781,308,cs),
(781,229,o),
(754,171,o),
(716,171,cs),
(697,171,o),
(682,185,o),
(682,205,cs),
(682,470,l),
(542,470,l),
(542,363,l),
(561,384,l),
(550,442,o),
(498,479,o),
(428,479,cs),
(319,479,o),
(243,392,o),
(243,268,cs),
(243,142,o),
(320,55,o),
(431,55,cs),
(508,55,o),
(558,91,o),
(577,159,c),
(558,159,l),
(565,88,o),
(618,48,o),
(701,48,cs),
(839,48,o),
(922,149,o),
(922,310,cs),
(922,545,o),
(751,701,o),
(481,701,cs),
(209,701,o),
(27,525,o),
(27,263,cs),
(27,4,o),
(209,-163,o),
(488,-163,cs)
);
},
{
closed = 1;
nodes = (
(419,172,o),
(389,208,o),
(389,267,cs),
(389,327,o),
(419,362,o),
(469,362,cs),
(520,362,o),
(550,327,o),
(550,267,cs),
(550,208,o),
(520,172,o),
(469,172,cs)
);
}
);
width = 949;
},
{
layerId = "D0F786FD-D799-4DD4-8218-8DF09CBA4779";
name = "TikTok Display Light";
shapes = (
{
closed = 1;
nodes = (
(739,-154,l),
(739,-28,l),
(517,-28,ls),
(313,-28,o),
(187,86,o),
(187,274,cs),
(187,460,o),
(316,586,o),
(505,586,cs),
(688,586,o),
(801,479,o),
(801,317,cs),
(801,238,o),
(774,180,o),
(736,180,cs),
(716,180,o),
(701,194,o),
(701,214,cs),
(701,479,l),
(562,479,l),
(562,373,l),
(580,393,l),
(569,451,o),
(518,488,o),
(448,488,cs),
(338,488,o),
(262,401,o),
(262,277,cs),
(262,151,o),
(340,64,o),
(451,64,cs),
(527,64,o),
(578,100,o),
(597,168,c),
(578,169,l),
(585,98,o),
(638,57,o),
(721,57,cs),
(858,57,o),
(941,158,o),
(941,319,cs),
(941,554,o),
(770,710,o),
(500,710,cs),
(228,710,o),
(46,534,o),
(46,271,cs),
(46,13,o),
(228,-154,o),
(507,-154,cs)
);
},
{
closed = 1;
nodes = (
(438,181,o),
(408,217,o),
(408,276,cs),
(408,336,o),
(438,371,o),
(489,371,cs),
(540,371,o),
(570,336,o),
(570,276,cs),
(570,217,o),
(540,181,o),
(489,181,cs)
);
}
);
width = 987;
},
{
guides = (
{
angle = 270;
pos = (595,445);
}
);
layerId = "38794FDE-96C3-45FE-89A8-4F68FD88490C";
name = "TikTok Display Light";
shapes = (
{
closed = 1;
nodes = (
(538,-153,l),
(538,-97,l),
(433,-97,ls),
(195,-97,o),
(88,50,o),
(88,270,cs),
(88,495,o),
(206,639,o),
(356,639,cs),
(508,639,o),
(613,515,o),
(613,305,cs),
(613,197,o),
(585,121,o),
(535,121,cs),
(508,121,o),
(491,137,o),
(491,184,cs),
(491,461,l),
(436,461,l),
(436,357,l),
(448,371,l),
(433,433,o),
(389,470,o),
(332,470,cs),
(247,470,o),
(190,389,o),
(190,267,cs),
(190,144,o),
(247,63,o),
(334,63,cs),
(389,63,o),
(430,97,o),
(447,154,c),
(438,164,l),
(439,95,o),
(485,67,o),
(529,67,cs),
(622,67,o),
(669,169,o),
(669,309,cs),
(669,547,o),
(540,693,o),
(353,693,cs),
(168,693,o),
(32,527,o),
(32,270,cs),
(32,17,o),
(160,-153,o),
(429,-153,cs)
);
},
{
closed = 1;
nodes = (
(284,116,o),
(247,176,o),
(247,267,cs),
(247,358,o),
(284,418,o),
(343,418,cs),
(402,418,o),
(440,360,o),
(440,267,cs),
(440,174,o),
(402,116,o),
(343,116,cs)
);
}
);
width = 701;
},
{
layerId = "BD94C4B7-004C-4524-8669-6CB6D8067CD8";
name = "TikTok Display Light";
shapes = (
{
closed = 1;
nodes = (
(600,-162,l),
(600,-43,l),
(429,-43,ls),
(241,-43,o),
(140,65,o),
(140,266,cs),
(140,461,o),
(243,583,o),
(409,583,cs),
(564,583,o),
(654,482,o),
(654,308,cs),
(654,225,o),
(632,166,o),
(602,166,cs),
(584,166,o),
(575,179,o),
(575,203,cs),
(575,469,l),
(445,469,l),
(445,362,l),
(461,383,l),
(454,441,o),
(413,478,o),
(357,478,cs),
(268,478,o),
(205,391,o),
(205,268,cs),
(205,143,o),
(268,56,o),
(359,56,cs),
(422,56,o),
(463,91,o),
(478,159,c),
(461,159,l),
(468,93,o),
(516,50,o),
(584,50,cs),
(707,50,o),
(785,151,o),
(785,310,cs),
(785,552,o),
(642,700,o),
(406,700,cs),
(164,700,o),
(10,531,o),
(10,264,cs),
(10,-6,o),
(161,-162,o),
(421,-162,cs)
);
},
{
closed = 1;
nodes = (
(361,167,o),
(340,205,o),
(340,267,cs),
(340,329,o),
(361,367,o),
(396,367,cs),
(432,367,o),
(452,331,o),
(452,267,cs),
(452,204,o),
(431,167,o),
(396,167,cs)
);
}
);
width = 795;
},
{
guides = (
{
angle = 270;
pos = (558,445);
}
);
layerId = "B4464F9C-2DA6-418A-B3C4-1470167D4EB6";
name = "TikTok Display Light";
shapes = (
{
closed = 1;
nodes = (
(993,-153,l),
(993,-93,l),
(678,-93,ls),
(311,-93,o),
(112,31,o),
(112,259,cs),
(112,496,o),
(320,637,o),
(669,637,cs),
(995,637,o),
(1207,506,o),
(1207,305,cs),
(1207,190,o),
(1142,123,o),
(1030,123,cs),
(958,123,o),
(926,151,o),
(926,215,cs),
(926,461,l),
(864,461,l),
(864,357,l),
(875,367,l),
(848,430,o),
(757,470,o),
(641,470,cs),
(478,470,o),
(371,389,o),
(371,267,cs),
(371,146,o),
(482,63,o),
(643,63,cs),
(754,63,o),
(846,103,o),
(875,164,c),
(864,174,l),
(864,106,o),
(923,66,o),
(1023,66,cs),
(1177,66,o),
(1274,159,o),
(1274,309,cs),
(1274,543,o),
(1036,693,o),
(666,693,cs),
(282,693,o),
(45,528,o),
(45,259,cs),
(45,-3,o),
(273,-153,o),
(673,-153,cs)
);
},
{
closed = 1;
nodes = (
(520,118,o),
(436,176,o),
(436,267,cs),
(436,358,o),
(520,416,o),
(652,416,cs),
(784,416,o),
(868,358,o),
(868,267,cs),
(868,176,o),
(784,118,o),
(652,118,cs)
);
}
);
width = 1319;
},
{
background = {
shapes = (
{
closed = 1;
nodes = (
(1039,-162,l),
(1039,-18,l),
(680,-18,ls),
(370,-18,o),
(207,78,o),
(207,261,cs),
(207,443,o),
(392,557,o),
(688,557,cs),
(969,557,o),
(1150,460,o),
(1150,308,cs),
(1150,229,o),
(1118,188,o),
(1054,188,cs),
(994,188,o),
(970,215,o),
(970,282,cs),
(970,473,l),
(794,473,l),
(794,365,l),
(819,388,l),
(797,446,o),
(722,482,o),
(621,482,cs),
(464,482,o),
(351,392,o),
(351,268,cs),
(351,143,o),
(466,52,o),
(625,52,cs),
(735,52,o),
(806,88,o),
(836,161,c),
(821,161,l),
(828,90,o),
(913,42,o),
(1043,42,cs),
(1219,42,o),
(1330,145,o),
(1330,310,cs),
(1330,548,o),
(1079,701,o),
(688,701,cs),
(287,701,o),
(27,527,o),
(27,257,cs),
(27,-9,o),
(262,-162,o),
(669,-162,cs)
);
},
{
closed = 1;
nodes = (
(588,184,o),
(535,217,o),
(535,267,cs),
(535,317,o),
(588,350,o),
(669,350,cs),
(753,350,o),
(805,318,o),
(805,267,cs),
(805,217,o),
(751,184,o),
(669,184,cs)
);
}
);
};
layerId = "9C3D73EE-3D01-4F34-8F18-5001540A34C7";
name = "TikTok Display Light";
shapes = (
{
closed = 1;
nodes = (
(1039,-162,l),
(1039,-18,l),
(680,-18,ls),
(370,-18,o),
(207,78,o),
(207,261,cs),
(207,443,o),
(392,557,o),
(688,557,cs),
(970,557,o),
(1150,460,o),
(1150,308,cs),
(1150,229,o),
(1118,188,o),
(1054,188,cs),
(994,188,o),
(970,215,o),
(970,282,cs),
(970,473,l),
(794,473,l),
(794,365,l),
(819,388,l),
(797,446,o),
(722,482,o),
(621,482,cs),
(464,482,o),
(351,392,o),
(351,268,cs),
(351,143,o),
(466,52,o),
(625,52,cs),
(736,52,o),
(806,88,o),
(836,161,c),
(821,161,l),
(828,89,o),
(915,42,o),
(1043,42,cs),
(1219,42,o),
(1330,145,o),
(1330,310,cs),
(1330,548,o),
(1079,701,o),
(688,701,cs),
(287,701,o),
(27,527,o),
(27,257,cs),
(27,-9,o),
(262,-162,o),
(669,-162,cs)
);
},
{
closed = 1;
nodes = (
(588,184,o),
(535,217,o),
(535,267,cs),
(535,317,o),
(588,350,o),
(669,350,cs),
(753,350,o),
(805,318,o),
(805,267,cs),
(805,217,o),
(751,184,o),
(669,184,cs)
);
}
);
width = 1357;
}
);
note = at;
unicode = 64;
userData = {
KernOnName = at;
KernOnSpecialSpacing = {
L = symbols;
R = symbols;
};
};
}
{
glyphname = A;
kernLeft = KO_A;
kernRight = KO_A;
layers = (
{
anchors = (
{
name = bottom;
pos = (314,0);
},
{
name = ogonek;
pos = (618,0);
},
{
name = top;
pos = (314,705);
},
{
name = topleft;
pos = (191,705);
}
);
layerId = m008;
shapes = (
{
closed = 1;
nodes = (
(84,0,l),
(314,685,l),
(314,685,l),
(544,0,l),
(618,0,l),
(375,705,l),
(253,705,l),
(10,0,l)
);
},
{
closed = 1;
nodes = (
(477,298,l),
(477,358,l),
(151,358,l),
(151,298,l)
);
}
);
width = 628;
},
{
anchors = (
{
name = bottom;
pos = (331,0);
},
{
name = ogonek;
pos = (635,0);
},
{
name = top;
pos = (331,705);
},
{
name = topleft;
pos = (191,705);
}
);
layerId = "E0044746-7B1A-4AF1-A08A-EDFF47B9B447";
shapes = (
{
closed = 1;
nodes = (
(101,0,l),
(329,668,l),
(333,668,l),
(561,0,l),
(635,0,l),
(387,705,l),
(275,705,l),
(27,0,l)
);
},
{
closed = 1;
nodes = (
(514,218,l),
(514,278,l),
(148,278,l),
(148,218,l)
);
}
);
width = 662;
},
{
anchors = (
{
name = bottom;
pos = (357,0);
},
{
name = ogonek;
pos = (704,0);
},
{
name = top;
pos = (357,705);
},
{
name = topleft;
pos = (151,705);
}
);
layerId = "EAEE501F-808F-4F80-A534-C44A55AE9CF1";
shapes = (
{
closed = 1;
nodes = (
(205,0,l),
(357,607,l),
(357,607,l),
(508,0,l),
(704,0,l),
(511,705,l),
(202,705,l),
(10,0,l)
);
},
{
closed = 1;
nodes = (
(520,181,l),
(520,333,l),
(193,333,l),
(193,181,l)
);
}
);
width = 714;
},
{
anchors = (
{
name = bottom;
pos = (368,0);
},
{
name = ogonek;
pos = (704,0);
},
{
name = top;
pos = (362,705);
},
{
name = topleft;
pos = (151,705);
}
);
layerId = "D0F786FD-D799-4DD4-8218-8DF09CBA4779";
shapes = (
{
closed = 1;
nodes = (
(209,0,l),
(359,595,l),
(366,595,l),
(515,0,l),
(704,0,l),
(490,705,l),
(234,705,l),
(20,0,l)
);
},
{
closed = 1;
nodes = (
(527,148,l),
(527,288,l),
(198,288,l),
(198,148,l)
);
}
);
width = 724;
},
{
anchors = (
{
name = bottom;
pos = (240,0);
},
{
name = ogonek;
pos = (472,0);
},
{
name = top;
pos = (240,705);
},
{
name = topleft;
pos = (138,705);
}
);
layerId = "38794FDE-96C3-45FE-89A8-4F68FD88490C";
shapes = (
{
closed = 1;
nodes = (
(72,0,l),
(240,686,l),
(240,686,l),
(408,0,l),
(472,0,l),
(296,705,l),
(184,705,l),
(8,0,l)
);
},
{
closed = 1;
nodes = (
(362,303,l),
(362,359,l),
(118,359,l),
(118,303,l)
);
}
);
width = 480;
},
{
anchors = (
{
name = bottom;
pos = (295,0);
},
{
name = ogonek;
pos = (584,0);
},
{
name = top;
pos = (295,705);
},
{
name = topleft;
pos = (110,705);
}
);
layerId = "BD94C4B7-004C-4524-8669-6CB6D8067CD8";
shapes = (
{
closed = 1;
nodes = (
(188,0,l),
(295,615,l),
(295,615,l),
(401,0,l),
(584,0,l),
(440,705,l),
(150,705,l),
(6,0,l)
);
},
{
closed = 1;
nodes = (
(430,191,l),
(430,333,l),
(160,333,l),
(160,191,l)
);
}
);
width = 590;
},
{
anchors = (
{
name = bottom;
pos = (455,0);
},
{
name = ogonek;
pos = (900,0);
},
{
name = top;
pos = (455,705);
},
{
name = topleft;
pos = (294,705);
}
);
layerId = "B4464F9C-2DA6-418A-B3C4-1470167D4EB6";
shapes = (
{
closed = 1;
nodes = (
(84,0,l),
(455,685,l),
(455,685,l),
(826,0,l),
(900,0,l),
(515,705,l),
(395,705,l),
(10,0,l)
);
},
{
closed = 1;
nodes = (
(689,298,l),
(689,358,l),
(221,358,l),
(221,298,l)
);
}
);
width = 910;
},
{
anchors = (
{
name = bottom;
pos = (514,0);
},
{
name = ogonek;
pos = (1016,0);
},
{
name = top;
pos = (513,705);
},
{
name = topleft;
pos = (262,705);
}
);
background = {
anchors = (
{
name = bottom;
pos = (514,0);
},
{
name = ogonek;
pos = (1016,0);
},
{
name = top;
pos = (514,705);
},
{
name = topleft;
pos = (262,705);
}
);
shapes = (
{
closed = 1;
nodes = (
(250,0,l),
(514,630,l),
(514,630,l),
(775,0,l),
(1016,0,l),
(704,705,l),
(322,705,l),
(10,0,l)
);
},
{
closed = 1;
nodes = (
(758,140,l),
(758,320,l),
(268,320,l),
(268,140,l)
);
}
);
};
layerId = "9C3D73EE-3D01-4F34-8F18-5001540A34C7";
shapes = (
{
closed = 1;
nodes = (
(250,0,l),
(514,630,l),
(514,630,l),
(775,0,l),
(1016,0,l),
(704,705,l),
(322,705,l),
(10,0,l)
);
},
{
closed = 1;
nodes = (
(758,140,l),
(758,320,l),
(268,320,l),
(268,140,l)
);
}
);
width = 1026;
}
);
note = A;
unicode = 65;
userData = {
KernOnName = A;
};
}
{
glyphname = B;
kernLeft = KO_H;
kernRight = KO_B;
layers = (
{
anchors = (
{
name = bottom;
pos = (288,0);
},
{
name = center;
pos = (298,353);
},
{
name = hook;
pos = (75,705);
},
{
name = top;
pos = (298,705);
}
);
layerId = m008;
shapes = (
{
closed = 1;
nodes = (
(317,0,ls),
(472,0,o),
(566,77,o),
(566,209,cs),
(566,308,o),
(495,384,o),
(385,394,c),
(385,394,l),
(460,413,o),
(493,465,o),
(493,536,cs),
(493,643,o),
(417,705,o),
(286,705,cs),
(75,705,l),
(75,0,l)
);
},
{
closed = 1;
nodes = (
(143,678,l),
(112,647,l),
(288,647,ls),
(369,647,o),
(423,608,o),
(423,528,cs),
(423,455,o),
(369,414,o),
(288,414,cs),
(119,414,l),
(119,356,l),
(305,356,ls),
(431,356,o),
(495,307,o),
(495,208,cs),
(495,107,o),
(433,58,o),
(315,58,cs),
(112,58,l),
(143,27,l)
);
}
);
width = 596;
},
{
anchors = (
{
name = bottom;
pos = (305,0);
},
{
name = center;
pos = (315,353);
},
{
name = hook;
pos = (82,705);
},
{
name = top;
pos = (315,705);
}
);
layerId = "E0044746-7B1A-4AF1-A08A-EDFF47B9B447";
shapes = (
{
closed = 1;
nodes = (
(334,0,ls),
(482,0,o),
(573,74,o),
(573,194,cs),
(573,305,o),
(498,364,o),
(402,374,c),
(402,378,l),
(487,389,o),
(540,450,o),
(540,529,cs),
(540,639,o),
(463,705,o),
(333,705,cs),
(82,705,l),
(82,0,l)
);
},
{
closed = 1;
nodes = (
(150,678,l),
(119,647,l),
(335,647,ls),
(420,647,o),
(470,603,o),
(470,526,cs),
(470,445,o),
(414,400,o),
(315,400,cs),
(136,400,l),
(136,342,l),
(330,342,ls),
(444,342,o),
(502,293,o),
(502,198,cs),
(502,104,o),
(446,58,o),
(332,58,cs),
(119,58,l),
(150,27,l)
);
}
);
width = 630;
},
{
anchors = (
{
name = bottom;
pos = (319,0);
},
{
name = center;
pos = (329,353);
},
{
name = hook;
pos = (52,705);
},
{
name = top;
pos = (329,705);
}
);
layerId = "EAEE501F-808F-4F80-A534-C44A55AE9CF1";
shapes = (
{
closed = 1;
nodes = (
(360,0,ls),
(540,0,o),
(637,83,o),
(637,214,cs),
(637,320,o),
(572,389,o),
(475,402,c),
(475,402,l),
(549,422,o),
(587,477,o),
(587,536,cs),
(587,641,o),
(515,705,o),
(359,705,cs),
(52,705,l),
(52,0,l)
);
},
{
closed = 1;
nodes = (
(241,655,l),
(156,570,l),
(328,570,ls),
(378,570,o),
(402,540,o),
(402,504,cs),
(402,469,o),
(378,439,o),
(328,439,cs),
(206,439,l),
(206,307,l),
(348,307,ls),
(407,307,o),
(443,279,o),
(443,226,cs),
(443,173,o),
(407,145,o),
(349,145,cs),
(156,145,l),
(241,60,l)
);
}
);
width = 658;
},
{
anchors = (
{
name = bottom;
pos = (341,0);
},
{
name = center;
pos = (351,353);
},
{
name = hook;
pos = (80,705);
},
{
name = top;
pos = (351,705);
}
);
layerId = "D0F786FD-D799-4DD4-8218-8DF09CBA4779";
shapes = (
{
closed = 1;
nodes = (
(385,0,ls),
(559,0,o),
(661,74,o),
(661,200,cs),
(661,304,o),
(590,364,o),
(474,370,c),
(474,377,l),
(565,384,o),
(629,449,o),
(629,532,cs),
(629,645,o),
(550,705,o),
(400,705,cs),
(80,705,l),
(80,0,l)
);
},
{
closed = 1;
nodes = (
(265,664,l),
(182,581,l),
(357,581,ls),
(415,581,o),
(448,550,o),
(448,498,cs),
(448,447,o),
(414,416,o),
(356,416,cs),
(249,416,l),
(249,303,l),
(366,303,ls),
(436,303,o),
(471,273,o),
(471,214,cs),
(471,155,o),
(436,124,o),
(366,124,cs),
(182,124,l),
(265,41,l)
);
}
);
width = 702;
},
{
anchors = (
{
name = bottom;
pos = (219,0);
},
{
name = center;
pos = (227,353);
},
{
name = hook;
pos = (54,705);
},
{
name = top;
pos = (227,705);
}
);
layerId = "38794FDE-96C3-45FE-89A8-4F68FD88490C";
shapes = (
{
closed = 1;
nodes = (
(230,0,ls),
(355,0,o),
(431,79,o),
(431,209,cs),
(431,312,o),
(382,379,o),
(298,394,c),
(298,394,l),
(351,412,o),
(379,461,o),
(379,536,cs),
(379,646,o),
(320,705,o),
(210,705,cs),
(54,705,l),
(54,0,l)
);
},
{
closed = 1;
nodes = (
(117,679,l),
(88,651,l),
(208,651,ls),
(277,651,o),
(315,607,o),
(315,529,cs),
(315,452,o),
(279,413,o),
(208,413,cs),
(98,413,l),
(98,359,l),
(221,359,ls),
(320,359,o),
(366,311,o),
(366,207,cs),
(366,104,o),
(321,54,o),
(228,54,cs),
(88,54,l),
(117,26,l)
);
}
);
width = 453;
},
{
anchors = (
{
name = bottom;
pos = (270,0);
},
{
name = center;
pos = (278,353);
},
{
name = hook;
pos = (38,705);
},
{
name = top;
pos = (278,705);
}
);
layerId = "BD94C4B7-004C-4524-8669-6CB6D8067CD8";
shapes = (
{
closed = 1;
nodes = (
(290,0,ls),
(454,0,o),
(542,75,o),
(542,214,cs),
(542,315,o),
(492,387,o),
(412,401,c),
(412,401,l),
(474,421,o),
(505,466,o),
(505,536,cs),
(505,650,o),
(436,705,o),
(295,705,cs),
(38,705,l),
(38,0,l)
);
},
{
closed = 1;
nodes = (
(217,657,l),
(137,578,l),
(263,578,ls),
(307,578,o),
(331,554,o),
(331,508,cs),
(331,462,o),
(308,438,o),
(263,438,cs),
(186,438,l),
(186,312,l),
(280,312,ls),
(331,312,o),
(359,281,o),
(359,224,cs),
(359,167,o),
(331,136,o),
(279,136,cs),
(137,136,l),
(217,57,l)
);
}
);
width = 557;
},
{
anchors = (
{
name = bottom;
pos = (379,0);
},
{
name = center;
pos = (394,353);
},
{
name = hook;
pos = (85,705);
},
{
name = top;
pos = (394,705);
}
);
layerId = "B4464F9C-2DA6-418A-B3C4-1470167D4EB6";
shapes = (
{
closed = 1;
nodes = (
(526,0,ls),
(706,0,o),
(804,69,o),
(804,208,cs),
(804,321,o),
(729,386,o),
(577,391,c),
(577,391,l),
(669,402,o),
(724,461,o),
(724,547,cs),
(724,651,o),
(643,705,o),
(486,705,cs),
(75,705,l),
(75,0,l)
);
},
{
closed = 1;
nodes = (
(143,678,l),
(112,647,l),
(486,647,ls),
(601,647,o),
(654,614,o),
(654,543,cs),
(654,466,o),
(591,414,o),
(496,414,cs),
(114,414,l),
(114,356,l),
(496,356,ls),
(660,356,o),
(734,305,o),
(734,207,cs),
(734,103,o),
(664,58,o),
(526,58,cs),
(112,58,l),
(143,27,l)
);
}
);
width = 834;
},
{
anchors = (
{
name = bottom;
pos = (449,0);
},
{
name = center;
pos = (464,353);
},
{
name = hook;
pos = (52,705);
},
{
name = top;
pos = (464,705);
}
);
background = {
anchors = (
{
name = bottom;
pos = (449,0);
},
{
name = center;
pos = (464,353);
},
{
name = hook;
pos = (52,705);
},
{
name = top;
pos = (464,705);
}
);
shapes = (
{
closed = 1;
nodes = (
(626,0,ls),
(817,0,o),
(929,79,o),
(929,214,cs),
(929,317,o),
(860,389,o),
(746,402,c),
(746,402,l),
(823,421,o),
(871,473,o),
(871,546,cs),
(871,646,o),
(791,705,o),
(640,705,cs),
(52,705,l),
(52,0,l)
);
},
{
closed = 1;
nodes = (
(283,655,l),
(159,552,l),
(569,552,ls),
(614,552,o),
(643,530,o),
(643,495,cs),
(643,460,o),
(614,438,o),
(569,438,cs),
(180,438,l),
(180,301,l),
(596,301,ls),
(657,301,o),
(691,276,o),
(691,233,cs),
(691,188,o),
(657,163,o),
(597,163,cs),
(159,163,l),
(283,60,l)
);
}
);
};
layerId = "9C3D73EE-3D01-4F34-8F18-5001540A34C7";
shapes = (
{
closed = 1;
nodes = (
(626,0,ls),
(817,0,o),
(929,79,o),
(929,214,cs),
(929,318,o),
(859,389,o),
(746,402,c),
(746,402,l),
(825,421,o),
(871,475,o),
(871,546,cs),
(871,648,o),
(788,705,o),
(640,705,cs),
(52,705,l),
(52,0,l)
);
},
{
closed = 1;
nodes = (
(283,655,l),
(159,552,l),
(569,552,ls),
(614,552,o),
(643,530,o),
(643,495,cs),
(643,460,o),
(614,438,o),
(569,438,cs),
(180,438,l),
(180,301,l),
(596,301,ls),
(657,301,o),
(691,276,o),
(691,233,cs),
(691,188,o),
(657,163,o),
(597,163,cs),
(159,163,l),
(283,60,l)
);
}
);
width = 950;
}
);
metricLeft = H;
note = B;
unicode = 66;
}
{
glyphname = C;
kernLeft = KO_O;
kernRight = KO_C;
layers = (
{
anchors = (
{
name = bottom;
pos = (392,0);
},
{
name = top;
pos = (381,705);
}
);
guides = (
{
angle = -152.1659;
pos = (628,542);
}
);
layerId = m008;
shapes = (
{
closed = 1;
nodes = (
(520,-17,o),
(617,50,o),
(665,183,c),
(600,206,l),
(564,99,o),
(490,45,o),
(375,45,cs),
(215,45,o),
(115,163,o),
(115,352,cs),
(115,542,o),
(214,659,o),
(373,659,cs),
(489,659,o),
(565,605,o),
(600,498,c),
(665,521,l),
(619,655,o),
(524,721,o),
(373,721,cs),
(177,721,o),
(45,578,o),
(45,352,cs),
(45,127,o),
(178,-17,o),
(375,-17,cs)
);
}
);
width = 700;
},
{
anchors = (
{
name = bottom;
pos = (376,0);
},
{
name = top;
pos = (373,705);
}
);
guides = (
{
angle = -152.1659;
pos = (603,542);
}
);
layerId = "E0044746-7B1A-4AF1-A08A-EDFF47B9B447";
shapes = (
{
closed = 1;
nodes = (
(503,-17,o),
(597,47,o),
(643,173,c),
(577,196,l),
(544,96,o),
(474,45,o),
(365,45,cs),
(219,45,o),
(128,163,o),
(128,352,cs),
(128,542,o),
(218,659,o),
(364,659,cs),
(474,659,o),
(544,608,o),
(578,508,c),
(643,531,l),
(599,658,o),
(507,721,o),
(364,721,cs),
(181,721,o),
(58,578,o),
(58,352,cs),
(58,127,o),
(182,-17,o),
(365,-17,cs)
);
}
);
width = 695;
},
{
anchors = (
{
name = bottom;
pos = (410,0);
},
{
name = top;
pos = (398,705);
}
);
layerId = "EAEE501F-808F-4F80-A534-C44A55AE9CF1";
shapes = (
{
closed = 1;
nodes = (
(576,-16,o),
(689,66,o),
(724,215,c),
(540,269,l),
(519,195,o),
(467,154,o),
(392,154,cs),
(291,154,o),
(230,229,o),
(230,352,cs),
(230,475,o),
(291,550,o),
(391,550,cs),
(467,550,o),
(519,509,o),
(540,435,c),
(726,490,l),
(691,638,o),
(574,720,o),
(393,720,cs),
(175,720,o),
(27,572,o),
(27,352,cs),
(27,133,o),
(175,-16,o),
(393,-16,cs)
);
}
);
width = 752;
},
{
anchors = (
{
name = bottom;
pos = (410,0);
},
{
name = top;
pos = (404,705);
}
);
layerId = "D0F786FD-D799-4DD4-8218-8DF09CBA4779";
shapes = (
{
closed = 1;
nodes = (
(561,-17,o),
(667,58,o),
(704,196,c),
(528,243,l),
(505,169,o),
(459,135,o),
(391,135,cs),
(300,135,o),
(245,217,o),
(245,352,cs),
(245,487,o),
(300,570,o),
(391,570,cs),
(456,570,o),
(502,539,o),
(526,469,c),
(700,528,l),
(658,653,o),
(552,722,o),
(395,722,cs),
(188,722,o),
(46,572,o),
(46,352,cs),
(46,132,o),
(188,-17,o),
(395,-17,cs)
);
}
);
width = 732;
},
{
anchors = (
{
name = bottom;
pos = (263,0);
},
{
name = top;
pos = (254,705);
}
);
guides = (
{
angle = -152.1659;
pos = (602,542);
}
);
layerId = "38794FDE-96C3-45FE-89A8-4F68FD88490C";
shapes = (
{
closed = 1;
nodes = (
(356,-17,o),
(422,50,o),
(455,182,c),
(394,199,l),
(366,91,o),
(322,40,o),
(256,40,cs),
(156,40,o),
(97,156,o),
(97,352,cs),
(97,553,o),
(153,664,o),
(255,664,cs),
(322,664,o),
(366,614,o),
(394,505,c),
(455,522,l),
(425,652,o),
(356,721,o),
(255,721,cs),
(117,721,o),
(32,580,o),
(32,352,cs),
(32,118,o),
(114,-17,o),
(256,-17,cs)
);
}
);
width = 483;
},
{
anchors = (
{
name = bottom;
pos = (327,0);
},
{
name = top;
pos = (317,705);
}
);
layerId = "BD94C4B7-004C-4524-8669-6CB6D8067CD8";
shapes = (
{
closed = 1;
nodes = (
(457,-16,o),
(555,68,o),
(579,212,c),
(404,262,l),
(386,182,o),
(356,143,o),
(310,143,cs),
(247,143,o),
(208,223,o),
(208,352,cs),
(208,479,o),
(248,561,o),
(310,561,cs),
(356,561,o),
(386,522,o),
(404,442,c),
(581,493,l),
(556,636,o),
(456,720,o),
(312,720,cs),
(131,720,o),
(20,580,o),
(20,352,cs),
(20,120,o),
(127,-16,o),
(311,-16,cs)
);
}
);
width = 599;
},
{
anchors = (
{
name = bottom;
pos = (502,0);
},
{
name = top;
pos = (502,705);
}
);
guides = (
{
angle = -152.1659;
pos = (570,542);
}
);
layerId = "B4464F9C-2DA6-418A-B3C4-1470167D4EB6";
shapes = (
{
closed = 1;
nodes = (
(682,-17,o),
(822,53,o),
(893,184,c),
(833,214,l),
(772,102,o),
(655,43,o),
(490,43,cs),
(258,43,o),
(115,161,o),
(115,352,cs),
(115,545,o),
(256,662,o),
(490,662,cs),
(653,662,o),
(772,603,o),
(833,491,c),
(893,521,l),
(823,652,o),
(680,722,o),
(490,722,cs),
(218,722,o),
(45,578,o),
(45,352,cs),
(45,125,o),
(217,-17,o),
(490,-17,cs)
);
}
);
width = 928;
},
{
anchors = (
{
name = bottom;
pos = (557,0);
},
{
name = top;
pos = (549,705);
}
);
background = {
anchors = (
{
name = bottom;
pos = (546,0);
},
{
name = top;
pos = (568,705);
}
);
shapes = (
{
closed = 1;
nodes = (
(793,-17,o),
(982,74,o),
(1039,226,c),
(815,291,l),
(778,219,o),
(691,173,o),
(551,173,cs),
(388,173,o),
(274,239,o),
(274,352,cs),
(274,465,o),
(388,532,o),
(549,532,cs),
(691,532,o),
(778,486,o),
(815,413,c),
(1041,479,l),
(985,626,o),
(794,722,o),
(549,722,cs),
(240,722,o),
(27,575,o),
(27,352,cs),
(27,129,o),
(232,-17,o),
(550,-17,cs)
);
}
);
};
layerId = "9C3D73EE-3D01-4F34-8F18-5001540A34C7";
shapes = (
{
closed = 1;
nodes = (
(796,-17,o),
(983,76,o),
(1039,226,c),
(815,291,l),
(776,214,o),
(683,173,o),
(551,173,cs),
(382,173,o),
(274,243,o),
(274,352,cs),
(274,461,o),
(382,532,o),
(549,532,cs),
(683,532,o),
(776,491,o),
(815,413,c),
(1041,479,l),
(985,627,o),
(792,722,o),
(549,722,cs),
(237,722,o),
(27,573,o),
(27,352,cs),
(27,128,o),
(233,-17,o),
(550,-17,cs)
);
}
);
width = 1067;
}
);
metricLeft = O;
note = C;
unicode = 67;
}
{
glyphname = D;
kernLeft = KO_H;
kernRight = KO_O;
layers = (
{
anchors = (
{
name = bottom;
pos = (305,0);
},
{
name = center;
pos = (175,353);
},
{
name = hook;
pos = (75,705);
},
{
name = top;
pos = (305,705);
}
);
layerId = m008;
shapes = (
{
closed = 1;
nodes = (
(265,0,ls),
(492,0,o),
(626,130,o),
(626,353,cs),
(626,574,o),
(492,705,o),
(265,705,cs),
(75,705,l),
(75,0,l)
);
},
{
closed = 1;
nodes = (
(143,662,l),
(126,645,l),
(267,645,ls),
(453,645,o),
(556,537,o),
(556,352,cs),
(556,167,o),
(454,60,o),
(267,60,cs),
(126,60,l),
(143,42,l)
);
}
);
width = 671;
},
{
anchors = (
{
name = bottom;
pos = (310,0);
},
{
name = center;
pos = (178,353);
},
{
name = hook;
pos = (82,705);
},
{
name = top;
pos = (310,705);
}
);
layerId = "E0044746-7B1A-4AF1-A08A-EDFF47B9B447";
shapes = (
{
closed = 1;
nodes = (
(272,0,ls),
(499,0,o),
(633,130,o),
(633,353,cs),
(633,574,o),
(499,705,o),
(272,705,cs),
(82,705,l),
(82,0,l)
);
},
{
closed = 1;
nodes = (
(150,662,l),
(133,645,l),
(274,645,ls),
(460,645,o),
(563,537,o),
(563,352,cs),
(563,167,o),
(461,60,o),
(274,60,cs),
(133,60,l),
(150,42,l)
);
}
);
width = 691;
},
{
anchors = (
{
name = bottom;
pos = (343,0);
},
{
name = center;
pos = (188,353);
},
{
name = hook;
pos = (52,705);
},
{
name = top;
pos = (337,705);
}
);
layerId = "EAEE501F-808F-4F80-A534-C44A55AE9CF1";
shapes = (
{
closed = 1;
nodes = (
(308,0,ls),
(535,0,o),
(678,130,o),
(678,352,cs),
(678,574,o),
(536,705,o),
(309,705,cs),
(52,705,l),
(52,0,l)
);
},
{
closed = 1;
nodes = (
(241,662,l),
(131,543,l),
(295,543,ls),
(416,543,o),
(474,473,o),
(474,352,cs),
(474,231,o),
(416,162,o),
(295,162,cs),
(131,162,l),
(241,43,l)
);
}
);
width = 705;
},
{
anchors = (
{
name = bottom;
pos = (355,0);
},
{
name = center;
pos = (216,353);
},
{
name = hook;
pos = (80,705);
},
{
name = top;
pos = (351,705);
}
);
layerId = "D0F786FD-D799-4DD4-8218-8DF09CBA4779";
shapes = (
{
closed = 1;
nodes = (
(348,0,ls),
(557,0,o),
(703,130,o),
(703,352,cs),
(703,574,o),
(558,705,o),
(349,705,cs),
(80,705,l),
(80,0,l)
);
},
{
closed = 1;
nodes = (
(265,662,l),
(159,553,l),
(325,553,ls),
(440,553,o),
(504,488,o),
(504,352,cs),
(504,216,o),
(440,151,o),
(325,151,cs),
(159,151,l),
(265,43,l)
);
}
);
width = 749;
},
{
anchors = (
{
name = bottom;
pos = (232,0);
},
{
name = center;
pos = (133,353);
},
{
name = hook;
pos = (54,705);
},
{
name = top;
pos = (232,705);
}
);
layerId = "38794FDE-96C3-45FE-89A8-4F68FD88490C";
shapes = (
{
closed = 1;
nodes = (
(190,0,ls),
(368,0,o),
(463,125,o),
(463,353,cs),
(463,581,o),
(368,705,o),
(190,705,cs),
(54,705,l),
(54,0,l)
);
},
{
closed = 1;
nodes = (
(117,663,l),
(95,650,l),
(190,650,ls),
(329,650,o),
(398,549,o),
(398,352,cs),
(398,155,o),
(329,55,o),
(190,55,cs),
(95,55,l),
(117,41,l)
);
}
);
width = 495;
},
{
anchors = (
{
name = bottom;
pos = (295,0);
},
{
name = center;
pos = (160,353);
},
{
name = hook;
pos = (38,705);
},
{
name = top;
pos = (288,705);
}
);
layerId = "BD94C4B7-004C-4524-8669-6CB6D8067CD8";
shapes = (
{
closed = 1;
nodes = (
(269,0,ls),
(461,0,o),
(580,135,o),
(580,352,cs),
(580,570,o),
(462,705,o),
(271,705,cs),
(38,705,l),
(38,0,l)
);
},
{
closed = 1;
nodes = (
(217,662,l),
(112,553,l),
(256,553,ls),
(346,553,o),
(394,483,o),
(394,352,cs),
(394,222,o),
(346,152,o),
(256,152,cs),
(112,152,l),
(217,43,l)
);
}
);
width = 600;
},
{
anchors = (
{
name = bottom;
pos = (403,0);
},
{
name = center;
pos = (185,353);
},
{
name = hook;
pos = (75,705);
},
{
name = top;
pos = (404,705);
}
);
layerId = "B4464F9C-2DA6-418A-B3C4-1470167D4EB6";
shapes = (
{
closed = 1;
nodes = (
(450,0,ls),
(731,0,o),
(881,123,o),
(881,353,cs),
(881,583,o),
(732,705,o),
(450,705,cs),
(75,705,l),
(75,0,l)
);
},
{
closed = 1;
nodes = (
(143,662,l),
(135,645,l),
(452,645,ls),
(692,645,o),
(811,548,o),
(811,352,cs),
(811,156,o),
(693,60,o),
(452,60,cs),
(135,60,l),
(143,42,l)
);
}
);
width = 926;
},
{
anchors = (
{
name = bottom;
pos = (462,0);
},
{
name = center;
pos = (202,353);
},
{
name = hook;
pos = (52,705);
},
{
name = top;
pos = (476,705);
}
);
background = {
anchors = (
{
name = bottom;
pos = (462,0);
},
{
name = center;
pos = (202,353);
},
{
name = hook;
pos = (52,705);
},
{
name = top;
pos = (476,705);
}
);
shapes = (
{
closed = 1;
nodes = (
(620,0,ls),
(849,0,o),
(998,139,o),
(998,352,cs),
(998,566,o),
(849,705,o),
(621,705,cs),
(52,705,l),
(52,0,l)
);
},
{
closed = 1;
nodes = (
(283,662,l),
(129,508,l),
(567,508,ls),
(679,508,o),
(751,447,o),
(751,352,cs),
(751,257,o),
(680,197,o),
(567,197,cs),
(129,197,l),
(283,43,l)
);
}
);
};
layerId = "9C3D73EE-3D01-4F34-8F18-5001540A34C7";
shapes = (
{
closed = 1;
nodes = (
(615,0,ls),
(849,0,o),
(998,139,o),
(998,352,cs),
(998,566,o),
(849,705,o),
(616,705,cs),
(52,705,l),
(52,0,l)
);
},
{
closed = 1;
nodes = (
(283,662,l),
(129,508,l),
(566,508,ls),
(684,508,o),
(751,447,o),
(751,352,cs),
(751,257,o),
(685,197,o),
(566,197,cs),
(129,197,l),
(283,43,l)
);
}
);
width = 1025;
}
);
metricLeft = H;
metricRight = O;
note = D;
unicode = 68;
}
{
glyphname = E;
kernLeft = KO_H;
kernRight = KO_E;
layers = (
{
anchors = (
{
name = bottom;
pos = (295,0);
},
{
name = ogonek;
pos = (492,0);
},
{
name = top;
pos = (296,705);
},
{
name = topleft;
pos = (30,705);
}
);
guides = (
{
angle = 90;
pos = (295,705);
}
);
layerId = m008;
shapes = (
{
closed = 1;
nodes = (
(492,0,l),
(492,60,l),
(126,60,l),
(143,42,l),
(143,662,l),
(126,645,l),
(492,645,l),
(492,705,l),
(75,705,l),
(75,0,l)
);
},
{
closed = 1;
nodes = (
(410,366,l),
(410,426,l),
(117,426,l),
(117,366,l)
);
}
);
width = 517;
},
{
anchors = (
{
name = bottom;
pos = (308,0);
},
{
name = ogonek;
pos = (499,0);
},
{
name = top;
pos = (305,705);
},
{
name = topleft;
pos = (12,705);
}
);
guides = (
{
angle = 90;
pos = (300,685);
}
);
layerId = "E0044746-7B1A-4AF1-A08A-EDFF47B9B447";
shapes = (
{
closed = 1;
nodes = (
(499,0,l),
(499,60,l),
(133,60,l),
(150,42,l),
(150,662,l),
(133,645,l),
(499,645,l),
(499,705,l),
(82,705,l),
(82,0,l)
);
},
{
closed = 1;
nodes = (
(450,346,l),
(450,406,l),
(124,406,l),
(124,346,l)
);
}
);
width = 556;
},
{
anchors = (
{
name = bottom;
pos = (290,0);
},
{
name = ogonek;
pos = (524,0);
},
{
name = top;
pos = (291,705);
},
{
name = topleft;
pos = (21,705);
}
);
guides = (
{
angle = 90;
pos = (290,701);
}
);
layerId = "EAEE501F-808F-4F80-A534-C44A55AE9CF1";
shapes = (
{
closed = 1;
nodes = (
(524,0,l),
(524,161,l),
(149,161,l),
(241,42,l),
(241,662,l),
(149,544,l),
(521,544,l),
(521,705,l),
(52,705,l),
(52,0,l)
);
},
{
closed = 1;
nodes = (
(461,288,l),
(461,449,l),
(177,449,l),
(177,288,l)
);
}
);
width = 555;
},
{
anchors = (
{
name = bottom;
pos = (318,0);
},
{
name = ogonek;
pos = (553,0);
},
{
name = top;
pos = (318,705);
},
{
name = topleft;
pos = (15,705);
}
);
guides = (
{
angle = 90;
pos = (300,664);
}
);
layerId = "D0F786FD-D799-4DD4-8218-8DF09CBA4779";
shapes = (
{
closed = 1;
nodes = (
(553,0,l),
(553,147,l),
(177,147,l),
(265,42,l),
(265,662,l),
(177,558,l),
(549,558,l),
(549,705,l),
(80,705,l),
(80,0,l)
);
},
{
closed = 1;
nodes = (
(492,288,l),
(492,431,l),
(205,431,l),
(205,288,l)
);
}
);
width = 608;
},
{
anchors = (
{
name = bottom;
pos = (221,0);
},
{
name = ogonek;
pos = (372,0);
},
{
name = top;
pos = (222,705);
},
{
name = topleft;
pos = (22,705);
}
);
guides = (
{
angle = 90;
pos = (295,705);
}
);
layerId = "38794FDE-96C3-45FE-89A8-4F68FD88490C";
shapes = (
{
closed = 1;
nodes = (
(372,0,l),
(372,55,l),
(97,55,l),
(117,42,l),
(117,662,l),
(97,650,l),
(372,650,l),
(372,705,l),
(54,705,l),
(54,0,l)
);
},
{
closed = 1;
nodes = (
(312,370,l),
(312,425,l),
(94,425,l),
(94,370,l)
);
}
);
width = 390;
},
{
anchors = (
{
name = bottom;
pos = (242,0);
},
{
name = ogonek;
pos = (448,0);
},
{
name = top;
pos = (243,705);
},
{
name = topleft;
pos = (20,705);
}
);
guides = (
{
angle = 90;
pos = (295,701);
}
);
layerId = "BD94C4B7-004C-4524-8669-6CB6D8067CD8";
shapes = (
{
closed = 1;
nodes = (
(448,0,l),
(448,151,l),
(127,151,l),
(217,42,l),
(217,662,l),
(127,554,l),
(444,554,l),
(444,705,l),
(38,705,l),
(38,0,l)
);
},
{
closed = 1;
nodes = (
(399,296,l),
(399,447,l),
(157,447,l),
(157,296,l)
);
}
);
width = 475;
},
{
anchors = (
{
name = bottom;
pos = (390,0);
},
{
name = ogonek;
pos = (705,0);
},
{
name = top;
pos = (401,705);
},
{
name = topleft;
pos = (4,705);
}
);
guides = (
{
angle = 90;
pos = (261,705);
}
);
layerId = "B4464F9C-2DA6-418A-B3C4-1470167D4EB6";
shapes = (
{
closed = 1;
nodes = (
(705,0,l),
(705,60,l),
(139,60,l),
(143,42,l),
(143,662,l),
(139,645,l),
(706,645,l),
(706,705,l),
(75,705,l),
(75,0,l)
);
},
{
closed = 1;
nodes = (
(577,366,l),
(577,426,l),
(115,426,l),
(115,366,l)
);
}
);
width = 731;
},
{
anchors = (
{
name = bottom;
pos = (430,0);
},
{
name = ogonek;
pos = (796,0);
},
{
name = top;
pos = (430,705);
},
{
name = topleft;
pos = (12,705);
}
);
background = {
anchors = (
{
name = bottom;
pos = (431,0);
},
{
name = ogonek;
pos = (796,0);
},
{
name = top;
pos = (433,705);
},
{
name = topleft;
pos = (12,705);
}
);
shapes = (
{
closed = 1;
nodes = (
(796,0,l),
(796,170,l),
(178,170,l),
(283,42,l),
(283,662,l),
(178,535,l),
(793,535,l),
(793,705,l),
(52,705,l),
(52,0,l)
);
},
{
closed = 1;
nodes = (
(693,274,l),
(693,444,l),
(203,444,l),
(203,274,l)
);
}
);
};
layerId = "9C3D73EE-3D01-4F34-8F18-5001540A34C7";
shapes = (
{
closed = 1;
nodes = (
(796,0,l),
(796,170,l),
(178,170,l),
(283,42,l),
(283,662,l),
(178,535,l),
(793,535,l),
(793,705,l),
(52,705,l),
(52,0,l)
);
},
{
closed = 1;
nodes = (
(693,274,l),
(693,444,l),
(203,444,l),
(203,274,l)
);
}
);
width = 827;
}
);
metricLeft = H;
note = E;
unicode = 69;
userData = {
KernOnName = E;
};
}
{
glyphname = F;
kernLeft = KO_H;
kernRight = KO_F;
layers = (
{
layerId = m008;
shapes = (
{
closed = 1;
nodes = (
(143,0,l),
(143,662,l),
(126,645,l),
(472,645,l),
(472,705,l),
(75,705,l),
(75,0,l)
);
},
{
closed = 1;
nodes = (
(390,361,l),
(390,421,l),
(117,421,l),
(117,361,l)
);
}
);
width = 492;
},
{
layerId = "E0044746-7B1A-4AF1-A08A-EDFF47B9B447";
shapes = (
{
closed = 1;
nodes = (
(150,0,l),
(150,662,l),
(133,645,l),
(479,645,l),
(479,705,l),
(82,705,l),
(82,0,l)
);
},
{
closed = 1;
nodes = (
(447,331,l),
(447,391,l),
(124,391,l),
(124,331,l)
);
}
);
width = 516;
},
{
layerId = "EAEE501F-808F-4F80-A534-C44A55AE9CF1";
shapes = (
{
closed = 1;
nodes = (
(241,0,l),
(241,662,l),
(149,544,l),
(510,544,l),
(510,705,l),
(52,705,l),
(52,0,l)
);
},
{
closed = 1;
nodes = (
(462,276,l),
(462,438,l),
(177,438,l),
(177,276,l)
);
}
);
width = 534;
},
{
layerId = "D0F786FD-D799-4DD4-8218-8DF09CBA4779";
shapes = (
{
closed = 1;
nodes = (
(265,0,l),
(265,662,l),
(177,558,l),
(538,558,l),
(538,705,l),
(80,705,l),
(80,0,l)
);
},
{
closed = 1;
nodes = (
(494,265,l),
(494,412,l),
(205,412,l),
(205,265,l)
);
}
);
width = 574;
},
{
layerId = "38794FDE-96C3-45FE-89A8-4F68FD88490C";
shapes = (
{
closed = 1;
nodes = (
(117,0,l),
(117,662,l),
(97,650,l),
(358,650,l),
(358,705,l),
(54,705,l),
(54,0,l)
);
},
{
closed = 1;
nodes = (
(300,366,l),
(300,420,l),
(94,420,l),
(94,366,l)
);
}
);
width = 373;
},
{
layerId = "BD94C4B7-004C-4524-8669-6CB6D8067CD8";
shapes = (
{
closed = 1;
nodes = (
(217,0,l),
(217,662,l),
(127,554,l),
(432,554,l),
(432,705,l),
(38,705,l),
(38,0,l)
);
},
{
closed = 1;
nodes = (
(399,285,l),
(399,436,l),
(157,436,l),
(157,285,l)
);
}
);
width = 452;
},
{
layerId = "B4464F9C-2DA6-418A-B3C4-1470167D4EB6";
shapes = (
{
closed = 1;
nodes = (
(143,0,l),
(143,662,l),
(139,645,l),
(673,645,l),
(673,705,l),
(75,705,l),
(75,0,l)
);
},
{
closed = 1;
nodes = (
(561,361,l),
(561,421,l),
(115,421,l),
(115,361,l)
);
}
);
width = 693;
},
{
background = {
shapes = (
{
closed = 1;
nodes = (
(283,0,l),
(283,662,l),
(178,529,l),
(772,529,l),
(772,705,l),
(52,705,l),
(52,0,l)
);
},
{
closed = 1;
nodes = (
(686,257,l),
(686,433,l),
(203,433,l),
(203,257,l)
);
}
);
};
layerId = "9C3D73EE-3D01-4F34-8F18-5001540A34C7";
shapes = (
{
closed = 1;
nodes = (
(283,0,l),
(283,662,l),
(178,529,l),
(772,529,l),
(772,705,l),
(52,705,l),
(52,0,l)
);
},
{
closed = 1;
nodes = (
(686,257,l),
(686,433,l),
(203,433,l),
(203,257,l)
);
}
);
width = 796;
}
);
metricLeft = H;
note = F;
unicode = 70;
userData = {
KernOnName = F;
};
}
{
glyphname = G;
kernLeft = KO_O;
kernRight = KO_G;
layers = (
{
anchors = (
{
name = bottom;
pos = (370,0);
},
{
name = top;
pos = (370,705);
}
);
layerId = m008;
shapes = (
{
closed = 1;
nodes = (
(559,-17,o),
(679,102,o),
(679,283,cs),
(679,343,l),
(314,343,l),
(314,283,l),
(655,283,l),
(617,296,l),
(617,136,o),
(529,45,o),
(375,45,cs),
(215,45,o),
(116,163,o),
(116,352,cs),
(116,542,o),
(214,659,o),
(373,659,cs),
(489,659,o),
(567,605,o),
(602,499,c),
(666,520,l),
(619,655,o),
(524,721,o),
(373,721,cs),
(173,721,o),
(45,578,o),
(45,352,cs),
(45,127,o),
(174,-17,o),
(375,-17,cs)
);
}
);
width = 719;
},
{
anchors = (
{
name = bottom;
pos = (371,0);
},
{
name = top;
pos = (371,705);
}
);
layerId = "E0044746-7B1A-4AF1-A08A-EDFF47B9B447";
shapes = (
{
closed = 1;
nodes = (
(548,-17,o),
(662,106,o),
(662,293,cs),
(662,353,l),
(362,353,l),
(362,293,l),
(638,293,l),
(600,306,l),
(600,140,o),
(518,45,o),
(373,45,cs),
(222,45,o),
(129,164,o),
(129,352,cs),
(129,541,o),
(220,659,o),
(370,659,cs),
(479,659,o),
(552,608,o),
(585,508,c),
(649,531,l),
(604,659,o),
(514,721,o),
(370,721,cs),
(179,721,o),
(58,578,o),
(58,352,cs),
(58,127,o),
(181,-17,o),
(373,-17,cs)
);
}
);
width = 722;
},
{
anchors = (
{
name = bottom;
pos = (388,0);
},
{
name = top;
pos = (388,705);
}
);
layerId = "EAEE501F-808F-4F80-A534-C44A55AE9CF1";
shapes = (
{
closed = 1;
nodes = (
(604,-16,o),
(733,102,o),
(733,298,cs),
(733,377,l),
(368,377,l),
(368,232,l),
(580,232,l),
(536,264,l),
(528,190,o),
(488,150,o),
(392,150,cs),
(291,150,o),
(230,226,o),
(230,352,cs),
(230,475,o),
(291,550,o),
(391,550,cs),
(467,550,o),
(520,509,o),
(541,436,c),
(726,490,l),
(691,638,o),
(573,720,o),
(390,720,cs),
(173,720,o),
(27,572,o),
(27,352,cs),
(27,133,o),
(174,-16,o),
(391,-16,cs)
);
}
);
width = 755;
},
{
anchors = (
{
name = bottom;
pos = (393,0);
},
{
name = top;
pos = (393,705);
}
);
layerId = "D0F786FD-D799-4DD4-8218-8DF09CBA4779";
shapes = (
{
closed = 1;
nodes = (
(593,-17,o),
(725,91,o),
(725,302,cs),
(725,392,l),
(377,392,l),
(377,253,l),
(575,253,l),
(550,278,l),
(550,182,o),
(501,131,o),
(404,131,cs),
(306,131,o),
(245,205,o),
(245,352,cs),
(245,496,o),
(305,570,o),
(404,570,cs),
(462,570,o),
(504,540,o),
(530,485,c),
(700,563,l),
(648,666,o),
(542,722,o),
(395,722,cs),
(186,722,o),
(46,573,o),
(46,352,cs),
(46,132,o),
(189,-17,o),
(401,-17,cs)
);
}
);
width = 765;
},
{
anchors = (
{
name = bottom;
pos = (257,0);
},
{
name = top;
pos = (257,705);
}
);
layerId = "38794FDE-96C3-45FE-89A8-4F68FD88490C";
shapes = (
{
closed = 1;
nodes = (
(394,-17,o),
(469,104,o),
(469,322,cs),
(469,342,l),
(217,342,l),
(217,287,l),
(438,287,l),
(412,297,l),
(404,131,o),
(350,40,o),
(259,40,cs),
(158,40,o),
(97,158,o),
(97,352,cs),
(97,551,o),
(155,664,o),
(258,664,cs),
(327,664,o),
(373,612,o),
(398,505,c),
(459,522,l),
(429,652,o),
(359,721,o),
(257,721,cs),
(118,721,o),
(32,580,o),
(32,352,cs),
(32,121,o),
(117,-17,o),
(259,-17,cs)
);
}
);
width = 501;
},
{
anchors = (
{
name = bottom;
pos = (306,0);
},
{
name = top;
pos = (306,705);
}
);
layerId = "BD94C4B7-004C-4524-8669-6CB6D8067CD8";
shapes = (
{
closed = 1;
nodes = (
(480,-16,o),
(584,104,o),
(584,300,cs),
(584,374,l),
(297,374,l),
(297,237,l),
(433,237,l),
(402,267,l),
(402,184,o),
(372,139,o),
(317,139,cs),
(248,139,o),
(206,217,o),
(206,352,cs),
(206,484,o),
(247,561,o),
(313,561,cs),
(361,561,o),
(392,522,o),
(409,442,c),
(586,493,l),
(560,633,o),
(454,720,o),
(308,720,cs),
(127,720,o),
(20,584,o),
(20,352,cs),
(20,120,o),
(127,-16,o),
(309,-16,cs)
);
}
);
width = 600;
},
{
anchors = (
{
name = bottom;
pos = (492,0);
},
{
name = top;
pos = (492,705);
}
);
layerId = "B4464F9C-2DA6-418A-B3C4-1470167D4EB6";
shapes = (
{
closed = 1;
nodes = (
(760,-17,o),
(926,112,o),
(926,318,cs),
(926,353,l),
(398,353,l),
(398,293,l),
(889,293,l),
(866,316,l),
(866,147,o),
(725,43,o),
(495,43,cs),
(258,43,o),
(115,160,o),
(115,352,cs),
(115,546,o),
(257,662,o),
(495,662,cs),
(663,662,o),
(782,603,o),
(843,491,c),
(903,521,l),
(832,651,o),
(689,722,o),
(495,722,cs),
(220,722,o),
(45,578,o),
(45,352,cs),
(45,125,o),
(218,-17,o),
(495,-17,cs)
);
}
);
width = 966;
},
{
anchors = (
{
name = bottom;
pos = (553,0);
},
{
name = top;
pos = (551,705);
}
);
background = {
anchors = (
{
name = bottom;
pos = (553,0);
},
{
name = top;
pos = (553,705);
}
);
shapes = (
{
closed = 1;
nodes = (
(864,-17,o),
(1055,118,o),
(1055,339,cs),
(1055,389,l),
(507,389,l),
(507,241,l),
(912,241,l),
(830,283,l),
(806,195,o),
(720,155,o),
(554,155,cs),
(379,155,o),
(274,227,o),
(274,349,cs),
(274,471,o),
(376,542,o),
(549,542,cs),
(682,542,o),
(773,502,o),
(819,424,c),
(1037,488,l),
(977,631,o),
(787,722,o),
(551,722,cs),
(235,722,o),
(27,574,o),
(27,349,cs),
(27,122,o),
(227,-17,o),
(553,-17,cs)
);
}
);
};
layerId = "9C3D73EE-3D01-4F34-8F18-5001540A34C7";
shapes = (
{
closed = 1;
nodes = (
(864,-17,o),
(1055,118,o),
(1055,339,cs),
(1055,389,l),
(507,389,l),
(507,241,l),
(912,241,l),
(824,283,l),
(800,195,o),
(720,155,o),
(554,155,cs),
(379,155,o),
(274,227,o),
(274,349,cs),
(274,471,o),
(376,542,o),
(549,542,cs),
(682,542,o),
(773,502,o),
(819,424,c),
(1037,488,l),
(977,631,o),
(787,722,o),
(551,722,cs),
(235,722,o),
(27,574,o),
(27,349,cs),
(27,122,o),
(227,-17,o),
(553,-17,cs)
);
}
);
width = 1077;
}
);
metricLeft = O;
note = G;
unicode = 71;
}
{
glyphname = H;
kernLeft = KO_H;
kernRight = KO_H;
layers = (
{
anchors = (
{
name = "#exit";
pos = (529,0);
},
{
name = bottom;
pos = (336,0);
},
{
name = cedilla;
pos = (109,0);
},
{
name = center;
pos = (336,544);
},
{
name = "cy-block.UC";
pos = (597,60);
},
{
name = top;
pos = (336,705);
},
{
name = topleft;
pos = (30,705);
}
);
layerId = m008;
shapes = (
{
closed = 1;
nodes = (
(597,0,l),
(597,705,l),
(529,705,l),
(529,0,l)
);
},
{
closed = 1;
nodes = (
(143,0,l),
(143,705,l),
(75,705,l),
(75,0,l)
);
},
{
closed = 1;
nodes = (
(545,364,l),
(545,424,l),
(127,424,l),
(127,364,l)
);
}
);
width = 672;
},
{
anchors = (
{
name = "#exit";
pos = (546,0);
},
{
name = bottom;
pos = (348,0);
},
{
name = cedilla;
pos = (116,0);
},
{
name = center;
pos = (348,547);
},
{
name = "cy-block.UC";
pos = (614,60);
},
{
name = top;
pos = (348,705);
},
{
name = topleft;
pos = (12,705);
}
);
layerId = "E0044746-7B1A-4AF1-A08A-EDFF47B9B447";
shapes = (
{
closed = 1;
nodes = (
(614,0,l),
(614,705,l),
(546,705,l),
(546,0,l)
);
},
{
closed = 1;
nodes = (
(150,0,l),
(150,705,l),
(82,705,l),
(82,0,l)
);
},
{
closed = 1;
nodes = (
(562,342,l),
(562,402,l),
(134,402,l),
(134,342,l)
);
}
);
width = 696;
},
{
anchors = (
{
name = "#exit";
pos = (471,0);
},
{
name = bottom;
pos = (356,0);
},
{
name = cedilla;
pos = (147,0);
},
{
name = center;
pos = (356,565);
},
{
name = "cy-block.UC";
pos = (660,171);
},
{
name = top;
pos = (356,705);
},
{
name = topleft;
pos = (21,705);
}
);
layerId = "EAEE501F-808F-4F80-A534-C44A55AE9CF1";
shapes = (
{
closed = 1;
nodes = (
(660,0,l),
(660,705,l),
(471,705,l),
(471,0,l)
);
},
{
closed = 1;
nodes = (
(241,0,l),
(241,705,l),
(52,705,l),
(52,0,l)
);
},
{
closed = 1;
nodes = (
(544,289,l),
(544,460,l),
(168,460,l),
(168,289,l)
);
}
);
width = 712;
},
{
anchors = (
{
name = "#exit";
pos = (532,0);
},
{
name = bottom;
pos = (399,0);
},
{
name = cedilla;
pos = (173,0);
},
{
name = center;
pos = (399,561);
},
{
name = "cy-block.UC";
pos = (715,152);
},
{
name = top;
pos = (399,705);
},
{
name = topleft;
pos = (15,705);
}
);
layerId = "D0F786FD-D799-4DD4-8218-8DF09CBA4779";
shapes = (
{
closed = 1;
nodes = (
(717,0,l),
(717,705,l),
(532,705,l),
(532,0,l)
);
},
{
closed = 1;
nodes = (
(265,0,l),
(265,705,l),
(80,705,l),
(80,0,l)
);
},
{
closed = 1;
nodes = (
(601,288,l),
(601,440,l),
(197,440,l),
(197,288,l)
);
}
);
width = 797;
},
{
anchors = (
{
name = "#exit";
pos = (391,0);
},
{
name = bottom;
pos = (254,0);
},
{
name = cedilla;
pos = (85,0);
},
{
name = center;
pos = (254,543);
},
{
name = "cy-block.UC";
pos = (454,55);
},
{
name = top;
pos = (254,705);
},
{
name = topleft;
pos = (22,705);
}
);
layerId = "38794FDE-96C3-45FE-89A8-4F68FD88490C";
shapes = (
{
closed = 1;
nodes = (
(454,0,l),
(454,705,l),
(391,705,l),
(391,0,l)
);
},
{
closed = 1;
nodes = (
(117,0,l),
(117,705,l),
(54,705,l),
(54,0,l)
);
},
{
closed = 1;
nodes = (
(409,367,l),
(409,422,l),
(99,422,l),
(99,367,l)
);
}
);
width = 508;
},
{
anchors = (
{
name = "#exit";
pos = (376,0);
},
{
name = bottom;
pos = (297,0);
},
{
name = cedilla;
pos = (128,0);
},
{
name = center;
pos = (297,563);
},
{
name = "cy-block.UC";
pos = (555,160);
},
{
name = top;
pos = (297,705);
},
{
name = topleft;
pos = (15,705);
}
);
layerId = "BD94C4B7-004C-4524-8669-6CB6D8067CD8";
shapes = (
{
closed = 1;
nodes = (
(556,0,l),
(556,705,l),
(377,705,l),
(377,0,l)
);
},
{
closed = 1;
nodes = (
(217,0,l),
(217,705,l),
(38,705,l),
(38,0,l)
);
},
{
closed = 1;
nodes = (
(449,296,l),
(449,456,l),
(147,456,l),
(147,296,l)
);
}
);
width = 594;
},
{
anchors = (
{
name = "#exit";
pos = (696,0);
},
{
name = bottom;
pos = (489,0);
},
{
name = cedilla;
pos = (168,0);
},
{
name = center;
pos = (489,572);
},
{
name = "cy-block.UC";
pos = (927,210);
},
{
name = top;
pos = (489,705);
},
{
name = topleft;
pos = (12,705);
}
);
background = {
anchors = (
{
name = "#exit";
pos = (696,0);
},
{
name = bottom;
pos = (489,0);
},
{
name = cedilla;
pos = (168,0);
},
{
name = center;
pos = (489,572);
},
{
name = "cy-block.UC";
pos = (927,210);
},
{
name = top;
pos = (489,705);
},
{
name = topleft;
pos = (12,705);
}
);
shapes = (
{
closed = 1;
nodes = (
(927,0,l),
(927,705,l),
(696,705,l),
(696,0,l)
);
},
{
closed = 1;
nodes = (
(283,0,l),
(283,705,l),
(52,705,l),
(52,0,l)
);
},
{
closed = 1;
nodes = (
(780,268,l),
(780,468,l),
(198,468,l),
(198,268,l)
);
}
);
};
layerId = "9C3D73EE-3D01-4F34-8F18-5001540A34C7";
shapes = (
{
closed = 1;
nodes = (
(927,0,l),
(927,705,l),
(696,705,l),
(696,0,l)
);
},
{
closed = 1;
nodes = (
(283,0,l),
(283,705,l),
(52,705,l),
(52,0,l)
);
},
{
closed = 1;
nodes = (
(780,268,l),
(780,468,l),
(198,468,l),
(198,268,l)
);
}
);
width = 979;
},
{
anchors = (
{
name = "#exit";
pos = (767,0);
},
{
name = bottom;
pos = (455,0);
},
{
name = cedilla;
pos = (109,0);
},
{
name = center;
pos = (455,544);
},
{
name = "cy-block.UC";
pos = (835,60);
},
{
name = top;
pos = (455,705);
},
{
name = topleft;
pos = (4,705);
}
);
layerId = "B4464F9C-2DA6-418A-B3C4-1470167D4EB6";
shapes = (
{
closed = 1;
nodes = (
(835,0,l),
(835,705,l),
(767,705,l),
(767,0,l)
);
},
{
closed = 1;
nodes = (
(143,0,l),
(143,705,l),
(75,705,l),
(75,0,l)
);
},
{
closed = 1;
nodes = (
(775,364,l),
(775,424,l),
(135,424,l),
(135,364,l)
);
}
);
width = 910;
}
);
note = H;
unicode = 72;
userData = {
KernOnName = H;
};
}
{
glyphname = I;
kernLeft = KO_H;
kernRight = KO_H;
layers = (
{
anchors = (
{
name = bottom;
pos = (109,0);
},
{
name = center;
pos = (109,354);
},
{
name = ogonek;
pos = (143,0);
},
{
name = top;
pos = (109,705);
},
{
name = topleft;
pos = (30,705);
}
);
layerId = m008;
shapes = (
{
closed = 1;
nodes = (
(143,0,l),
(143,705,l),
(75,705,l),
(75,0,l)
);
}
);
width = 218;
},
{
anchors = (
{
name = bottom;
pos = (116,0);
},
{
name = center;
pos = (116,354);
},
{
name = ogonek;
pos = (150,0);
},
{
name = top;
pos = (116,705);
},
{
name = topleft;
pos = (12,705);
}
);
layerId = "E0044746-7B1A-4AF1-A08A-EDFF47B9B447";
shapes = (
{
closed = 1;
nodes = (
(150,0,l),
(150,705,l),
(82,705,l),
(82,0,l)
);
}
);
width = 232;
},
{
anchors = (
{
name = bottom;
pos = (147,0);
},
{
name = center;
pos = (147,354);
},
{
name = ogonek;
pos = (241,0);
},
{
name = top;
pos = (147,705);
},
{
name = topleft;
pos = (21,705);
}
);
layerId = "EAEE501F-808F-4F80-A534-C44A55AE9CF1";
shapes = (
{
closed = 1;
nodes = (
(241,0,l),
(241,705,l),
(52,705,l),
(52,0,l)
);
}
);
width = 293;
},
{
anchors = (
{
name = bottom;
pos = (173,0);
},
{
name = center;
pos = (173,354);
},
{
name = ogonek;
pos = (265,0);
},
{
name = top;
pos = (173,705);
},
{
name = topleft;
pos = (15,705);
}
);
layerId = "D0F786FD-D799-4DD4-8218-8DF09CBA4779";
shapes = (
{
closed = 1;
nodes = (
(265,0,l),
(265,705,l),
(80,705,l),
(80,0,l)
);
}
);
width = 345;
},
{
anchors = (
{
name = bottom;
pos = (85,0);
},
{
name = center;
pos = (85,354);
},
{
name = ogonek;
pos = (117,0);
},
{
name = top;
pos = (85,705);
},
{
name = topleft;
pos = (22,705);
}
);
layerId = "38794FDE-96C3-45FE-89A8-4F68FD88490C";
shapes = (
{
closed = 1;
nodes = (
(117,0,l),
(117,705,l),
(54,705,l),
(54,0,l)
);
}
);
width = 171;
},
{
anchors = (
{
name = bottom;
pos = (128,0);
},
{
name = center;
pos = (128,354);
},
{
name = ogonek;
pos = (217,0);
},
{
name = top;
pos = (128,705);
},
{
name = topleft;
pos = (15,705);
}
);
layerId = "BD94C4B7-004C-4524-8669-6CB6D8067CD8";
shapes = (
{
closed = 1;
nodes = (
(217,0,l),
(217,705,l),
(38,705,l),
(38,0,l)
);
}
);
width = 255;
},
{
anchors = (
{
name = bottom;
pos = (109,0);
},
{
name = center;
pos = (109,354);
},
{
name = ogonek;
pos = (143,0);
},
{
name = top;
pos = (109,705);
},
{
name = topleft;
pos = (4,705);
}
);
layerId = "B4464F9C-2DA6-418A-B3C4-1470167D4EB6";
shapes = (
{
closed = 1;
nodes = (
(143,0,l),
(143,705,l),
(75,705,l),
(75,0,l)
);
}
);
width = 218;
},
{
anchors = (
{
name = bottom;
pos = (168,0);
},
{
name = center;
pos = (168,354);
},
{
name = ogonek;
pos = (283,0);
},
{
name = top;
pos = (168,705);
},
{
name = topleft;
pos = (12,705);
}
);
background = {
anchors = (
{
name = bottom;
pos = (168,0);
},
{
name = center;
pos = (168,354);
},
{
name = ogonek;
pos = (283,0);
},
{
name = top;
pos = (168,705);
},
{
name = topleft;
pos = (12,705);
}
);
shapes = (
{
closed = 1;
nodes = (
(283,0,l),
(283,705,l),
(52,705,l),
(52,0,l)
);
}
);
};
layerId = "9C3D73EE-3D01-4F34-8F18-5001540A34C7";
shapes = (
{
closed = 1;
nodes = (
(283,0,l),
(283,705,l),
(52,705,l),
(52,0,l)
);
}
);
width = 335;
}
);
metricLeft = H;
note = I;
unicode = 73;
}
{
glyphname = J;
kernLeft = KO_J;
kernRight = KO_J;
layers = (
{
anchors = (
{
name = bottom;
pos = (238,0);
},
{
name = top;
pos = (377,705);
}
);
layerId = m008;
shapes = (
{
closed = 1;
nodes = (
(338,-17,o),
(411,51,o),
(411,201,cs),
(411,705,l),
(343,705,l),
(343,206,ls),
(343,89,o),
(298,45,o),
(218,45,cs),
(138,45,o),
(93,89,o),
(93,206,cs),
(93,260,l),
(25,239,l),
(25,201,ls),
(25,51,o),
(98,-17,o),
(218,-17,cs)
);
}
);
width = 481;
},
{
anchors = (
{
name = bottom;
pos = (251,0);
},
{
name = top;
pos = (382,705);
}
);
layerId = "E0044746-7B1A-4AF1-A08A-EDFF47B9B447";
shapes = (
{
closed = 1;
nodes = (
(338,-17,o),
(416,48,o),
(416,201,cs),
(416,705,l),
(348,705,l),
(348,206,ls),
(348,86,o),
(298,45,o),
(223,45,cs),
(148,45,o),
(98,83,o),
(98,186,cs),
(98,260,l),
(30,239,l),
(30,181,ls),
(30,45,o),
(108,-17,o),
(223,-17,cs)
);
}
);
width = 498;
},
{
anchors = (
{
name = bottom;
pos = (282,0);
},
{
name = top;
pos = (419,705);
}
);
layerId = "EAEE501F-808F-4F80-A534-C44A55AE9CF1";
shapes = (
{
closed = 1;
nodes = (
(424,-17,o),
(513,68,o),
(513,215,cs),
(513,705,l),
(324,705,l),
(324,225,ls),
(324,174,o),
(303,145,o),
(267,145,cs),
(222,145,o),
(204,167,o),
(204,225,cs),
(204,283,l),
(16,246,l),
(16,199,ls),
(16,58,o),
(107,-17,o),
(276,-17,cs)
);
}
);
width = 564;
},
{
anchors = (
{
name = bottom;
pos = (307,0);
},
{
name = top;
pos = (431,705);
}
);
layerId = "D0F786FD-D799-4DD4-8218-8DF09CBA4779";
shapes = (
{
closed = 1;
nodes = (
(433,-17,o),
(523,59,o),
(523,216,cs),
(523,705,l),
(338,705,l),
(338,203,ls),
(338,155,o),
(317,132,o),
(274,132,cs),
(232,132,o),
(210,155,o),
(210,208,cs),
(210,283,l),
(25,246,l),
(25,214,ls),
(25,59,o),
(116,-17,o),
(274,-17,cs)
);
}
);
width = 603;
},
{
anchors = (
{
name = bottom;
pos = (202,0);
},
{
name = top;
pos = (306,705);
}
);
layerId = "38794FDE-96C3-45FE-89A8-4F68FD88490C";
shapes = (
{
closed = 1;
nodes = (
(281,-17,o),
(338,56,o),
(338,190,cs),
(338,705,l),
(275,705,l),
(275,197,ls),
(275,95,o),
(241,40,o),
(177,40,cs),
(113,40,o),
(84,96,o),
(84,219,cs),
(84,259,l),
(22,239,l),
(22,203,ls),
(22,57,o),
(74,-17,o),
(178,-17,cs)
);
}
);
width = 389;
},
{
anchors = (
{
name = bottom;
pos = (248,0);
},
{
name = top;
pos = (364,705);
}
);
layerId = "BD94C4B7-004C-4524-8669-6CB6D8067CD8";
shapes = (
{
closed = 1;
nodes = (
(374,-17,o),
(453,65,o),
(453,213,cs),
(453,705,l),
(274,705,l),
(274,206,ls),
(274,159,o),
(259,135,o),
(231,135,cs),
(202,135,o),
(188,158,o),
(188,206,cs),
(188,281,l),
(10,245,l),
(10,209,ls),
(10,65,o),
(90,-17,o),
(232,-17,cs)
);
}
);
width = 491;
},
{
anchors = (
{
name = bottom;
pos = (310,0);
},
{
name = top;
pos = (559,705);
}
);
layerId = "B4464F9C-2DA6-418A-B3C4-1470167D4EB6";
shapes = (
{
closed = 1;
nodes = (
(489,-17,o),
(593,84,o),
(593,261,cs),
(593,705,l),
(525,705,l),
(525,266,ls),
(525,121,o),
(451,45,o),
(308,45,cs),
(164,45,o),
(93,122,o),
(93,276,cs),
(93,320,l),
(25,299,l),
(25,261,ls),
(25,82,o),
(125,-17,o),
(306,-17,cs)
);
}
);
width = 663;
},
{
anchors = (
{
name = bottom;
pos = (426,0);
},
{
name = top;
pos = (632,705);
}
);
background = {
anchors = (
{
name = bottom;
pos = (426,0);
},
{
name = top;
pos = (632,705);
}
);
shapes = (
{
closed = 1;
nodes = (
(621,-17,o),
(747,89,o),
(747,290,cs),
(747,705,l),
(516,705,l),
(516,312,ls),
(516,214,o),
(474,173,o),
(381,173,cs),
(288,173,o),
(246,214,o),
(246,322,cs),
(246,341,l),
(16,298,l),
(16,248,ls),
(16,74,o),
(142,-17,o),
(381,-17,cs)
);
}
);
};
layerId = "9C3D73EE-3D01-4F34-8F18-5001540A34C7";
shapes = (
{
closed = 1;
nodes = (
(621,-17,o),
(747,89,o),
(747,290,cs),
(747,705,l),
(516,705,l),
(516,312,ls),
(516,215,o),
(475,173,o),
(381,173,cs),
(286,173,o),
(246,217,o),
(246,322,cs),
(246,341,l),
(16,298,l),
(16,248,ls),
(16,74,o),
(142,-17,o),
(381,-17,cs)
);
}
);
width = 798;
}
);
note = J;
unicode = 74;
userData = {
KernOnName = J;
};
}
{
color = 3;
glyphname = K;
kernLeft = KO_H;
kernRight = KO_K;
layers = (
{
anchors = (
{
name = bottom;
pos = (315,0);
},
{
name = "cy-block.UC";
pos = (561,60);
},
{
name = stem;
pos = (143,705);
},
{
name = top;
pos = (315,705);
}
);
layerId = m008;
name = "TikTok Display Light";
shapes = (
{
closed = 1;
nodes = (
(294,453,l),
(308,466,l),
(570,705,l),
(476,705,l),
(143,395,l),
(106,395,l),
(106,281,l)
);
},
{
closed = 1;
nodes = (
(143,0,l),
(143,705,l),
(75,705,l),
(75,0,l)
);
},
{
closed = 1;
nodes = (
(599,0,l),
(314,504,l),
(262,459,l),
(520,0,l)
);
}
);
width = 619;
},
{
anchors = (
{
name = bottom;
pos = (315,0);
},
{
name = "cy-block.UC";
pos = (570,60);
},
{
name = stem;
pos = (150,705);
},
{
name = top;
pos = (315,705);
}
);
layerId = "E0044746-7B1A-4AF1-A08A-EDFF47B9B447";
name = "TikTok Display Light";
shapes = (
{
closed = 1;
nodes = (
(279,399,l),
(290,410,l),
(580,705,l),
(486,705,l),
(154,356,l),
(113,356,l),
(113,231,l)
);
},
{
closed = 1;
nodes = (
(150,0,l),
(150,705,l),
(82,705,l),
(82,0,l)
);
},
{
closed = 1;
nodes = (
(602,0,l),
(301,444,l),
(249,399,l),
(523,0,l)
);
}
);
width = 629;
},
{
anchors = (
{
name = bottom;
pos = (359,0);
},
{
name = "cy-block.UC";
pos = (632,171);
},
{
name = stem;
pos = (241,705);
},
{
name = top;
pos = (359,705);
}
);
layerId = "EAEE501F-808F-4F80-A534-C44A55AE9CF1";
name = "TikTok Display Light";
shapes = (
{
closed = 1;
nodes = (
(374,386,l),
(400,412,l),
(695,705,l),
(461,705,l),
(241,476,l),
(170,476,l),
(170,183,l)
);
},
{
closed = 1;
nodes = (
(241,0,l),
(241,705,l),
(52,705,l),
(52,0,l)
);
},
{
closed = 1;
nodes = (
(706,0,l),
(441,487,l),
(302,358,l),
(490,0,l)
);
}
);
width = 717;
},
{
anchors = (
{
name = bottom;
pos = (371,0);
},
{
name = "cy-block.UC";
pos = (648,152);
},
{
name = stem;
pos = (265,705);
},
{
name = top;
pos = (371,705);
}
);
layerId = "D0F786FD-D799-4DD4-8218-8DF09CBA4779";
name = "TikTok Display Light";
shapes = (
{
closed = 1;
nodes = (
(338,309,l),
(415,353,l),
(723,705,l),
(507,705,l),
(271,430,l),
(209,430,l),
(189,133,l)
);
},
{
closed = 1;
nodes = (
(265,0,l),
(265,705,l),
(80,705,l),
(80,0,l)
);
},
{
closed = 1;
nodes = (
(719,0,l),
(444,430,l),
(324,307,l),
(508,0,l)
);
}
);
width = 743;
},
{
anchors = (
{
name = bottom;
pos = (241,0);
},
{
name = "cy-block.UC";
pos = (428,55);
},
{
name = stem;
pos = (117,705);
},
{
name = top;
pos = (241,705);
}
);
layerId = "38794FDE-96C3-45FE-89A8-4F68FD88490C";
name = "TikTok Display Light";
shapes = (
{
closed = 1;
nodes = (
(228,456,l),
(240,468,l),
(440,705,l),
(366,705,l),
(117,408,l),
(86,408,l),
(86,285,l)
);
},
{
closed = 1;
nodes = (
(117,0,l),
(117,705,l),
(54,705,l),
(54,0,l)
);
},
{
closed = 1;
nodes = (
(460,0,l),
(248,505,l),
(198,463,l),
(390,0,l)
);
}
);
width = 474;
},
{
anchors = (
{
name = bottom;
pos = (304,0);
},
{
name = "cy-block.UC";
pos = (534,160);
},
{
name = stem;
pos = (217,705);
},
{
name = top;
pos = (304,705);
}
);
layerId = "BD94C4B7-004C-4524-8669-6CB6D8067CD8";
name = "TikTok Display Light";
shapes = (
{
closed = 1;
nodes = (
(327,393,l),
(350,417,l),
(599,705,l),
(403,705,l),
(217,486,l),
(155,486,l),
(155,193,l)
);
},
{
closed = 1;
nodes = (
(217,0,l),
(217,705,l),
(38,705,l),
(38,0,l)
);
},
{
closed = 1;
nodes = (
(602,0,l),
(387,489,l),
(257,368,l),
(409,0,l)
);
}
);
width = 610;
},
{
anchors = (
{
name = bottom;
pos = (416,0);
},
{
name = "cy-block.UC";
pos = (777,60);
},
{
name = stem;
pos = (143,705);
},
{
name = top;
pos = (416,705);
}
);
layerId = "B4464F9C-2DA6-418A-B3C4-1470167D4EB6";
name = "TikTok Display Light";
shapes = (
{
closed = 1;
nodes = (
(376,457,l),
(392,466,l),
(776,705,l),
(670,705,l),
(128,370,l),
(97,370,l),
(97,283,l)
);
},
{
closed = 1;
nodes = (
(143,0,l),
(143,705,l),
(75,705,l),
(75,0,l)
);
},
{
closed = 1;
nodes = (
(824,0,l),
(391,504,l),
(336,472,l),
(740,0,l)
);
}
);
width = 844;
},
{
anchors = (
{
name = bottom;
pos = (483,0);
},
{
name = "cy-block.UC";
pos = (881,210);
},
{
name = stem;
pos = (283,705);
},
{
name = top;
pos = (483,705);
}
);
background = {
anchors = (
{
name = bottom;
pos = (483,0);
},
{
name = "cy-block.UC";
pos = (881,210);
},
{
name = stem;
pos = (283,705);
},
{
name = top;
pos = (483,705);
}
);
shapes = (
{
closed = 1;
nodes = (
(490,374,l),
(510,391,l),
(952,705,l),
(656,705,l),
(269,438,l),
(183,438,l),
(191,153,l)
);
},
{
closed = 1;
nodes = (
(283,0,l),
(283,705,l),
(52,705,l),
(52,0,l)
);
},
{
closed = 1;
nodes = (
(976,0,l),
(570,481,l),
(408,358,l),
(710,0,l)
);
}
);
};
layerId = "9C3D73EE-3D01-4F34-8F18-5001540A34C7";
name = "TikTok Display Light";
shapes = (
{
closed = 1;
nodes = (
(490,374,l),
(510,391,l),
(952,705,l),
(656,705,l),
(269,438,l),
(183,438,l),
(191,153,l)
);
},
{
closed = 1;
nodes = (
(283,0,l),
(283,705,l),
(52,705,l),
(52,0,l)
);
},
{
closed = 1;
nodes = (
(976,0,l),
(570,481,l),
(408,358,l),
(710,0,l)
);
}
);
width = 987;
}
);
metricLeft = H;
note = K;
unicode = 75;
userData = {
KernOnName = K;
};
}
{
glyphname = L;
kernLeft = KO_H;
kernRight = KO_L;
layers = (
{
anchors = (
{
name = bottom;
pos = (262,0);
},
{
name = center;
pos = (173,383);
},
{
name = top;
pos = (109,705);
},
{
name = topright;
pos = (264,705);
}
);
layerId = m008;
shapes = (
{
closed = 1;
nodes = (
(483,0,l),
(483,62,l),
(126,62,l),
(143,42,l),
(143,705,l),
(75,705,l),
(75,0,l)
);
}
);
width = 508;
},
{
anchors = (
{
name = bottom;
pos = (264,0);
},
{
name = center;
pos = (180,383);
},
{
name = top;
pos = (116,705);
},
{
name = topright;
pos = (278,705);
}
);
layerId = "E0044746-7B1A-4AF1-A08A-EDFF47B9B447";
shapes = (
{
closed = 1;
nodes = (
(490,0,l),
(490,62,l),
(133,62,l),
(150,42,l),
(150,705,l),
(82,705,l),
(82,0,l)
);
}
);
width = 527;
},
{
anchors = (
{
name = bottom;
pos = (267,0);
},
{
name = center;
pos = (202,386);
},
{
name = top;
pos = (147,705);
},
{
name = topright;
pos = (288,705);
}
);
layerId = "EAEE501F-808F-4F80-A534-C44A55AE9CF1";
shapes = (
{
closed = 1;
nodes = (
(506,0,l),
(506,171,l),
(103,171,l),
(241,42,l),
(241,705,l),
(52,705,l),
(52,0,l)
);
}
);
width = 531;
},
{
anchors = (
{
name = bottom;
pos = (285,0);
},
{
name = center;
pos = (223,378);
},
{
name = top;
pos = (173,705);
},
{
name = topright;
pos = (333,705);
}
);
layerId = "D0F786FD-D799-4DD4-8218-8DF09CBA4779";
shapes = (
{
closed = 1;
nodes = (
(534,0,l),
(534,148,l),
(131,148,l),
(265,42,l),
(265,705,l),
(80,705,l),
(80,0,l)
);
}
);
width = 574;
},
{
anchors = (
{
name = bottom;
pos = (197,0);
},
{
name = center;
pos = (133,383);
},
{
name = top;
pos = (85,705);
},
{
name = topright;
pos = (200,705);
}
);
layerId = "38794FDE-96C3-45FE-89A8-4F68FD88490C";
shapes = (
{
closed = 1;
nodes = (
(365,0,l),
(365,57,l),
(92,57,l),
(117,42,l),
(117,705,l),
(54,705,l),
(54,0,l)
);
}
);
width = 384;
},
{
anchors = (
{
name = bottom;
pos = (221,0);
},
{
name = center;
pos = (171,386);
},
{
name = top;
pos = (128,705);
},
{
name = topright;
pos = (242,705);
}
);
layerId = "BD94C4B7-004C-4524-8669-6CB6D8067CD8";
shapes = (
{
closed = 1;
nodes = (
(421,0,l),
(421,160,l),
(80,160,l),
(217,42,l),
(217,705,l),
(38,705,l),
(38,0,l)
);
}
);
width = 442;
},
{
anchors = (
{
name = bottom;
pos = (388,0);
},
{
name = center;
pos = (207,383);
},
{
name = top;
pos = (109,705);
},
{
name = topright;
pos = (345,705);
}
);
layerId = "B4464F9C-2DA6-418A-B3C4-1470167D4EB6";
shapes = (
{
closed = 1;
nodes = (
(674,0,l),
(674,62,l),
(112,62,l),
(143,32,l),
(143,705,l),
(75,705,l),
(75,0,l)
);
}
);
width = 699;
},
{
anchors = (
{
name = bottom;
pos = (380,0);
},
{
name = center;
pos = (254,407);
},
{
name = top;
pos = (168,705);
},
{
name = topright;
pos = (386,705);
}
);
background = {
anchors = (
{
name = bottom;
pos = (362,0);
},
{
name = center;
pos = (254,407);
},
{
name = top;
pos = (168,705);
},
{
name = topright;
pos = (386,705);
}
);
shapes = (
{
closed = 1;
nodes = (
(713,0,l),
(713,200,l),
(129,200,l),
(283,42,l),
(283,705,l),
(52,705,l),
(52,0,l)
);
}
);
};
layerId = "9C3D73EE-3D01-4F34-8F18-5001540A34C7";
shapes = (
{
closed = 1;
nodes = (
(713,0,l),
(713,200,l),
(129,200,l),
(283,42,l),
(283,705,l),
(52,705,l),
(52,0,l)
);
}
);
width = 738;
}
);
metricLeft = H;
note = L;
unicode = 76;
userData = {
KernOnName = L;
};
}
{
color = 3;
glyphname = M;
kernLeft = KO_H;
kernRight = KO_H;
layers = (
{
anchors = (
{
name = bottom;
pos = (403,0);
},
{
name = top;
pos = (403,705);
}
);
layerId = m008;
name = "TikTok Display Light";
shapes = (
{
closed = 1;
nodes = (
(141,0,l),
(141,684,l),
(141,684,l),
(346,0,l),
(459,0,l),
(664,684,l),
(664,684,l),
(664,0,l),
(730,0,l),
(730,705,l),
(599,705,l),
(403,32,l),
(403,32,l),
(206,705,l),
(75,705,l),
(75,0,l)
);
}
);
width = 805;
},
{
anchors = (
{
name = bottom;
pos = (419,0);
},
{
name = top;
pos = (419,705);
}
);
layerId = "E0044746-7B1A-4AF1-A08A-EDFF47B9B447";
name = "TikTok Display Light";
shapes = (
{
closed = 1;
nodes = (
(148,0,l),
(148,663,l),
(152,663,l),
(364,0,l),
(474,0,l),
(686,663,l),
(690,663,l),
(690,0,l),
(756,0,l),
(756,705,l),
(628,705,l),
(421,45,l),
(417,45,l),
(210,705,l),
(82,705,l),
(82,0,l)
);
}
);
width = 838;
},
{
anchors = (
{
name = bottom;
pos = (460,0);
},
{
name = top;
pos = (460,705);
}
);
associatedMasterId = "E0044746-7B1A-4AF1-A08A-EDFF47B9B447";
attr = {
coordinates = (
148,
1,
100
);
};
layerId = "09B560F9-C502-479A-AB43-F12D6CA169D0";
name = "14 Sep 22, 16:56";
shapes = (
{
closed = 1;
nodes = (
(219,0,l),
(219,616,l),
(225,616,l),
(388,0,l),
(532,0,l),
(694,616,l),
(700,616,l),
(700,0,l),
(839,0,l),
(839,705,l),
(590,705,l),
(463,152,l),
(456,152,l),
(329,705,l),
(81,705,l),
(81,0,l)
);
}
);
width = 920;
},
{
anchors = (
{
name = bottom;
pos = (465,0);
},
{
name = top;
pos = (465,705);
}
);
layerId = "EAEE501F-808F-4F80-A534-C44A55AE9CF1";
name = "TikTok Display Light";
shapes = (
{
closed = 1;
nodes = (
(232,0,l),
(232,606,l),
(232,606,l),
(334,0,l),
(596,0,l),
(698,606,l),
(698,606,l),
(698,0,l),
(878,0,l),
(878,705,l),
(552,705,l),
(465,87,l),
(465,87,l),
(378,705,l),
(52,705,l),
(52,0,l)
);
}
);
width = 930;
},
{
anchors = (
{
name = bottom;
pos = (476,0);
},
{
name = top;
pos = (476,705);
}
);
layerId = "D0F786FD-D799-4DD4-8218-8DF09CBA4779";
shapes = (
{
closed = 1;
nodes = (
(247,0,l),
(247,584,l),
(253,584,l),
(397,47,l),
(554,47,l),
(697,584,l),
(704,584,l),
(704,0,l),
(871,0,l),
(871,705,l),
(589,705,l),
(479,240,l),
(471,240,l),
(361,705,l),
(80,705,l),
(80,0,l)
);
}
);
width = 951;
},
{
anchors = (
{
name = bottom;
pos = (448,0);
},
{
name = top;
pos = (448,705);
}
);
associatedMasterId = m008;
attr = {
coordinates = (
148,
2,
100
);
};
layerId = "98DAD500-32FC-46CC-9755-1246BAA5114F";
name = "9. Feb 23 at 16:44";
shapes = (
{
closed = 1;
nodes = (
(207,0,l),
(207,628,l),
(207,628,l),
(337,0,l),
(558,0,l),
(689,628,l),
(689,628,l),
(689,0,l),
(837,0,l),
(837,705,l),
(565,705,l),
(448,72,l),
(448,72,l),
(330,705,l),
(58,705,l),
(58,0,l)
);
}
);
width = 896;
},
{
anchors = (
{
name = bottom;
pos = (308,0);
},
{
name = top;
pos = (308,705);
}
);
layerId = "38794FDE-96C3-45FE-89A8-4F68FD88490C";
name = "TikTok Display Light";
shapes = (
{
closed = 1;
nodes = (
(115,0,l),
(115,687,l),
(115,687,l),
(256,0,l),
(360,0,l),
(501,687,l),
(501,687,l),
(501,0,l),
(562,0,l),
(562,705,l),
(445,705,l),
(308,30,l),
(308,30,l),
(171,705,l),
(54,705,l),
(54,0,l)
);
}
);
width = 616;
},
{
anchors = (
{
name = bottom;
pos = (396,0);
},
{
name = top;
pos = (396,705);
}
);
layerId = "BD94C4B7-004C-4524-8669-6CB6D8067CD8";
name = "TikTok Display Light";
shapes = (
{
closed = 1;
nodes = (
(199,0,l),
(199,634,l),
(199,634,l),
(279,0,l),
(513,0,l),
(593,634,l),
(593,634,l),
(593,0,l),
(753,0,l),
(753,705,l),
(463,705,l),
(396,122,l),
(396,122,l),
(329,705,l),
(38,705,l),
(38,0,l)
);
}
);
width = 791;
},
{
anchors = (
{
name = bottom;
pos = (538,0);
},
{
name = top;
pos = (538,705);
}
);
layerId = "B4464F9C-2DA6-418A-B3C4-1470167D4EB6";
name = "TikTok Display Light";
shapes = (
{
closed = 1;
nodes = (
(141,0,l),
(141,684,l),
(141,684,l),
(485,0,l),
(593,0,l),
(937,684,l),
(937,684,l),
(937,0,l),
(1003,0,l),
(1003,705,l),
(873,705,l),
(539,32,l),
(539,32,l),
(205,705,l),
(75,705,l),
(75,0,l)
);
}
);
width = 1078;
},
{
anchors = (
{
name = bottom;
pos = (607,0);
},
{
name = top;
pos = (607,705);
}
);
associatedMasterId = "B4464F9C-2DA6-418A-B3C4-1470167D4EB6";
attr = {
coordinates = (
148,
2,
150
);
};
layerId = "7A815BB3-82E8-4142-83C8-6BDD88B70811";
name = "9. Feb 23 at 16:44";
shapes = (
{
closed = 1;
nodes = (
(236,0,l),
(236,623,l),
(236,623,l),
(467,0,l),
(747,0,l),
(978,623,l),
(978,623,l),
(978,0,l),
(1156,0,l),
(1156,705,l),
(834,705,l),
(608,93,l),
(608,93,l),
(380,705,l),
(58,705,l),
(58,0,l)
);
}
);
width = 1215;
},
{
anchors = (
{
name = bottom;
pos = (634,0);
},
{
name = top;
pos = (634,705);
}
);
background = {
anchors = (
{
name = bottom;
pos = (634,0);
},
{
name = top;
pos = (634,705);
}
);
shapes = (
{
closed = 1;
nodes = (
(273,0,l),
(273,599,l),
(273,599,l),
(469,0,l),
(798,0,l),
(994,599,l),
(994,599,l),
(994,0,l),
(1215,0,l),
(1215,705,l),
(822,705,l),
(635,116,l),
(635,116,l),
(445,705,l),
(52,705,l),
(52,0,l)
);
}
);
};
layerId = "9C3D73EE-3D01-4F34-8F18-5001540A34C7";
name = "TikTok Display Light";
shapes = (
{
closed = 1;
nodes = (
(273,0,l),
(273,599,l),
(273,599,l),
(469,0,l),
(798,0,l),
(994,599,l),
(994,599,l),
(994,0,l),
(1215,0,l),
(1215,705,l),
(822,705,l),
(635,116,l),
(635,116,l),
(445,705,l),
(52,705,l),
(52,0,l)
);
}
);
width = 1267;
}
);
metricLeft = H;
metricRight = H;
note = M;
unicode = 77;
}
{
color = 3;
glyphname = N;
kernLeft = KO_H;
kernRight = KO_H;
layers = (
{
anchors = (
{
name = bottom;
pos = (336,0);
},
{
name = hook;
pos = (563,0);
},
{
name = hook2;
pos = (109,0);
},
{
name = top;
pos = (376,705);
}
);
layerId = m008;
shapes = (
{
closed = 1;
nodes = (
(143,0,l),
(143,682,l),
(143,682,l),
(466,0,l),
(597,0,l),
(597,705,l),
(529,705,l),
(529,23,l),
(529,23,l),
(206,705,l),
(75,705,l),
(75,0,l)
);
}
);
width = 672;
},
{
anchors = (
{
name = bottom;
pos = (343,0);
},
{
name = hook;
pos = (571,0);
},
{
name = hook2;
pos = (115,0);
},
{
name = top;
pos = (384,705);
}
);
layerId = "E0044746-7B1A-4AF1-A08A-EDFF47B9B447";
shapes = (
{
closed = 1;
nodes = (
(148,0,l),
(148,666,l),
(152,666,l),
(480,0,l),
(604,0,l),
(604,705,l),
(538,705,l),
(538,39,l),
(534,39,l),
(206,705,l),
(82,705,l),
(82,0,l)
);
}
);
width = 686;
},
{
anchors = (
{
name = bottom;
pos = (381,0);
},
{
name = hook;
pos = (610,0);
},
{
name = hook2;
pos = (151,0);
},
{
name = top;
pos = (390,705);
}
);
associatedMasterId = "E0044746-7B1A-4AF1-A08A-EDFF47B9B447";
attr = {
coordinates = (
148,
1,
100
);
};
layerId = "933F17BB-F987-421F-B3B7-6C374C3A5F9F";
name = "14 Sep 22, 16:56";
shapes = (
{
closed = 1;
nodes = (
(221,0,l),
(221,597,l),
(228,597,l),
(438,0,l),
(680,0,l),
(680,705,l),
(540,705,l),
(540,108,l),
(534,108,l),
(323,705,l),
(81,705,l),
(81,0,l)
);
}
);
width = 761;
},
{
anchors = (
{
name = bottom;
pos = (372,0);
},
{
name = hook;
pos = (602,0);
},
{
name = hook2;
pos = (142,0);
},
{
name = top;
pos = (375,705);
}
);
layerId = "EAEE501F-808F-4F80-A534-C44A55AE9CF1";
shapes = (
{
closed = 1;
nodes = (
(232,0,l),
(232,559,l),
(232,559,l),
(381,0,l),
(692,0,l),
(692,705,l),
(512,705,l),
(512,143,l),
(512,143,l),
(362,705,l),
(52,705,l),
(52,0,l)
);
}
);
width = 744;
},
{
anchors = (
{
name = bottom;
pos = (396,0);
},
{
name = hook;
pos = (625,0);
},
{
name = hook2;
pos = (165,0);
},
{
name = top;
pos = (402,705);
}
);
layerId = "D0F786FD-D799-4DD4-8218-8DF09CBA4779";
shapes = (
{
closed = 1;
nodes = (
(249,0,l),
(249,570,l),
(257,570,l),
(434,0,l),
(710,0,l),
(710,705,l),
(541,705,l),
(541,135,l),
(534,135,l),
(357,705,l),
(80,705,l),
(80,0,l)
);
}
);
width = 790;
},
{
anchors = (
{
name = bottom;
pos = (362,0);
},
{
name = hook;
pos = (591,0);
},
{
name = hook2;
pos = (133,0);
},
{
name = top;
pos = (375,705);
}
);
associatedMasterId = m008;
attr = {
coordinates = (
148,
2,
100
);
};
layerId = "9903E4FB-FB8B-47E8-B8FF-A445C700B4F6";
name = "9. Feb 23 at 16:50";
shapes = (
{
closed = 1;
nodes = (
(207,0,l),
(207,593,l),
(207,593,l),
(405,0,l),
(666,0,l),
(666,705,l),
(517,705,l),
(517,110,l),
(517,110,l),
(319,705,l),
(58,705,l),
(58,0,l)
);
}
);
width = 725;
},
{
anchors = (
{
name = bottom;
pos = (257,0);
},
{
name = hook;
pos = (427,0);
},
{
name = hook2;
pos = (86,0);
},
{
name = top;
pos = (283,705);
}
);
layerId = "38794FDE-96C3-45FE-89A8-4F68FD88490C";
shapes = (
{
closed = 1;
nodes = (
(117,0,l),
(117,687,l),
(117,687,l),
(341,0,l),
(459,0,l),
(459,705,l),
(396,705,l),
(396,18,l),
(396,18,l),
(172,705,l),
(54,705,l),
(54,0,l)
);
}
);
width = 513;
},
{
anchors = (
{
name = bottom;
pos = (313,0);
},
{
name = hook;
pos = (503,0);
},
{
name = hook2;
pos = (123,0);
},
{
name = top;
pos = (308,705);
}
);
layerId = "BD94C4B7-004C-4524-8669-6CB6D8067CD8";
shapes = (
{
closed = 1;
nodes = (
(198,0,l),
(198,601,l),
(198,601,l),
(302,0,l),
(588,0,l),
(588,705,l),
(428,705,l),
(428,101,l),
(428,101,l),
(324,705,l),
(38,705,l),
(38,0,l)
);
}
);
width = 626;
},
{
anchors = (
{
name = bottom;
pos = (467,0);
},
{
name = hook;
pos = (802,0);
},
{
name = hook2;
pos = (108,0);
},
{
name = top;
pos = (477,705);
}
);
layerId = "B4464F9C-2DA6-418A-B3C4-1470167D4EB6";
shapes = (
{
closed = 1;
nodes = (
(143,0,l),
(143,682,l),
(143,682,l),
(702,0,l),
(835,0,l),
(835,705,l),
(767,705,l),
(767,23,l),
(767,23,l),
(209,705,l),
(75,705,l),
(75,0,l)
);
}
);
width = 910;
},
{
anchors = (
{
name = bottom;
pos = (496,0);
},
{
name = hook;
pos = (837,0);
},
{
name = hook2;
pos = (148,0);
},
{
name = top;
pos = (513,705);
}
);
associatedMasterId = "B4464F9C-2DA6-418A-B3C4-1470167D4EB6";
attr = {
coordinates = (
148,
2,
150
);
};
layerId = "DBE0D53A-5F9A-4909-8674-FA6F86E1428E";
name = "9. Feb 23 at 16:50";
shapes = (
{
closed = 1;
nodes = (
(238,0,l),
(238,582,l),
(238,582,l),
(631,0,l),
(927,0,l),
(927,705,l),
(748,705,l),
(748,123,l),
(748,123,l),
(354,705,l),
(58,705,l),
(58,0,l)
);
}
);
width = 986;
},
{
anchors = (
{
name = bottom;
pos = (507,0);
},
{
name = hook;
pos = (850,0);
},
{
name = hook2;
pos = (164,0);
},
{
name = top;
pos = (527,705);
}
);
background = {
anchors = (
{
name = bottom;
pos = (507,0);
},
{
name = hook;
pos = (850,0);
},
{
name = hook2;
pos = (164,0);
},
{
name = top;
pos = (527,705);
}
);
shapes = (
{
closed = 1;
nodes = (
(274,0,l),
(274,543,l),
(274,543,l),
(607,0,l),
(962,0,l),
(962,705,l),
(740,705,l),
(740,162,l),
(740,162,l),
(407,705,l),
(52,705,l),
(52,0,l)
);
}
);
};
layerId = "9C3D73EE-3D01-4F34-8F18-5001540A34C7";
shapes = (
{
closed = 1;
nodes = (
(274,0,l),
(274,543,l),
(274,543,l),
(607,0,l),
(962,0,l),
(962,705,l),
(740,705,l),
(740,162,l),
(740,162,l),
(407,705,l),
(52,705,l),
(52,0,l)
);
}
);
width = 1014;
}
);
metricLeft = H;
metricRight = H;
note = N;
unicode = 78;
}
{
glyphname = O;
kernLeft = KO_O;
kernRight = KO_O;
layers = (
{
anchors = (
{
name = bottom;
pos = (385,0);
},
{
name = center;
pos = (385,353);
},
{
name = ogonek;
pos = (533,0);
},
{
name = top;
pos = (385,705);
},
{
name = topleft;
pos = (95,705);
},
{
name = topright;
pos = (496,705);
}
);
layerId = m008;
shapes = (
{
closed = 1;
nodes = (
(590,-17,o),
(725,130,o),
(725,352,cs),
(725,574,o),
(590,722,o),
(385,722,cs),
(180,722,o),
(45,574,o),
(45,352,cs),
(45,130,o),
(180,-17,o),
(385,-17,cs)
);
},
{
closed = 1;
nodes = (
(224,45,o),
(115,170,o),
(115,352,cs),
(115,534,o),
(224,660,o),
(385,660,cs),
(546,660,o),
(655,534,o),
(655,352,cs),
(655,170,o),
(546,45,o),
(385,45,cs)
);
}
);
width = 770;
},
{
anchors = (
{
name = bottom;
pos = (378,0);
},
{
name = center;
pos = (378,353);
},
{
name = ogonek;
pos = (521,0);
},
{
name = top;
pos = (378,705);
},
{
name = topleft;
pos = (73,705);
},
{
name = topright;
pos = (484,705);
}
);
layerId = "E0044746-7B1A-4AF1-A08A-EDFF47B9B447";
shapes = (
{
closed = 1;
nodes = (
(571,-17,o),
(698,130,o),
(698,352,cs),
(698,574,o),
(571,722,o),
(378,722,cs),
(185,722,o),
(58,574,o),
(58,352,cs),
(58,130,o),
(185,-17,o),
(378,-17,cs)
);
},
{
closed = 1;
nodes = (
(229,45,o),
(128,170,o),
(128,352,cs),
(128,534,o),
(229,660,o),
(378,660,cs),
(527,660,o),
(628,534,o),
(628,352,cs),
(628,170,o),
(527,45,o),
(378,45,cs)
);
}
);
width = 756;
},
{
anchors = (
{
name = bottom;
pos = (409,0);
},
{
name = center;
pos = (409,353);
},
{
name = ogonek;
pos = (595,0);
},
{
name = top;
pos = (409,705);
},
{
name = topleft;
pos = (80,705);
},
{
name = topright;
pos = (533,705);
}
);
layerId = "EAEE501F-808F-4F80-A534-C44A55AE9CF1";
shapes = (
{
closed = 1;
nodes = (
(639,-17,o),
(791,130,o),
(791,352,cs),
(791,575,o),
(639,722,o),
(409,722,cs),
(179,722,o),
(27,575,o),
(27,352,cs),
(27,130,o),
(179,-17,o),
(409,-17,cs)
);
},
{
closed = 1;
nodes = (
(300,154,o),
(230,231,o),
(230,352,cs),
(230,474,o),
(300,551,o),
(409,551,cs),
(517,551,o),
(588,474,o),
(588,352,cs),
(588,231,o),
(517,154,o),
(409,154,cs)
);
}
);
width = 818;
},
{
anchors = (
{
name = bottom;
pos = (407,0);
},
{
name = center;
pos = (407,353);
},
{
name = ogonek;
pos = (580,0);
},
{
name = top;
pos = (407,705);
},
{
name = topleft;
pos = (75,705);
},
{
name = topright;
pos = (526,705);
}
);
layerId = "D0F786FD-D799-4DD4-8218-8DF09CBA4779";
shapes = (
{
closed = 1;
nodes = (
(623,-17,o),
(766,130,o),
(766,352,cs),
(766,574,o),
(623,722,o),
(406,722,cs),
(190,722,o),
(46,574,o),
(46,352,cs),
(46,130,o),
(190,-17,o),
(406,-17,cs)
);
},
{
closed = 1;
nodes = (
(308,135,o),
(245,220,o),
(245,352,cs),
(245,484,o),
(308,570,o),
(406,570,cs),
(504,570,o),
(567,484,o),
(567,352,cs),
(567,220,o),
(504,135,o),
(406,135,cs)
);
}
);
width = 812;
},
{
anchors = (
{
name = bottom;
pos = (267,0);
},
{
name = center;
pos = (267,353);
},
{
name = ogonek;
pos = (369,0);
},
{
name = top;
pos = (267,705);
},
{
name = topleft;
pos = (68,705);
},
{
name = topright;
pos = (352,705);
}
);
layerId = "38794FDE-96C3-45FE-89A8-4F68FD88490C";
shapes = (
{
closed = 1;
nodes = (
(414,-17,o),
(502,122,o),
(502,353,cs),
(502,584,o),
(414,722,o),
(267,722,cs),
(120,722,o),
(32,584,o),
(32,353,cs),
(32,122,o),
(120,-17,o),
(267,-17,cs)
);
},
{
closed = 1;
nodes = (
(164,40,o),
(97,164,o),
(97,353,cs),
(97,543,o),
(164,665,o),
(267,665,cs),
(370,665,o),
(437,543,o),
(437,353,cs),
(437,164,o),
(370,40,o),
(267,40,cs)
);
}
);
width = 534;
},
{
anchors = (
{
name = bottom;
pos = (325,0);
},
{
name = center;
pos = (325,353);
},
{
name = ogonek;
pos = (467,0);
},
{
name = top;
pos = (325,705);
},
{
name = topleft;
pos = (40,705);
},
{
name = topright;
pos = (429,705);
}
);
layerId = "BD94C4B7-004C-4524-8669-6CB6D8067CD8";
shapes = (
{
closed = 1;
nodes = (
(513,-17,o),
(630,124,o),
(630,352,cs),
(630,580,o),
(513,722,o),
(325,722,cs),
(137,722,o),
(20,580,o),
(20,352,cs),
(20,124,o),
(137,-17,o),
(325,-17,cs)
);
},
{
closed = 1;
nodes = (
(253,143,o),
(208,223,o),
(208,352,cs),
(208,482,o),
(253,562,o),
(325,562,cs),
(397,562,o),
(442,482,o),
(442,352,cs),
(442,223,o),
(397,143,o),
(325,143,cs)
);
}
);
width = 650;
},
{
anchors = (
{
name = bottom;
pos = (513,0);
},
{
name = center;
pos = (513,353);
},
{
name = ogonek;
pos = (724,0);
},
{
name = top;
pos = (513,705);
},
{
name = topleft;
pos = (81,705);
},
{
name = topright;
pos = (675,705);
}
);
layerId = "B4464F9C-2DA6-418A-B3C4-1470167D4EB6";
shapes = (
{
closed = 1;
nodes = (
(803,-17,o),
(981,124,o),
(981,353,cs),
(981,582,o),
(804,722,o),
(513,722,cs),
(222,722,o),
(45,582,o),
(45,353,cs),
(45,124,o),
(223,-17,o),
(513,-17,cs)
);
},
{
closed = 1;
nodes = (
(264,43,o),
(115,160,o),
(115,353,cs),
(115,546,o),
(265,662,o),
(513,662,cs),
(761,662,o),
(911,546,o),
(911,353,cs),
(911,160,o),
(762,43,o),
(513,43,cs)
);
}
);
width = 1026;
},
{
anchors = (
{
name = bottom;
pos = (562,0);
},
{
name = center;
pos = (562,353);
},
{
name = ogonek;
pos = (822,0);
},
{
name = top;
pos = (562,705);
},
{
name = topleft;
pos = (115,705);
},
{
name = topright;
pos = (742,705);
}
);
background = {
anchors = (
{
name = bottom;
pos = (562,0);
},
{
name = center;
pos = (562,353);
},
{
name = ogonek;
pos = (822,0);
},
{
name = top;
pos = (562,705);
},
{
name = topleft;
pos = (115,705);
},
{
name = topright;
pos = (742,705);
}
);
shapes = (
{
closed = 1;
nodes = (
(884,-17,o),
(1097,129,o),
(1097,352,cs),
(1097,575,o),
(884,722,o),
(562,722,cs),
(240,722,o),
(27,575,o),
(27,352,cs),
(27,129,o),
(240,-17,o),
(562,-17,cs)
);
},
{
closed = 1;
nodes = (
(388,171,o),
(274,239,o),
(274,352,cs),
(274,465,o),
(388,534,o),
(562,534,cs),
(736,534,o),
(850,465,o),
(850,352,cs),
(850,239,o),
(736,171,o),
(562,171,cs)
);
}
);
};
layerId = "9C3D73EE-3D01-4F34-8F18-5001540A34C7";
shapes = (
{
closed = 1;
nodes = (
(884,-17,o),
(1097,129,o),
(1097,352,cs),
(1097,575,o),
(884,722,o),
(562,722,cs),
(240,722,o),
(27,575,o),
(27,352,cs),
(27,129,o),
(240,-17,o),
(562,-17,cs)
);
},
{
closed = 1;
nodes = (
(388,171,o),
(274,239,o),
(274,352,cs),
(274,465,o),
(388,534,o),
(562,534,cs),
(736,534,o),
(850,465,o),
(850,352,cs),
(850,239,o),
(736,171,o),
(562,171,cs)
);
}
);
width = 1124;
}
);
metricRight = "=|";
note = O;
unicode = 79;
userData = {
KernOnName = O;
};
}
{
glyphname = P;
kernLeft = KO_H;
kernRight = KO_P;
layers = (
{
anchors = (
{
name = bottom;
pos = (293,0);
},
{
name = top;
pos = (293,705);
}
);
layerId = m008;
shapes = (
{
closed = 1;
nodes = (
(143,0,l),
(143,684,l),
(106,645,l),
(328,645,ls),
(433,645,o),
(490,607,o),
(490,525,cs),
(490,443,o),
(433,405,o),
(328,405,cs),
(129,405,l),
(129,345,l),
(338,345,ls),
(474,345,o),
(560,412,o),
(560,525,cs),
(560,638,o),
(474,705,o),
(338,705,cs),
(75,705,l),
(75,0,l)
);
}
);
width = 585;
},
{
anchors = (
{
name = bottom;
pos = (306,0);
},
{
name = top;
pos = (306,705);
}
);
layerId = "E0044746-7B1A-4AF1-A08A-EDFF47B9B447";
shapes = (
{
closed = 1;
nodes = (
(150,0,l),
(150,684,l),
(113,645,l),
(316,645,ls),
(427,645,o),
(497,598,o),
(497,496,cs),
(497,394,o),
(427,347,o),
(316,347,cs),
(136,347,l),
(136,287,l),
(326,287,ls),
(468,287,o),
(567,365,o),
(567,496,cs),
(567,627,o),
(468,705,o),
(326,705,cs),
(82,705,l),
(82,0,l)
);
}
);
width = 612;
},
{
anchors = (
{
name = bottom;
pos = (327,0);
},
{
name = top;
pos = (327,705);
}
);
layerId = "EAEE501F-808F-4F80-A534-C44A55AE9CF1";
shapes = (
{
closed = 1;
nodes = (
(241,0,l),
(241,590,l),
(204,553,l),
(365,553,ls),
(417,553,o),
(449,530,o),
(449,484,cs),
(449,437,o),
(417,414,o),
(365,414,cs),
(189,414,l),
(189,262,l),
(370,262,ls),
(541,262,o),
(634,348,o),
(634,484,cs),
(634,620,o),
(541,705,o),
(370,705,cs),
(52,705,l),
(52,0,l)
);
}
);
width = 654;
},
{
anchors = (
{
name = bottom;
pos = (342,0);
},
{
name = top;
pos = (342,705);
}
);
layerId = "D0F786FD-D799-4DD4-8218-8DF09CBA4779";
shapes = (
{
closed = 1;
nodes = (
(265,0,l),
(265,590,l),
(233,567,l),
(352,567,ls),
(430,567,o),
(468,536,o),
(468,471,cs),
(468,406,o),
(430,376,o),
(352,376,cs),
(217,376,l),
(217,237,l),
(379,237,ls),
(550,237,o),
(653,327,o),
(653,471,cs),
(653,615,o),
(550,705,o),
(379,705,cs),
(80,705,l),
(80,0,l)
);
}
);
width = 683;
},
{
anchors = (
{
name = bottom;
pos = (223,0);
},
{
name = top;
pos = (223,705);
}
);
layerId = "38794FDE-96C3-45FE-89A8-4F68FD88490C";
shapes = (
{
closed = 1;
nodes = (
(117,0,l),
(117,688,l),
(89,650,l),
(240,650,ls),
(324,650,o),
(364,611,o),
(364,527,cs),
(364,443,o),
(324,404,o),
(240,404,cs),
(103,404,l),
(103,349,l),
(247,349,ls),
(361,349,o),
(427,414,o),
(427,527,cs),
(427,640,o),
(361,705,o),
(247,705,cs),
(54,705,l),
(54,0,l)
);
}
);
width = 445;
},
{
anchors = (
{
name = bottom;
pos = (276,0);
},
{
name = top;
pos = (276,705);
}
);
layerId = "BD94C4B7-004C-4524-8669-6CB6D8067CD8";
shapes = (
{
closed = 1;
nodes = (
(217,0,l),
(217,599,l),
(187,562,l),
(279,562,ls),
(332,562,o),
(361,536,o),
(361,488,cs),
(361,439,o),
(332,413,o),
(279,413,cs),
(167,413,l),
(167,270,l),
(292,270,ls),
(445,270,o),
(536,351,o),
(536,488,cs),
(536,624,o),
(445,705,o),
(293,705,cs),
(38,705,l),
(38,0,l)
);
}
);
width = 552;
},
{
anchors = (
{
name = bottom;
pos = (386,0);
},
{
name = top;
pos = (386,705);
}
);
layerId = "B4464F9C-2DA6-418A-B3C4-1470167D4EB6";
shapes = (
{
closed = 1;
nodes = (
(143,0,l),
(143,684,l),
(87,645,l),
(524,645,ls),
(648,645,o),
(705,604,o),
(705,515,cs),
(705,426,o),
(648,385,o),
(524,385,cs),
(133,385,l),
(133,325,l),
(536,325,ls),
(694,325,o),
(775,389,o),
(775,515,cs),
(775,641,o),
(694,705,o),
(536,705,cs),
(75,705,l),
(75,0,l)
);
}
);
width = 800;
},
{
anchors = (
{
name = bottom;
pos = (440,0);
},
{
name = top;
pos = (440,705);
}
);
background = {
anchors = (
{
name = bottom;
pos = (440,0);
},
{
name = top;
pos = (440,705);
}
);
shapes = (
{
closed = 1;
nodes = (
(283,0,l),
(283,557,l),
(226,521,l),
(575,521,ls),
(628,521,o),
(655,502,o),
(655,464,cs),
(655,427,o),
(627,407,o),
(575,407,cs),
(221,407,l),
(221,223,l),
(609,223,ls),
(786,223,o),
(883,307,o),
(883,461,cs),
(883,616,o),
(783,705,o),
(609,705,cs),
(52,705,l),
(52,0,l)
);
}
);
};
layerId = "9C3D73EE-3D01-4F34-8F18-5001540A34C7";
shapes = (
{
closed = 1;
nodes = (
(283,0,l),
(283,557,l),
(226,521,l),
(575,521,ls),
(628,521,o),
(655,502,o),
(655,464,cs),
(655,427,o),
(627,407,o),
(575,407,cs),
(221,407,l),
(221,223,l),
(609,223,ls),
(786,223,o),
(883,307,o),
(883,461,cs),
(883,616,o),
(783,705,o),
(609,705,cs),
(52,705,l),
(52,0,l)
);
}
);
width = 903;
}
);
metricLeft = H;
note = P;
unicode = 80;
userData = {
KernOnName = P;
};
}
